<?xml version="1.0" encoding="UTF-8" standalone="no"?>
<!-- Created with Inkscape (http://www.inkscape.org/) -->

<svg
   xmlns:dc="http://purl.org/dc/elements/1.1/"
   xmlns:cc="http://creativecommons.org/ns#"
   xmlns:rdf="http://www.w3.org/1999/02/22-rdf-syntax-ns#"
   xmlns:svg="http://www.w3.org/2000/svg"
   xmlns="http://www.w3.org/2000/svg"
   xmlns:sodipodi="http://sodipodi.sourceforge.net/DTD/sodipodi-0.dtd"
   xmlns:inkscape="http://www.inkscape.org/namespaces/inkscape"
   width="50mm"
   height="30mm"
   viewBox="0 0 177.16535 106.29921"
   id="svg2"
   version="1.1"
   inkscape:version="0.91 r13725"
   sodipodi:docname="visa.svg">
  <defs
     id="defs4" />
  <sodipodi:namedview
     id="base"
     pagecolor="#ffffff"
     bordercolor="#666666"
     borderopacity="1.0"
     inkscape:pageopacity="0.0"
     inkscape:pageshadow="2"
     inkscape:zoom="0.50447124"
     inkscape:cx="-410.57568"
     inkscape:cy="532.92674"
     inkscape:document-units="px"
     inkscape:current-layer="layer1"
     showgrid="false"
     inkscape:window-width="1920"
     inkscape:window-height="1017"
     inkscape:window-x="-8"
     inkscape:window-y="-8"
     inkscape:window-maximized="1" />
  <metadata
     id="metadata7">
    <rdf:RDF>
      <cc:Work
         rdf:about="">
        <dc:format>image/svg+xml</dc:format>
        <dc:type
           rdf:resource="http://purl.org/dc/dcmitype/StillImage" />
        <dc:title></dc:title>
      </cc:Work>
    </rdf:RDF>
  </metadata>
  <g
     inkscape:label="Layer 1"
     inkscape:groupmode="layer"
     id="layer1"
     transform="translate(0,-946.06299)">
    <g
       id="g5065"
       transform="matrix(0.07617635,0,0,0.07617635,121.60298,981.13703)">
      <path
         style="fill:#e7e7e7"
         d="m -340.64407,607.41006 c 0.90237,-0.36109 1.98049,-0.31668 2.39587,0.0986 0.41538,0.41536 -0.323,0.7108 -1.64062,0.65652 -1.45625,-0.06 -1.75238,-0.35617 -0.75525,-0.7552 z m 57.5,0 c 0.90237,-0.36109 1.98049,-0.31668 2.39587,0.0986 0.41538,0.41536 -0.323,0.7108 -1.64062,0.65652 -1.45625,-0.06 -1.75238,-0.35617 -0.75525,-0.7552 z M -310.7222,466.13179 c 1.54688,-0.29795 4.07813,-0.29795 5.625,0 1.54688,0.29793 0.28125,0.54171 -2.8125,0.54171 -3.09375,0 -4.35937,-0.24378 -2.8125,-0.54171 z m 19.39875,0.0159 c 1.21625,-0.31692 2.90375,-0.29608 3.75,0.0464 0.84638,0.34241 -0.14875,0.60171 -2.21125,0.57624 -2.0625,-0.0255 -2.75488,-0.30563 -1.53875,-0.62255 z M -53.0692,264.82645 c -1.55475,-1.98257 -1.510625,-2.02679 0.472,-0.47195 2.082125,1.63296 2.744375,2.65945 1.7155,2.65945 -0.2595,0 -1.243875,-0.98437 -2.1875,-2.1875 z m -321.25,-5 c -1.55475,-1.98257 -1.51063,-2.02679 0.472,-0.47195 1.20313,0.94356 2.1875,1.92794 2.1875,2.1875 0,1.0288 -1.0265,0.36664 -2.6595,-1.71555 z m 306.91575,-9.375 -2.38125,-2.8125 2.8125,2.38124 c 2.643,2.23777 3.3815,3.24376 2.38125,3.24376 -0.23725,0 -1.502875,-1.26563 -2.8125,-2.8125 z m -97.67,-198.053738 c 1.21625,-0.316924 2.90375,-0.296087 3.75,0.04638 0.84638,0.342413 -0.14875,0.601713 -2.21125,0.576238 -2.0625,-0.0255 -2.75488,-0.305625 -1.53875,-0.62255 z m 29.35125,0.03838 c 0.85938,-0.346762 2.26563,-0.346762 3.125,0 0.85938,0.346763 0.15625,0.630488 -1.5625,0.630488 -1.71875,0 -2.42187,-0.283725 -1.5625,-0.630488 z M 256.4653,-52.98605 c 1.24438,-1.375 2.54375,-2.5 2.8875,-2.5 0.34375,0 -0.39312,1.125 -1.6375,2.5 -1.24437,1.375 -2.54375,2.5 -2.8875,2.5 -0.34375,0 0.39313,-1.125 1.6375,-2.5 z m 140,-23.75 -67.5,-0.657625 67.11375,-0.296188 c 43.71638,-0.192925 67.383,0.139588 67.88625,0.953813 0.42487,0.6875 0.59875,1.116713 0.38625,0.953813 -0.21237,-0.162901 -30.76125,-0.592113 -67.88625,-0.953813 z m -1658.3594,-0.853887 c 0.9024,-0.361088 1.9805,-0.316688 2.3959,0.09863 0.4153,0.415375 -0.323,0.7108 -1.6407,0.656524 -1.4562,-0.06 -1.7523,-0.356175 -0.7552,-0.755199 z m 369.9219,-0.08313 c 25.60938,-0.188862 67.51563,-0.188862 93.125,0 25.60938,0.188875 4.65625,0.3434 -46.5625,0.3434 -51.21875,0 -72.17187,-0.154525 -46.5625,-0.3434 z"
         id="path5079"
         inkscape:connector-curvature="0" />
      <path
         style="fill:#cecece"
         d="m -336.89407,607.41006 c 0.90237,-0.36109 1.98049,-0.31668 2.39587,0.0986 0.41538,0.41536 -0.323,0.7108 -1.64062,0.65652 -1.45625,-0.06 -1.75238,-0.35617 -0.75525,-0.7552 z m 50,0 c 0.90237,-0.36109 1.98049,-0.31668 2.39587,0.0986 0.41538,0.41536 -0.323,0.7108 -1.64062,0.65652 -1.45625,-0.06 -1.75238,-0.35617 -0.75525,-0.7552 z m -879.54543,-10.08303 c 25.2149,-0.18903 66.8399,-0.18912 92.5,-2.1e-4 25.6602,0.18893 5.0298,0.34358 -45.8452,0.34369 -50.875,1.1e-4 -71.8696,-0.15446 -46.6548,-0.34349 z M -70.46195,525.45145 c 5.18,-5.51899 6.30225,-6.51136 6.30225,-5.57276 0,0.20061 -2.671875,2.87249 -5.9375,5.9375 l -5.9375,5.57276 5.57275,-5.9375 z M -318.8472,466.15229 c 1.20313,-0.3144 3.17188,-0.3144 4.375,0 1.20313,0.31441 0.21875,0.57166 -2.1875,0.57166 -2.40625,0 -3.39062,-0.25725 -2.1875,-0.57166 z m 126.13488,-65.38834 c 0,-1.71875 0.28375,-2.42187 0.6305,-1.5625 0.34674,0.85938 0.34674,2.26563 0,3.125 -0.34675,0.85938 -0.6305,0.15625 -0.6305,-1.5625 z m -17.19113,-37.8125 -2.38125,-2.8125 2.8125,2.38124 c 2.643,2.23777 3.3815,3.24376 2.38125,3.24376 -0.23725,0 -1.50287,-1.26562 -2.8125,-2.8125 z m 150.059875,-105 -4.941125,-5.3125 5.3125,4.94119 c 2.921875,2.71765 5.3125,5.10827 5.3125,5.3125 0,0.94572 -1.088625,-6.2e-4 -5.683875,-4.94119 z M -253.96232,110.76395 c 0,-1.71875 0.28375,-2.42188 0.6305,-1.5625 0.34674,0.85937 0.34674,2.26562 0,3.125 -0.34675,0.85937 -0.6305,0.15625 -0.6305,-1.5625 z m 123.31825,-58.353887 c 0.90237,-0.361088 1.98049,-0.316688 2.39587,0.09862 0.41538,0.415363 -0.323,0.7108 -1.64062,0.656525 -1.45625,-0.06 -1.75238,-0.356175 -0.75525,-0.7552 z m -1135.00003,-130 c 0.9024,-0.361088 1.9805,-0.316688 2.3959,0.09863 0.4153,0.415375 -0.323,0.7108 -1.6407,0.656524 -1.4562,-0.06 -1.7523,-0.356175 -0.7552,-0.755199 z m 1095.00003,-11.250001 c 0.90237,-0.361087 1.98049,-0.316687 2.39587,0.09863 0.41538,0.415375 -0.323,0.7108 -1.64062,0.656525 -1.45625,-0.06 -1.75238,-0.356175 -0.75525,-0.7552 z"
         id="path5077"
         inkscape:connector-curvature="0" />
      <path
         style="fill:#b1b1b1"
         d="m -333.2222,607.4361 c 0.85938,-0.34676 2.26563,-0.34676 3.125,0 0.85938,0.34676 0.15625,0.63049 -1.5625,0.63049 -1.71875,0 -2.42187,-0.28373 -1.5625,-0.63049 z m 41.25,0 c 0.85938,-0.34676 2.26563,-0.34676 3.125,0 0.85938,0.34676 0.15625,0.63049 -1.5625,0.63049 -1.71875,0 -2.42187,-0.28373 -1.5625,-0.63049 z m -62.42187,-1.27604 c 0.90237,-0.36109 1.98049,-0.31668 2.39587,0.0986 0.41538,0.41536 -0.323,0.7108 -1.64062,0.65652 -1.45625,-0.06 -1.75238,-0.35617 -0.75525,-0.7552 z m -13.75,-1.25 c 0.90237,-0.36109 1.98049,-0.31668 2.39587,0.0986 0.41538,0.41536 -0.323,0.7108 -1.64062,0.65652 -1.45625,-0.06 -1.75238,-0.35617 -0.75525,-0.7552 z M -324.4722,466.1861 c 0.85938,-0.34676 2.26563,-0.34676 3.125,0 0.85938,0.34676 0.15625,0.63049 -1.5625,0.63049 -1.71875,0 -2.42187,-0.28373 -1.5625,-0.63049 z m 131.66113,-69.90131 c 0.06,-1.45619 0.35625,-1.75238 0.75525,-0.75521 0.36112,0.90233 0.31675,1.98047 -0.0987,2.39583 -0.41538,0.41536 -0.71088,-0.32292 -0.65663,-1.64062 z m 182.598745,-8.02084 c 0,-1.71875 0.28375,-2.42187 0.6305,-1.5625 0.34675,0.85938 0.34675,2.26563 0,3.125 -0.34675,0.85938 -0.6305,0.15625 -0.6305,-1.5625 z m -0.09875,-24.47916 c 0.06,-1.45619 0.35625,-1.75238 0.75525,-0.75521 0.361125,0.90233 0.31675,1.98047 -0.09875,2.39583 -0.415375,0.41536 -0.710875,-0.32292 -0.656625,-1.64062 z M -239.3192,142.32645 c -1.55475,-1.98258 -1.51063,-2.02679 0.472,-0.47195 1.20313,0.94356 2.1875,1.92794 2.1875,2.1875 0,1.0288 -1.0265,0.36664 -2.6595,-1.71555 z m -14.74187,-36.04166 c 0.06,-1.45619 0.35625,-1.75238 0.75525,-0.75522 0.36112,0.90234 0.31675,1.98048 -0.0987,2.39584 -0.41538,0.41536 -0.71088,-0.32292 -0.65663,-1.64062 z M -8.454325,84.147538 c 0.469375,-1.232775 1.168375,-1.926526 1.55325,-1.541663 0.384875,0.384862 7.5e-4,1.393487 -0.8535,2.241413 -1.2345,1.225324 -1.378125,1.08175 -0.69975,-0.69975 z M -126.89407,52.410063 c 0.90237,-0.361088 1.98049,-0.316688 2.39587,0.09862 0.41538,0.415363 -0.323,0.7108 -1.64062,0.656525 -1.45625,-0.06 -1.75238,-0.356175 -0.75525,-0.7552 z M -384.1597,1.542 c 0,-0.2595625 0.98438,-1.2439375 2.1875,-2.1875 1.98263,-1.5548375 2.02675,-1.510625 0.472,0.47195 -1.633,2.0821875 -2.6595,2.74435 -2.6595,1.71555 z m 12.5,-12.5 c 0,-0.259562 0.98438,-1.243937 2.1875,-2.1875 1.98263,-1.554837 2.02675,-1.510625 0.472,0.47195 -1.633,2.082187 -2.6595,2.74435 -2.6595,1.71555 z m -832.6594,-41.71555 c -1.5549,-1.982575 -1.5107,-2.026788 0.4719,-0.47195 2.0822,1.632962 2.7443,2.65945 1.7156,2.65945 -0.2596,0 -1.244,-0.984375 -2.1875,-2.1875 z m -6.25,-6.25 c -1.5549,-1.982575 -1.5107,-2.026788 0.4719,-0.47195 2.0822,1.632962 2.7443,2.65945 1.7156,2.65945 -0.2596,0 -1.244,-0.984375 -2.1875,-2.1875 z m -339.7419,-6.041663 c 0.06,-1.456187 0.3562,-1.752375 0.7552,-0.755212 0.3611,0.902337 0.3167,1.980463 -0.099,2.395837 -0.4154,0.415363 -0.7108,-0.322925 -0.6566,-1.640625 z m 295.9169,-11.374724 c 0.9024,-0.361088 1.9805,-0.316688 2.3959,0.09863 0.4153,0.415375 -0.323,0.7108 -1.6407,0.656524 -1.4562,-0.06 -1.7523,-0.356175 -0.7552,-0.755199 z m -223.1069,-1.333451 c 39.0685,-0.183362 102.6311,-0.183325 141.25,8.8e-5 38.619,0.183425 6.6538,0.33345 -71.0337,0.3334 -77.6875,-5e-5 -109.2848,-0.150125 -70.2163,-0.333488 z m 1378.106925,-9.91655 c 0.902375,-0.361087 1.9805,-0.316687 2.395875,0.09863 0.415375,0.415375 -0.323,0.7108 -1.640625,0.656525 -1.456245,-0.06 -1.752375,-0.356175 -0.75525,-0.7552 z M -166.9722,-88.8139 c 0.85938,-0.346762 2.26563,-0.346762 3.125,0 0.85938,0.346763 0.15625,0.630487 -1.5625,0.630487 -1.71875,0 -2.42187,-0.283724 -1.5625,-0.630487 z m 51.32813,-0.026 c 0.90237,-0.361087 1.98049,-0.316687 2.39587,0.09862 0.41538,0.415375 -0.323,0.7108 -1.64062,0.656525 -1.45625,-0.06 -1.75238,-0.356175 -0.75525,-0.7552 z"
         id="path5075"
         inkscape:connector-curvature="0" />
      <path
         style="fill:#868686"
         d="m -326.95757,607.37987 c 1.55487,-0.29898 3.80487,-0.28763 5,0.0253 1.195,0.31287 -0.0775,0.55751 -2.82713,0.54363 -2.75,-0.0139 -3.72787,-0.26986 -2.17287,-0.56885 z m 27.5,0 c 1.55487,-0.29898 3.80487,-0.28763 5,0.0253 1.195,0.31287 -0.0775,0.55751 -2.82713,0.54363 -2.75,-0.0139 -3.72787,-0.26986 -2.17287,-0.56885 z m -51.1865,-1.21981 c 0.90237,-0.36109 1.98049,-0.31668 2.39587,0.0986 0.41538,0.41536 -0.323,0.7108 -1.64062,0.65652 -1.45625,-0.06 -1.75238,-0.35617 -0.75525,-0.7552 z m 22.5,-140 c 0.90237,-0.36109 1.98049,-0.31668 2.39587,0.0986 0.41538,0.41536 -0.323,0.7108 -1.64062,0.65652 -1.45625,-0.06 -1.75238,-0.35617 -0.75525,-0.7552 z m 47.5,0 c 0.90237,-0.36109 1.98049,-0.31668 2.39587,0.0986 0.41538,0.41536 -0.323,0.7108 -1.64062,0.65652 -1.45625,-0.06 -1.75238,-0.35617 -0.75525,-0.7552 z m 270.477995,-83.52111 c 0.025,-2.0625 0.305625,-2.75492 0.622625,-1.53871 0.316875,1.21621 0.296125,2.90371 -0.04625,3.75 -0.342375,0.84629 -0.601625,-0.14879 -0.57625,-2.21129 z m -0.145,-15.10416 c 0.06,-1.45619 0.35625,-1.75238 0.75525,-0.75521 0.361125,0.90233 0.31675,1.98047 -0.09875,2.39583 -0.415375,0.41536 -0.710875,-0.32292 -0.656625,-1.64062 z M -1129.1597,284.56476 c 0,-5.25841 -20.0823,-48.43627 -33.2435,-71.47507 -53.4744,-93.60754 -140.4854,-173.096115 -246.1315,-224.852552 -37.8432,-18.539526 -86.0076,-36.799813 -125.3125,-47.508976 -16.713,-4.553699 -16.3922,-4.253424 -14.5245,-13.591849 l 0.788,-3.940138 149.5245,0.37465 c 140.3413,0.35165 150.0235,0.514912 157.6495,2.6583 25.5239,7.173862 42.728,22.852063 49.736,45.324787 3.017,9.674913 63.028,313.112728 62.1066,314.034138 -0.3259,0.32591 -0.5926,-0.13456 -0.5926,-1.02329 z m 743.06613,-36.61331 -4.94113,-5.3125 5.3125,4.94119 c 4.94063,4.59525 5.88688,5.68381 4.94113,5.68381 -0.20413,0 -2.59476,-2.39063 -5.3125,-5.3125 z m 150.52437,-101.875 c -1.55475,-1.98258 -1.51063,-2.02679 0.472,-0.47195 1.20313,0.94356 2.1875,1.92794 2.1875,2.1875 0,1.0288 -1.0265,0.36664 -2.6595,-1.71555 z m -199.74181,-1.04166 c 0.06,-1.45619 0.35617,-1.75238 0.7552,-0.75522 0.36108,0.90234 0.31668,1.98048 -0.0986,2.39584 -0.41536,0.41536 -0.7108,-0.32292 -0.65652,-1.64062 z m 0.0987,-20.52084 c 0,-1.71875 0.28373,-2.42188 0.63049,-1.5625 0.34676,0.85937 0.34676,2.26562 0,3.125 -0.34676,0.85937 -0.63049,0.15625 -0.63049,-1.5625 z M -239.1597,77.792 c 0,-0.259563 0.98438,-1.243938 2.1875,-2.1875 1.98263,-1.554837 2.02675,-1.510625 0.472,0.47195 -1.633,2.082188 -2.6595,2.74435 -2.6595,1.71555 z m -137.5,-83.90305 c 2.33225,-2.40625 4.52162,-4.375 4.86537,-4.375 0.34376,0 -1.28312,1.96875 -3.61537,4.375 -2.33225,2.40625 -4.52162,4.375 -4.86537,4.375 -0.34376,0 1.28312,-1.96875 3.61537,-4.375 z m -305.1792,-70.946125 c 0.52055,-0.520375 40.0082,-0.801513 87.75033,-0.62475 l 86.80387,0.321375 -87.75032,0.62475 c -48.26268,0.343612 -87.32442,0.198987 -86.80388,-0.321375 z m 996.19483,0.717238 c 0.90237,-0.361088 1.98049,-0.316688 2.39587,0.09863 0.41538,0.415375 -0.323,0.7108 -1.64063,0.656524 -1.45624,-0.06 -1.75237,-0.356175 -0.75524,-0.755199 z M -161.9722,-88.8139 c 0.85938,-0.346762 2.26563,-0.346762 3.125,0 0.85938,0.346763 0.15625,0.630487 -1.5625,0.630487 -1.71875,0 -2.42187,-0.283724 -1.5625,-0.630487 z m 41.25,0 c 0.85938,-0.346762 2.26563,-0.346762 3.125,0 0.85938,0.346763 0.15625,0.630487 -1.5625,0.630487 -1.71875,0 -2.42187,-0.283724 -1.5625,-0.630487 z"
         id="path5073"
         inkscape:connector-curvature="0" />
      <path
         style="fill:#6e6e6e"
         d="m -315.6892,607.34707 c 2.94013,-0.26404 7.44013,-0.26033 10,0.009 2.56,0.26859 0.1545,0.48464 -5.3455,0.4801 -5.5,-0.005 -7.5945,-0.2243 -4.6545,-0.48836 z m -431.19136,-10.0202 c 24.28477,-0.18981 63.65977,-0.18971 87.5,2.2e-4 23.84022,0.18994 3.97086,0.34522 -44.15414,0.34511 -48.125,-1.3e-4 -67.63064,-0.15553 -43.34586,-0.34533 z M 211.7778,496.08081 c 7.73438,-0.2193 20.39063,-0.2193 28.125,0 7.73438,0.21931 1.40625,0.39875 -14.0625,0.39875 -15.46875,0 -21.79687,-0.17944 -14.0625,-0.39875 z m -543.67187,-29.92075 c 0.90237,-0.36108 1.98049,-0.31668 2.39587,0.0986 0.41538,0.41536 -0.323,0.7108 -1.64062,0.65652 -1.45625,-0.06 -1.75238,-0.35617 -0.75525,-0.7552 z M -10.0692,374.51395 c 0,-3.09375 0.24375,-4.35937 0.541625,-2.8125 0.298,1.54688 0.298,4.07813 0,5.625 -0.297875,1.54688 -0.541625,0.28125 -0.541625,-2.8125 z m 294.43625,-15.9369 c 20.1585,-0.19313 52.7835,-0.19299 72.5,3.1e-4 19.7165,0.19331 3.22325,0.35133 -36.65175,0.35115 -39.875,-1.7e-4 -56.00675,-0.15832 -35.84825,-0.35146 z M -1213.0691,141.07645 c -1.5549,-1.98258 -1.5107,-2.02679 0.4719,-0.47195 1.2031,0.94356 2.1875,1.92794 2.1875,2.1875 0,1.0288 -1.0265,0.36664 -2.6594,-1.71555 z m 777.85676,-0.3125 c 0,-1.71875 0.28373,-2.42188 0.63049,-1.5625 0.34676,0.85937 0.34676,2.26562 0,3.125 -0.34676,0.85937 -0.63049,0.15625 -0.63049,-1.5625 z m -784.69116,-7.8125 -2.3812,-2.8125 2.8125,2.38124 c 2.643,2.23777 3.3816,3.24376 2.3812,3.24376 -0.2372,0 -1.5028,-1.26563 -2.8125,-2.8125 z m 784.69116,-3.4375 c 0,-1.71875 0.28373,-2.42188 0.63049,-1.5625 0.34676,0.85937 0.34676,2.26562 0,3.125 -0.34676,0.85937 -0.63049,0.15625 -0.63049,-1.5625 z m -794.04196,-7.1875 -3.0304,-3.4375 3.4375,3.03039 c 3.2129,2.83236 4.0107,3.84461 3.0304,3.84461 -0.2239,0 -1.7708,-1.54688 -3.4375,-3.4375 z m -18.6915,-20 -8.0889,-8.4375 8.4375,8.08889 c 7.8371,7.51331 9.0089,8.78611 8.0889,8.78611 -0.1918,0 -3.9886,-3.79688 -8.4375,-8.4375 z m -21.3085,-20 -3.0304,-3.4375 3.4375,3.030387 c 1.8906,1.666725 3.4375,3.2136 3.4375,3.4375 0,0.98035 -1.0123,0.182476 -3.8446,-3.030387 z m -11.3148,-10 c -1.5549,-1.982575 -1.5107,-2.026788 0.4719,-0.47195 2.0822,1.632962 2.7443,2.65945 1.7156,2.65945 -0.2596,0 -1.244,-0.984375 -2.1875,-2.1875 z m -7.5,-6.25 c -1.5549,-1.982575 -1.5107,-2.026788 0.4719,-0.47195 2.0822,1.632962 2.7443,2.65945 1.7156,2.65945 -0.2596,0 -1.244,-0.984375 -2.1875,-2.1875 z m -12.5,-10 c -1.5549,-1.982575 -1.5107,-2.026788 0.4719,-0.47195 2.0822,1.632962 2.7443,2.65945 1.7156,2.65945 -0.2596,0 -1.244,-0.984375 -2.1875,-2.1875 z M -156.3472,-88.847712 c 1.20313,-0.314401 3.17188,-0.314401 4.375,0 1.20313,0.314412 0.21875,0.571662 -2.1875,0.571662 -2.40625,0 -3.39062,-0.25725 -2.1875,-0.571662 z m 31.95313,0.0075 c 0.90237,-0.361087 1.98049,-0.316687 2.39587,0.09863 0.41538,0.415375 -0.323,0.710799 -1.64062,0.656525 -1.45625,-0.06 -1.75238,-0.356175 -0.75525,-0.7552 z"
         id="path5071"
         inkscape:connector-curvature="0" />
      <path
         style="fill:#575757"
         d="m 281.23817,496.07742 c 15.6875,-0.19846 41,-0.19823 56.25,5.1e-4 15.24988,0.19874 2.41463,0.36112 -28.52287,0.36086 -30.9375,-2.8e-4 -43.41475,-0.16289 -27.72713,-0.36137 z m -347.39162,-243.12597 -2.38125,-2.8125 2.8125,2.38124 c 2.643,2.23777 3.3815,3.24376 2.38125,3.24376 -0.23725,0 -1.502875,-1.26563 -2.8125,-2.8125 z m -369.01256,-117.8125 c 0.0255,-2.0625 0.30562,-2.75492 0.62255,-1.53871 0.31692,1.21621 0.29608,2.90371 -0.0464,3.75 -0.34241,0.84628 -0.60171,-0.14879 -0.57624,-2.21129 z m -799.73749,-18.4375 -2.3812,-2.8125 2.8125,2.38124 c 1.5469,1.30967 2.8125,2.5753 2.8125,2.8125 0,1.00031 -1.006,0.26181 -3.2438,-2.38124 z m -28.1008,-28.125 -3.0304,-3.4375 3.4375,3.030387 c 3.2129,2.832363 4.0107,3.844613 3.0304,3.844613 -0.2239,0 -1.7708,-1.546875 -3.4375,-3.4375 z m -13.8148,-12.5 c -1.5549,-1.982575 -1.5107,-2.026788 0.4719,-0.47195 2.0822,1.632962 2.7443,2.65945 1.7156,2.65945 -0.2596,0 -1.244,-0.984375 -2.1875,-2.1875 z M -153.25008,51.111787 c 2.219,-0.276137 6.1565,-0.280675 8.75,-0.01 2.59351,0.2706 0.77788,0.496525 -4.03462,0.502075 -4.8125,0.005 -6.93437,-0.21585 -4.71538,-0.491987 z M 320.5278,-76.3139 c 0.85938,-0.346762 2.26563,-0.346762 3.125,0 0.85938,0.346762 0.15625,0.630487 -1.5625,0.630487 -1.71875,0 -2.42187,-0.283725 -1.5625,-0.630487 z m -465,-12.5937 c 3.60938,-0.2525 9.51563,-0.2525 13.125,0 3.60938,0.2525 0.65625,0.4591 -6.5625,0.4591 -7.21875,0 -10.17187,-0.2066 -6.5625,-0.4591 z"
         id="path5069"
         inkscape:connector-curvature="0" />
      <path
         style="fill:#444444"
         d="m -348.5347,606.24774 c -46.32562,-4.57034 -67.2155,-7.74744 -96.875,-14.73354 -26.95552,-6.34921 -61.25,-17.92937 -61.25,-20.68221 0,-2.16229 23.86045,-148.09515 24.28309,-148.5178 0.25339,-0.25338 4.47109,1.5589 9.37266,4.0273 24.63876,12.40787 63.36837,26.7116 88.12188,32.5454 25.82262,6.08576 40.01912,7.43026 78.84737,7.4674 35.72413,0.0341 36.4495,-0.0164 50,-3.48713 29.93113,-7.66625 50.90737,-21.86097 59.68088,-40.38628 3.78825,-7.99893 4.06912,-9.4978 4.06912,-21.71693 0,-12.26631 -0.26525,-13.66728 -4.05525,-21.41355 -3.08588,-6.3071 -6.70125,-10.78945 -15.1235,-18.75 -13.802,-13.04527 -28.0745,-21.94741 -68.94625,-43.0035 -55.683,-28.68644 -78.2865,-43.72296 -103.18238,-68.63992 -35.43012,-35.46007 -50.56762,-69.83388 -50.56762,-114.82767 0,-41.123985 12.4225,-80.321447 35.92788,-113.36536 10.27125,-14.43935 33.48587,-37.935825 47.54775,-48.125 45.76087,-33.158237 100.808,-52.645263 167.59437,-59.329438 18.8935,-1.890912 70.3495,-1.584937 90.18,0.536251 19.9455,2.1335 47.16775,7.000037 63.75,11.396637 19.663875,5.213675 42.638,13.1766 43.347,15.024288 C 14.731925,-58.313987 -7.381075,83.15195 -8.289575,84.060475 -8.44195,84.21285 -12.7782,82.329163 -17.9257,79.874513 -61.484575,59.102788 -117.2667,48.642913 -166.7112,51.9753 c -41.38962,2.789513 -70.30975,16.455213 -82.5325,38.9993 -3.99275,7.364263 -4.28925,8.696275 -4.26613,19.16435 0.03,13.761 2.59925,19.82563 13.19688,31.15451 13.391,14.31499 31.01137,25.38808 83.65325,52.56967 44.89012,23.17898 65.5335,36.46555 87.751125,56.4788 28.93625,26.06512 45.454125,52.36352 54.37125,86.56566 2.524875,9.68442 3.246375,16.05519 3.763375,33.23136 1.146,38.07441 -5.0175,67.64809 -20.841125,100 -32.136625,65.70438 -97.012755,109.80215 -189.419625,128.75263 -27.04812,5.54695 -44.209,7.077 -83.75,7.46712 -21.3125,0.21028 -41,0.16035 -43.75,-0.111 z m 329.3505,-13.29629 c 1.28425,-2.92187 59.416125,-141.71875 129.18187,-308.4375 69.76588,-166.71875 127.98338,-305.741275 129.37238,-308.938938 7.78175,-17.914725 22.4805,-34.005112 37.975,-41.570425 19.75475,-9.645462 31.41587,-10.694662 119.1545,-10.720849 l 66.28412,-0.01975 70.32588,336.562502 c 38.67912,185.10937 70.30438,336.98437 70.27825,337.5 -0.0263,0.51562 -36.03675,0.9375 -80.02363,0.9375 l -79.97624,0 -0.68251,-2.8125 c -0.37537,-1.54688 -5.15812,-24.13144 -10.62837,-50.18792 -5.47025,-26.05647 -10.19412,-47.62362 -10.4975,-47.92701 -0.30337,-0.30337 -50.797,-0.86417 -112.20787,-1.24621 l -111.65638,-0.69462 -12.99313,36.12163 c -7.14625,19.86689 -15.50324,43.01225 -18.57112,51.43413 l -5.578,15.3125 -91.046125,0 -91.046,0 2.334875,-5.3125 z m 412.0285,-237.5 c -0.44463,-2.23437 -11.7385,-56.9375 -25.09737,-121.5625 -13.35888,-64.625 -24.6685,-119.89063 -25.13251,-122.8125 -0.46399,-2.92188 -1.23062,-5.3125 -1.70362,-5.3125 -0.47288,0 -6.08225,14.48437 -12.46512,32.1875 -6.38288,17.70312 -26.8245,73.53125 -45.42575,124.0625 -18.60138,50.53125 -34.07951,93.14063 -34.39588,94.6875 l -0.57525,2.8125 72.802,0 72.802,0 -0.8085,-4.0625 z m -1604.5195,241.25806 c -0.01,-0.17631 -34.7795,-131.79741 -77.2688,-292.49135 l -77.2533,-292.170797 5.7063,3.309825 c 11.5376,6.692174 34.8322,22.2594 48.3613,32.318774 80.1886,59.623248 140.2986,135.244338 177.329,223.087988 6.8271,16.19521 7.4868,18.77643 16.3773,64.07607 5.095,25.9606 9.2637,47.58873 9.2637,48.0625 0,0.47379 0.5187,0.32705 1.1527,-0.32607 0.6339,-0.65313 36.378,-96.25 79.4313,-212.4375 43.05323,-116.1875 81.22784,-219.125 84.83244,-228.75 l 6.55382,-17.5 91.51488,-0.320613 c 50.33317,-0.176337 91.51049,0.104876 91.50514,0.625 -0.005,0.520088 -61.54769,151.976863 -136.76077,336.570613 l -136.75101,335.625 -91.9893,0.32056 c -50.594,0.1763 -91.9962,0.1763 -92.0047,0 z m 421.2655,-0.0814 c 0,-2.04308 108.67573,-672.456548 109.07099,-672.85181 0.29126,-0.291275 39.29771,-0.385075 86.68097,-0.208462 l 86.1514,0.321112 -54.35401,336.5625 -54.35401,336.5625 -86.59768,0 c -47.62871,0 -86.59766,-0.17363 -86.59766,-0.38584 z"
         id="path5067"
         inkscape:connector-curvature="0" />
    </g>
  </g>
</svg>
