<?xml version="1.0" encoding="UTF-8" standalone="no"?>
<!-- Created with Inkscape (http://www.inkscape.org/) -->

<svg
   xmlns:dc="http://purl.org/dc/elements/1.1/"
   xmlns:cc="http://creativecommons.org/ns#"
   xmlns:rdf="http://www.w3.org/1999/02/22-rdf-syntax-ns#"
   xmlns:svg="http://www.w3.org/2000/svg"
   xmlns="http://www.w3.org/2000/svg"
   xmlns:sodipodi="http://sodipodi.sourceforge.net/DTD/sodipodi-0.dtd"
   xmlns:inkscape="http://www.inkscape.org/namespaces/inkscape"
   width="30mm"
   height="30mm"
   viewBox="0 0 106.29921 106.29921"
   id="svg2"
   version="1.1"
   inkscape:version="0.91 r13725"
   sodipodi:docname="footer_soc_ml.svg">
  <defs
     id="defs4" />
  <sodipodi:namedview
     id="base"
     pagecolor="#ffffff"
     bordercolor="#666666"
     borderopacity="1.0"
     inkscape:pageopacity="0.0"
     inkscape:pageshadow="2"
     inkscape:zoom="2.0180057"
     inkscape:cx="73.139007"
     inkscape:cy="77.128408"
     inkscape:document-units="px"
     inkscape:current-layer="layer1"
     showgrid="false"
     inkscape:window-width="1920"
     inkscape:window-height="1017"
     inkscape:window-x="-8"
     inkscape:window-y="-8"
     inkscape:window-maximized="1" />
  <metadata
     id="metadata7">
    <rdf:RDF>
      <cc:Work
         rdf:about="">
        <dc:format>image/svg+xml</dc:format>
        <dc:type
           rdf:resource="http://purl.org/dc/dcmitype/StillImage" />
        <dc:title></dc:title>
      </cc:Work>
    </rdf:RDF>
  </metadata>
  <g
     inkscape:label="Layer 1"
     inkscape:groupmode="layer"
     id="layer1"
     transform="translate(0,-946.06299)">
    <path
       style="fill:#ffffff"
       d="m 5.561476,1030.1098 c -0.5741455,-0.6344 -0.6319413,-2.9295 -0.6319413,-25.0962 l 0,-24.39785 2.6729287,2.65246 2.6729266,2.65246 0,19.77073 0,19.7709 43.148698,0 43.148698,0 0,-19.9617 0,-19.9618 2.67293,-2.65244 2.672934,-2.65245 0,24.16669 c 0,24.1933 -0.0542,25.2847 -1.29816,26.1154 -0.23109,0.1542 -21.571696,0.2831 -47.423616,0.2863 -45.0553346,0 -47.0296367,-0.024 -47.635398,-0.6925 z m 42.733798,-9.65 c -3.316234,-0.6767 -7.32581,-2.7982 -9.492898,-5.0229 -7.461166,-7.6591 -6.785877,-21.30949 1.463758,-29.58809 3.526829,-3.53921 6.952698,-5.26145 11.740142,-5.90201 9.996079,-1.33747 17.56966,3.02102 20.179354,11.61295 1.537468,5.0617 0.511614,11.58895 -2.398914,15.26375 -1.884186,2.3789 -4.168058,3.4952 -7.218891,3.5281 -2.218744,0.023 -2.724218,-0.1009 -3.554292,-0.8793 -0.532204,-0.499 -1.082703,-1.444 -1.223315,-2.1002 -0.399137,-1.8628 -0.540054,-1.8908 -1.668488,-0.3332 -1.344254,1.8557 -2.59381,2.669 -4.928666,3.208 -3.325061,0.7676 -6.087097,-0.4157 -7.596431,-3.2543 -0.959933,-1.8051 -0.832183,-6.3439 0.257456,-9.14838 1.225576,-3.1544 4.420474,-6.32965 7.469842,-7.4239 3.946861,-1.41632 7.473629,-1.46557 10.909549,-0.15228 l 0.981499,0.37515 -0.907177,5.09497 c -0.498967,2.80227 -1.005143,6.23334 -1.124859,7.62464 -0.19514,2.2675 -0.129457,2.6178 0.633682,3.381 1.790434,1.7903 5.033412,-0.2679 6.574058,-4.1726 0.658182,-1.6682 0.833648,-2.89283 0.823568,-5.74743 -0.01588,-4.47559 -0.931095,-7.12343 -3.418752,-9.89033 -5.493279,-6.10982 -16.539162,-5.84683 -22.932714,0.54601 -3.923341,3.92289 -5.780705,9.44491 -5.360153,15.93605 0.474437,7.3229 4.375109,12.0804 11.379464,13.8787 3.017324,0.7748 7.365033,0.5244 10.307026,-0.5934 2.216788,-0.8423 2.624601,-0.7025 2.746273,0.9414 0.07615,1.0293 -0.06235,1.1299 -2.715115,1.9702 -3.222116,1.0209 -8.187744,1.4059 -10.925006,0.8474 z m 5.852155,-15.0534 c 1.961043,-1.7717 2.59998,-3.2164 3.491393,-7.89461 0.835146,-4.38287 0.79134,-4.49645 -1.732729,-4.49226 -1.887332,0.003 -4.249162,1.06166 -5.611774,2.51508 -2.612443,2.78657 -3.536819,8.01139 -1.806534,10.21109 0.641931,0.8161 1.110534,1.0061 2.480906,1.0061 1.396673,0 1.947633,-0.2331 3.178738,-1.3454 z M 17.04187,985.35515 C 10.577661,978.77046 5.1855553,972.97177 5.0593921,972.46919 c -0.1508143,-0.60094 0.030576,-1.26195 0.5298203,-1.93064 l 0.7591734,-1.01683 46.8289992,-0.0969 c 46.416081,-0.0961 46.835755,-0.0902 47.594225,0.66824 0.44813,0.44813 0.76519,1.27352 0.76519,1.99197 0,1.09944 -1.21855,2.44772 -11.741797,12.99195 l -11.741791,11.76514 -0.463746,-2.75324 c -0.255073,-1.51425 -0.540419,-2.95296 -0.634079,-3.19707 -0.09369,-0.24413 3.250921,-3.86194 7.432451,-8.03955 4.181529,-4.1776 7.602785,-7.72614 7.602785,-7.88562 0,-0.15948 -17.440872,-0.28997 -38.757458,-0.28997 -21.316617,0 -38.757459,0.0606 -38.757459,0.13479 0,0.1606 3.52857,3.81818 10.787969,11.18241 l 5.321754,5.39862 -0.783366,2.23832 c -0.430846,1.23107 -0.83371,2.5664 -0.895233,2.96741 -0.08275,0.53929 -3.171895,-2.38798 -11.86496,-11.24308 z"
       id="path5370"
       inkscape:connector-curvature="0" />
  </g>
</svg>
