<?xml version="1.0" encoding="UTF-8" standalone="no"?>
<!-- Created with Inkscape (http://www.inkscape.org/) -->

<svg
   xmlns:dc="http://purl.org/dc/elements/1.1/"
   xmlns:cc="http://creativecommons.org/ns#"
   xmlns:rdf="http://www.w3.org/1999/02/22-rdf-syntax-ns#"
   xmlns:svg="http://www.w3.org/2000/svg"
   xmlns="http://www.w3.org/2000/svg"
   xmlns:sodipodi="http://sodipodi.sourceforge.net/DTD/sodipodi-0.dtd"
   xmlns:inkscape="http://www.inkscape.org/namespaces/inkscape"
   width="30mm"
   height="30mm"
   viewBox="0 0 106.29921 106.29921"
   id="svg2"
   version="1.1"
   inkscape:version="0.91 r13725"
   sodipodi:docname="footer_soc_tw.svg">
  <defs
     id="defs4" />
  <sodipodi:namedview
     id="base"
     pagecolor="#ffffff"
     bordercolor="#666666"
     borderopacity="1.0"
     inkscape:pageopacity="0.0"
     inkscape:pageshadow="2"
     inkscape:zoom="0.71347277"
     inkscape:cx="-165.94924"
     inkscape:cy="228.96641"
     inkscape:document-units="px"
     inkscape:current-layer="layer1"
     showgrid="false"
     inkscape:window-width="1920"
     inkscape:window-height="1017"
     inkscape:window-x="-8"
     inkscape:window-y="-8"
     inkscape:window-maximized="1" />
  <metadata
     id="metadata7">
    <rdf:RDF>
      <cc:Work
         rdf:about="">
        <dc:format>image/svg+xml</dc:format>
        <dc:type
           rdf:resource="http://purl.org/dc/dcmitype/StillImage" />
        <dc:title></dc:title>
      </cc:Work>
    </rdf:RDF>
  </metadata>
  <g
     inkscape:label="Layer 1"
     inkscape:groupmode="layer"
     id="layer1"
     transform="translate(0,-946.06299)">
    <g
       id="layer1-5"
       inkscape:label="Layer 1"
       transform="matrix(0.12205181,0,0,0.12205181,12.982569,935.69083)"
       style="fill:#ffffff">
      <g
         transform="matrix(3.1831475,0,0,3.3002268,3386.6831,-665.10919)"
         style="fill:#ffffff"
         id="g3382">
        <path
           inkscape:connector-curvature="0"
           id="path3396"
           d="m -993.6071,463.91286 c 2.6125,-0.206 6.8875,-0.206 9.5,0 2.6125,0.206 0.475,0.37454 -4.75,0.37454 -5.225,0 -7.3625,-0.16854 -4.75,-0.37454 z m -13.4375,-0.94807 c 0.7219,-0.28887 1.5844,-0.25335 1.9167,0.0789 0.3323,0.33229 -0.2584,0.56864 -1.3125,0.52522 -1.165,-0.048 -1.4019,-0.28494 -0.6042,-0.60416 z m 36,0 c 0.72187,-0.28887 1.58437,-0.25335 1.91667,0.0789 0.33229,0.33229 -0.25834,0.56864 -1.3125,0.52522 -1.16495,-0.048 -1.4019,-0.28494 -0.60417,-0.60416 z m -89,-21 c 0.7219,-0.28887 1.5844,-0.25335 1.9167,0.0789 0.3323,0.33229 -0.2584,0.56864 -1.3125,0.52522 -1.165,-0.048 -1.4019,-0.28494 -0.6042,-0.60416 z m 16,0 c 0.7219,-0.28887 1.5844,-0.25335 1.9167,0.0789 0.3323,0.33229 -0.2584,0.56864 -1.3125,0.52522 -1.165,-0.048 -1.4019,-0.28494 -0.6042,-0.60416 z m 147.1875,-12.81689 c 1.29175,-1.375 2.57363,-2.5 2.84863,-2.5 0.275,0 -0.55688,1.125 -1.84863,2.5 -1.29175,1.375 -2.57363,2.5 -2.84863,2.5 -0.275,0 0.55688,-1.125 1.84863,-2.5 z m -101.1875,-7.18311 c 0.72188,-0.28887 1.58438,-0.25335 1.91667,0.0789 0.33229,0.33229 -0.25834,0.56864 -1.3125,0.52522 -1.16495,-0.048 -1.4019,-0.28494 -0.60417,-0.60416 z m 109.6875,-1.31689 c 0.99549,-1.1 2.03498,-2 2.30998,-2 0.275,0 -0.31449,0.9 -1.30998,2 -0.99549,1.1 -2.03498,2 -2.30998,2 -0.275,0 0.31449,-0.9 1.30998,-2 z m -141.2362,-31.71758 c 1.52,-0.22986 3.77,-0.22371 5,0.0136 1.2299,0.23736 -0.014,0.42542 -2.7638,0.41792 -2.75,-0.008 -3.7563,-0.20172 -2.2362,-0.43157 z m -10.3395,-14.03242 -2.4243,-2.75 2.75,2.42431 c 2.5703,2.26589 3.2086,3.07569 2.4243,3.07569 -0.1791,0 -1.4166,-1.2375 -2.75,-2.75 z m 188.15465,-40.83333 c 0.048,-1.16495 0.28494,-1.4019 0.60416,-0.60417 0.28887,0.72187 0.25335,1.58437 -0.0789,1.91667 -0.3323,0.33229 -0.56864,-0.25834 -0.52522,-1.3125 z m -100.32895,-3.07895 c 0.6875,-0.27741 1.8125,-0.27741 2.5,0 0.6875,0.27741 0.125,0.50438 -1.25,0.50438 -1.375,0 -1.9375,-0.22697 -1.25,-0.50438 z m -8.9375,-1.02083 c 0.72187,-0.28887 1.58437,-0.25335 1.91667,0.079 0.33229,0.33229 -0.25834,0.56864 -1.3125,0.52522 -1.16495,-0.048 -1.4019,-0.28495 -0.60417,-0.60417 z m 12.26645,-14.90022 c 0.048,-1.16495 0.28494,-1.4019 0.60416,-0.60417 0.28887,0.72187 0.25335,1.58438 -0.0789,1.91667 -0.3323,0.33229 -0.56864,-0.25834 -0.52522,-1.3125 z m 108.92105,-4.91667 c 1.86578,-1.925 3.61733,-3.5 3.89233,-3.5 0.275,0 -1.02655,1.575 -2.89233,3.5 -1.86578,1.925 -3.61733,3.5 -3.89233,3.5 -0.275,0 1.02655,-1.575 2.89233,-3.5 z m -194.595,-15.75 -1.905,-2.25 2.25,1.90499 c 1.2375,1.04774 2.25,2.06024 2.25,2.25 0,0.80025 -0.8048,0.20945 -2.595,-1.90499 z m 189.595,-0.12755 c 0,-0.20766 0.7875,-0.99516 1.75,-1.75 1.58606,-1.24388 1.62143,-1.20851 0.37756,0.37755 -1.30637,1.66575 -2.12756,2.19548 -2.12756,1.37245 z m -195.5629,-5.87245 -2.9371,-3.25 3.25,2.93709 c 3.0295,2.73778 3.7097,3.56291 2.9371,3.56291 -0.1721,0 -1.6346,-1.4625 -3.25,-3.25 z m 137.8129,-16.46625 c 1.5125,-0.22913 3.9875,-0.22913 5.5,0 1.5125,0.22912 0.275,0.41659 -2.75,0.41659 -3.025,0 -4.2625,-0.18747 -2.75,-0.41659 z"
           style="fill:#ffffff" />
        <path
           inkscape:connector-curvature="0"
           id="path3394"
           d="m -892.3571,424.6479 c 0.99549,-1.1 2.03498,-2 2.30998,-2 0.275,0 -0.31449,0.9 -1.30998,2 -0.99549,1.1 -2.03498,2 -2.30998,2 -0.275,0 0.31449,-0.9 1.30998,-2 z m -102.6875,-2.68311 c 0.72188,-0.28887 1.58438,-0.25335 1.91667,0.0789 0.33229,0.33229 -0.25834,0.56864 -1.3125,0.52522 -1.16495,-0.048 -1.4019,-0.28494 -0.60417,-0.60416 z m 143.34539,-91.31689 c 0,-1.375 0.22698,-1.9375 0.50439,-1.25 0.27741,0.6875 0.27741,1.8125 0,2.5 -0.27741,0.6875 -0.50439,0.125 -0.50439,-1.25 z m -97,-7 c 0,-1.375 0.22698,-1.9375 0.50439,-1.25 0.27741,0.6875 0.27741,1.8125 0,2.5 -0.27741,0.6875 -0.50439,0.125 -0.50439,-1.25 z m 96.92106,-1.58333 c 0.048,-1.16495 0.28494,-1.4019 0.60416,-0.60417 0.28887,0.72187 0.25335,1.58437 -0.0789,1.91667 -0.3323,0.33229 -0.56864,-0.25834 -0.52522,-1.3125 z m -96.92106,-3.41667 c 0,-1.375 0.22698,-1.9375 0.50439,-1.25 0.27741,0.6875 0.27741,1.8125 0,2.5 -0.27741,0.6875 -0.50439,0.125 -0.50439,-1.25 z m -105.07899,-10.58333 c 0.048,-1.16495 0.285,-1.4019 0.6042,-0.60417 0.2889,0.72187 0.2534,1.58437 -0.079,1.91667 -0.3323,0.33229 -0.5687,-0.25834 -0.5253,-1.3125 z m 0,-5 c 0.048,-1.16495 0.285,-1.4019 0.6042,-0.60417 0.2889,0.72187 0.2534,1.58437 -0.079,1.91667 -0.3323,0.33229 -0.5687,-0.25834 -0.5253,-1.3125 z"
           style="fill:#ffffff" />
        <path
           inkscape:connector-curvature="0"
           id="path3392"
           d="m -851.66215,326.1479 c 0.0204,-1.65 0.2445,-2.20394 0.49804,-1.23097 0.25354,0.97297 0.23687,2.32297 -0.0371,3 -0.27388,0.67703 -0.48132,-0.11903 -0.46094,-1.76903 z m -15.78996,-40.75 -1.90499,-2.25 2.25,1.90499 c 2.11444,1.79022 2.70524,2.59501 1.90499,2.59501 -0.18976,0 -1.20226,-1.0125 -2.25,-2.25 z"
           style="fill:#ffffff" />
        <path
           inkscape:connector-curvature="0"
           id="path3390"
           d="m -934.3571,286.6479 c 0.99549,-1.1 2.03498,-2 2.30998,-2 0.275,0 -0.31449,0.9 -1.30998,2 -0.99549,1.1 -2.03498,2 -2.30998,2 -0.275,0 0.31449,-0.9 1.30998,-2 z"
           style="fill:#ffffff" />
        <path
           inkscape:connector-curvature="0"
           id="path3388"
           d="m -1000.0446,462.96479 c 0.72188,-0.28887 1.58438,-0.25335 1.91667,0.0789 0.33229,0.33229 -0.25834,0.56864 -1.3125,0.52522 -1.16497,-0.048 -1.40187,-0.28494 -0.60417,-0.60416 z m -55.5323,-20.05316 c 2.6291,-0.20668 6.6791,-0.20418 9,0.006 2.3209,0.20972 0.1698,0.37882 -4.7802,0.37577 -4.95,-0.003 -6.8489,-0.17464 -4.2198,-0.38131 z m 30.5922,-35.01373 c -1.2438,-1.58606 -1.2085,-1.62143 0.3776,-0.37756 0.9625,0.75485 1.75,1.54235 1.75,1.75 0,0.82304 -0.8212,0.29331 -2.1276,-1.37244 z m -13,-32 c -1.2438,-1.58606 -1.2085,-1.62143 0.3776,-0.37756 1.6657,1.30637 2.1955,2.12756 1.3724,2.12756 -0.2076,0 -0.9951,-0.7875 -1.75,-1.75 z m -4,-4 c -1.2438,-1.58606 -1.2085,-1.62143 0.3776,-0.37756 0.9625,0.75485 1.75,1.54235 1.75,1.75 0,0.82304 -0.8212,0.29331 -2.1276,-1.37244 z m 2.5326,-32.5 -1.905,-2.25 2.25,1.90499 c 2.1144,1.79022 2.7052,2.59501 1.905,2.59501 -0.1898,0 -1.2023,-1.0125 -2.25,-2.25 z m 89.345,-7.41228 c 0.6875,-0.27741 1.8125,-0.27741 2.5,0 0.6875,0.27741 0.125,0.50438 -1.25,0.50438 -1.375,0 -1.9375,-0.22697 -1.25,-0.50438 z m 109.75,-22.33772 c 2.14824,-2.2 4.1309,-4 4.4059,-4 0.275,0 -1.25766,1.8 -3.4059,4 -2.14824,2.2 -4.1309,4 -4.4059,4 -0.275,0 1.25766,-1.8 3.4059,-4 z m -14.5,-6.94098 c 0,-0.51754 0.375,-1.17275 0.83333,-1.45601 0.45834,-0.28327 0.83334,0.14017 0.83334,0.94098 0,0.8008 -0.375,1.45601 -0.83334,1.45601 -0.45833,0 -0.83333,-0.42344 -0.83333,-0.94098 z m -183.5629,-11.30902 -2.9371,-3.25 3.25,2.93709 c 3.0295,2.73778 3.7097,3.56291 2.9371,3.56291 -0.1721,0 -1.6346,-1.4625 -3.25,-3.25 z m 133.3754,-18.43311 c 0.72187,-0.28888 1.58437,-0.25335 1.91667,0.079 0.33229,0.33229 -0.25834,0.56864 -1.3125,0.52522 -1.16495,-0.048 -1.4019,-0.28495 -0.60417,-0.60417 z m 7.9375,0.0208 c 0.6875,-0.27742 1.8125,-0.27742 2.5,0 0.6875,0.27741 0.125,0.50438 -1.25,0.50438 -1.375,0 -1.9375,-0.22697 -1.25,-0.50438 z"
           style="fill:#ffffff" />
        <path
           inkscape:connector-curvature="0"
           id="path3386"
           d="m -999.51596,462.2988 c -0.83474,-0.467 -3.05294,-0.66986 -4.92944,-0.4508 -1.8764,0.21906 -3.4117,-0.0124 -3.4117,-0.5144 0,-0.50198 -1.35,-0.71456 -3,-0.47239 -1.65,0.24217 -3,0.0158 -3,-0.50308 0,-0.51886 -1.125,-0.72833 -2.5,-0.46548 -1.375,0.26285 -2.5,0.0378 -2.5,-0.50005 0,-0.53788 -0.9,-0.74261 -2,-0.45495 -1.1,0.28766 -2,0.0848 -2,-0.45076 0,-0.53782 -0.9514,-0.67179 -2.1252,-0.29924 -1.4681,0.46596 -1.906,0.3198 -1.4162,-0.4727 0.5019,-0.81208 -0.089,-0.94684 -2.024,-0.46129 -1.9186,0.48155 -2.524,0.34793 -2.0318,-0.44846 0.4431,-0.71701 0.1588,-0.92631 -0.7727,-0.56884 -0.8106,0.31105 -2.5215,-0.0157 -3.802,-0.72602 -1.2804,-0.71036 -2.5531,-1.32346 -2.8281,-1.36244 -0.275,-0.039 -1.4533,-0.60159 -2.6185,-1.25025 -1.1652,-0.64866 -2.4027,-0.89522 -2.75,-0.5479 -0.3473,0.34732 -0.6315,0.0799 -0.6315,-0.5942 0,-0.67413 -0.45,-0.94757 -1,-0.60765 -0.55,0.33992 -1,0.11492 -1,-0.5 0,-0.61492 -0.45,-0.83992 -1,-0.5 -0.55,0.33992 -1,0.11492 -1,-0.5 0,-0.61492 -0.45,-0.83992 -1,-0.5 -0.55,0.33992 -1,0.11492 -1,-0.5 0,-0.61492 -0.45,-0.83992 -1,-0.5 -0.55,0.33992 -1,0.11492 -1,-0.5 0,-0.61492 -0.45,-0.83992 -1,-0.5 -0.55,0.33992 -1,0.11492 -1,-0.5 0,-0.61492 -0.359,-0.89617 -0.7977,-0.625 -0.4388,0.27117 -1.4513,0.0796 -2.25,-0.42567 -0.9511,-0.60167 1.4151,-0.92399 6.8567,-0.93402 5.4088,-0.01 8.0882,-0.37258 7.6764,-1.0389 -0.4155,-0.67229 0.7654,-0.80003 3.441,-0.37219 2.2405,0.35827 4.0756,0.25638 4.0781,-0.22641 0,-0.4828 1.6466,-0.96314 3.6536,-1.06743 2.0071,-0.10429 3.9176,-0.55429 4.2456,-1 0.3279,-0.44571 1.0463,-0.82427 1.5963,-0.84125 2.728,-0.0842 7.5,-1.74333 7.5,-2.6076 0,-0.53876 0.4189,-0.72067 0.9309,-0.40424 0.512,0.31644 1.2325,0.0873 1.6012,-0.50915 0.3686,-0.59647 1.3231,-0.83396 2.121,-0.52777 0.9261,0.35538 1.1918,0.13776 0.7348,-0.60176 -0.4782,-0.77368 -0.1633,-0.94638 0.9481,-0.51993 0.9152,0.3512 1.664,0.17612 1.664,-0.38908 0,-0.5652 0.45,-0.74952 1,-0.4096 0.55,0.33992 1,0.11492 1,-0.5 0,-0.61492 0.4336,-0.85006 0.9635,-0.52254 0.53,0.32752 1.88,-0.32092 3,-1.44099 1.1201,-1.12006 2.2469,-1.92397 2.5041,-1.78647 0.2571,0.1375 1.3873,-0.5375 2.51141,-1.5 1.12412,-0.9625 2.3266,-1.75 2.67218,-1.75 0.34558,0 1.27381,-0.7875 2.06273,-1.75 0.78892,-0.9625 1.1065,-1.11797 0.70573,-0.34549 -0.47906,0.92339 -0.33319,1.16009 0.42584,0.69098 0.63498,-0.39244 1.15451,-1.64322 1.15451,-2.77951 0,-1.7622 -0.44112,-1.97776 -3,-1.46598 -1.85651,0.3713 -3,0.18705 -3,-0.48341 0,-0.66566 -0.99627,-0.83336 -2.5838,-0.43492 -1.8685,0.46898 -2.3789,0.31697 -1.8436,-0.54911 0.5197,-0.84088 0.098,-1.02964 -1.4162,-0.6337 -1.186,0.31014 -2.1564,0.10788 -2.1564,-0.44947 0,-0.55735 -0.675,-0.75435 -1.5,-0.43776 -0.825,0.31658 -1.5,0.11317 -1.5,-0.45203 0,-0.5652 -0.45,-0.74952 -1,-0.4096 -0.55,0.33992 -1,0.11492 -1,-0.5 0,-0.61492 -0.4799,-0.82141 -1.0665,-0.45888 -0.5866,0.36254 -1.6973,-0.17341 -2.4682,-1.19098 -0.7709,-1.01758 -1.4229,-1.40014 -1.4488,-0.85014 -0.026,0.55 -0.4738,0.325 -0.9953,-0.5 -0.5216,-0.825 -1.3022,-1.51974 -1.7347,-1.54386 -1.1134,-0.0621 -10.2865,-9.53178 -10.2865,-10.6191 0,-0.4949 -0.6724,-1.15784 -1.4943,-1.47321 -0.8218,-0.31537 -1.2452,-0.97625 -0.9409,-1.46861 0.3043,-0.49237 0.05,-0.89522 -0.5648,-0.89522 -0.6149,0 -0.8399,-0.45 -0.5,-1 0.3399,-0.55 0.1556,-1 -0.4096,-1 -0.5652,0 -0.7403,-0.74882 -0.3891,-1.66404 0.4265,-1.11132 0.2538,-1.42623 -0.5199,-0.94807 -0.7375,0.45578 -0.9577,0.19276 -0.606,-0.72374 0.7106,-1.85176 4.9086,-2.67717 10.085,-1.98288 2.4127,0.32362 4.3507,0.10974 4.742,-0.52332 0.3639,-0.58883 1.2767,-0.83458 2.0285,-0.5461 0.7517,0.28847 1.6658,0.0406 2.0313,-0.55074 0.3655,-0.59138 -0.039,-1.29706 -0.8988,-1.56817 -0.8599,-0.27112 -2.3509,-0.78938 -3.3134,-1.1517 -0.9625,-0.36232 -2.0875,-0.58732 -2.5,-0.5 -0.4125,0.0873 -0.75,-0.26092 -0.75,-0.77385 0,-0.94946 -3.8852,-2.62604 -5.25,-2.26552 -0.4125,0.10897 -0.75,-0.27843 -0.75,-0.86089 0,-0.58246 -0.4028,-0.81004 -0.8952,-0.50574 -0.4924,0.3043 -1.1642,-0.14766 -1.493,-1.00437 -0.3287,-0.8567 -0.9793,-1.32178 -1.4457,-1.03352 -0.4664,0.28826 -1.8423,-0.82073 -3.0576,-2.46443 -1.2239,-1.65548 -2.7019,-2.68419 -3.3135,-2.30622 -0.6367,0.39348 -0.8229,0.22745 -0.4399,-0.39221 0.3652,-0.59099 -0.8027,-2.28125 -2.5955,-3.75612 -1.7928,-1.47488 -2.5846,-2.3775 -1.7596,-2.00582 0.98,0.44149 0.8987,0.18243 -0.2345,-0.74727 -0.9539,-0.78267 -1.452,-1.70545 -1.1068,-2.05062 0.3451,-0.34517 -0.1093,-0.91033 -1.0098,-1.25591 -0.9006,-0.34557 -1.3884,-1.03117 -1.0841,-1.52353 0.3043,-0.49237 0.05,-0.89522 -0.5648,-0.89522 -0.6149,0 -0.8399,-0.45 -0.5,-1 0.3399,-0.55 0.066,-1 -0.6076,-1 -0.6742,0 -0.9477,-0.27802 -0.6079,-0.61782 0.3398,-0.3398 -0.26,-2.9273 -1.3328,-5.75 -2.3331,-6.13821 -2.5003,-10.2077 -0.4517,-10.99381 0.825,-0.31658 1.5,-0.11317 1.5,0.45203 0,0.5652 0.45,0.74952 1,0.4096 0.55,-0.33992 1,-0.0933 1,0.54797 0,0.6413 0.675,0.90699 1.5,0.5904 0.825,-0.31658 1.5,-0.1094 1.5,0.4604 0,0.60128 0.8918,0.75296 2.1252,0.36148 1.4528,-0.4611 1.9042,-0.31676 1.4264,0.4562 -0.4987,0.80703 0.5389,0.95771 3.6248,0.52636 3.206,-0.44814 3.9359,-0.32895 2.8236,0.4611 -1.31,0.93049 -1.2919,1.0674 0.143,1.08078 1.6286,0.0152 3.3871,-2.78788 2.3805,-3.79448 -0.2879,-0.28795 -0.5235,-0.29202 -0.5235,-0.009 0,0.53947 -10.1522,-9.42682 -12.2726,-12.04792 -1.0093,-1.24756 -0.9609,-1.38102 0.2726,-0.75104 1.1363,0.58038 1.1123,0.44509 -0.099,-0.55804 -0.8796,-0.72829 -1.6011,-1.54916 -1.6033,-1.82416 -0.014,-1.73967 -1.5946,-5 -2.4239,-5 -0.5454,0 -0.7929,-0.3375 -0.55,-0.75 0.2429,-0.4125 -0.017,-1.875 -0.5775,-3.25 -1.7069,-4.18722 -1.9936,-6.20059 -1.9936,-14 0,-7.79941 0.2867,-9.81278 1.9936,-14 0.5605,-1.375 0.8204,-2.8375 0.5775,-3.25 -0.2429,-0.4125 -0.034,-0.75 0.4646,-0.75 0.4984,0 1.3333,-0.95724 1.8554,-2.12719 0.9434,-2.11443 0.9669,-2.11068 3.9028,0.62477 1.6245,1.51358 2.0536,2.15846 0.9536,1.43305 -1.1,-0.7254 0.6859,1.46845 3.9687,4.87523 5.8419,6.06253 8.2355,7.99209 5.4363,4.38232 -0.7728,-0.99651 0.4982,0.24099 2.8244,2.75 2.3262,2.509 4.2387,4.12419 4.25,3.58931 0.011,-0.53488 0.7264,0.0351 1.589,1.26673 0.8627,1.23158 1.9405,2.0093 2.3952,1.72825 0.4548,-0.28104 1.0958,0.18995 1.4246,1.04666 0.3287,0.8567 1.0037,1.3067 1.5,1 0.4962,-0.30671 1.1712,0.14329 1.5,1 0.3287,0.8567 1.0037,1.3067 1.5,1 0.4962,-0.30671 1.1712,0.14329 1.5,1 0.3287,0.8567 1.0037,1.3067 1.5,1 0.4962,-0.30671 1.185,0.17918 1.5306,1.07974 0.3455,0.90056 0.9107,1.35497 1.2559,1.0098 0.3451,-0.34517 1.2679,0.15292 2.0506,1.10687 0.7826,0.95395 1.1413,1.17711 0.7969,0.49591 -0.4115,-0.81405 -0.096,-1.03519 0.9201,-0.64521 0.8504,0.32633 1.3004,0.99102 1,1.47709 -0.3004,0.48607 0.1522,0.61577 1.0058,0.28823 0.8557,-0.32839 1.5519,-0.0725 1.5519,0.57047 0,0.6413 0.45,0.88789 1,0.54797 0.55,-0.33992 1,-0.11492 1,0.5 0,0.61492 0.45,0.83992 1,0.5 0.55,-0.33992 1,-0.11492 1,0.5 0,0.61492 0.45,0.83992 1,0.5 0.55,-0.33992 1,-0.0665 1,0.60765 0,0.67413 0.27857,0.94711 0.61905,0.60664 0.34047,-0.34048 1.2985,0.0604 2.12894,0.89084 0.83044,0.83044 2.15024,1.26417 2.93289,0.96383 0.90198,-0.34612 1.16084,-0.12188 0.70701,0.61243 -0.47816,0.77368 -0.16325,0.94638 0.94807,0.51993 0.91645,-0.35167 1.66404,-0.15532 1.66404,0.43705 0,0.59159 0.675,0.81659 1.5,0.5 0.825,-0.31658 1.5,-0.18185 1.5,0.29939 0,0.48125 0.97037,0.62124 2.15637,0.3111 1.18601,-0.31015 1.90398,-0.15552 1.59549,0.34362 -0.30848,0.49913 0.52115,1.00127 1.84363,1.11585 4.60907,0.39935 5.40451,0.63115 5.40451,1.57497 0,0.52248 0.9,0.71461 2,0.42695 1.1,-0.28766 2,-0.0869 2,0.44623 0,0.53308 0.7875,0.87179 1.75,0.75269 0.9625,-0.1191 2.5375,0.12576 3.5,0.54413 0.9625,0.41837 2.41059,0.50719 3.21797,0.19736 0.80739,-0.30982 1.76391,-0.0845 2.1256,0.50074 0.3952,0.63944 2.2037,0.81682 4.53202,0.44451 2.35465,-0.37653 3.87441,-0.22265 3.87441,0.39227 0,0.5565 0.86425,1.01182 1.92054,1.01182 1.33791,0 2.12877,-0.94801 2.6069,-3.12492 0.37749,-1.71871 0.30074,-3.40621 -0.17055,-3.75 -1.18006,-0.86082 -1.24611,-12.12508 -0.0711,-12.12508 0.52105,0 0.73231,-1.125 0.46946,-2.5 -0.26285,-1.375 -0.0378,-2.5 0.50005,-2.5 0.53788,0 0.74245,-0.90062 0.45459,-2.00138 -0.31526,-1.20557 -0.12022,-1.75222 0.4905,-1.37477 0.643,0.39739 0.75259,-0.19662 0.29961,-1.62385 -0.53131,-1.674 -0.3911,-2.05073 0.54737,-1.47072 0.83644,0.51694 1.01201,0.37581 0.52094,-0.41875 -0.40738,-0.65916 0.0572,-2.41619 1.03235,-3.90451 0.97518,-1.48831 1.57647,-2.79915 1.3362,-2.91297 -0.24027,-0.11383 0.46314,-0.86505 1.56314,-1.66939 1.1,-0.80434 2.02726,-1.83621 2.06059,-2.29305 0.0333,-0.45683 2.01569,-2.85561 4.40527,-5.33061 2.38957,-2.475 3.98557,-3.87654 3.54667,-3.11453 -0.43891,0.76201 0.61622,0.33989 2.34473,-0.93806 1.72851,-1.27794 3.14274,-2.7639 3.14274,-3.30213 0,-0.53824 0.27857,-0.70004 0.61905,-0.35957 0.34047,0.34048 1.2985,-0.0604 2.12894,-0.89084 0.83044,-0.83044 2.12687,-1.27313 2.88095,-0.98376 0.75408,0.28936 1.37106,0.10437 1.37106,-0.41111 0,-0.51548 0.675,-0.67821 1.5,-0.36163 0.825,0.31659 1.5,0.11959 1.5,-0.43776 0,-0.55736 0.9,-0.77802 2,-0.49036 1.1,0.28766 2,0.12114 2,-0.37005 0,-0.49118 1.85926,-0.71574 4.13169,-0.49903 2.8691,0.27361 3.92063,0.0525 3.44099,-0.72358 -0.43857,-0.70962 0.22189,-1.11759 1.80929,-1.11759 1.375,0 2.80876,0.49959 3.18614,1.11021 0.40173,0.65001 2.08426,0.88333 4.05902,0.56287 2.04291,-0.33152 3.37287,-0.13183 3.37287,0.50642 0,0.57957 0.9,0.81841 2,0.53075 1.1,-0.28766 2,-0.067 2,0.49036 0,0.55735 0.675,0.75435 1.5,0.43776 0.825,-0.31658 1.5,-0.15385 1.5,0.36163 0,0.51548 0.61698,0.70047 1.37106,0.41111 0.75408,-0.28937 2.10408,0.20689 3,1.10281 0.89592,0.89591 1.62894,1.28579 1.62894,0.86638 0,-0.41941 0.66069,0.11095 1.4682,1.17857 0.8075,1.06762 1.4825,1.55378 1.5,1.08035 0.0175,-0.47344 0.96608,0.20156 2.10799,1.5 1.1419,1.29843 1.76751,1.68578 1.39025,0.86078 -0.37726,-0.825 0.37595,-0.23973 1.67381,1.3006 2.11406,2.509 2.90593,2.7693 7.60547,2.5 2.88515,-0.16533 5.24765,-0.66842 5.25,-1.11799 0.002,-0.44956 0.96063,-0.51385 2.12951,-0.14286 1.41878,0.4503 1.90013,0.3103 1.44806,-0.42116 -0.42438,-0.68666 -0.0978,-0.87337 0.87477,-0.50015 0.85576,0.32839 1.55194,0.0725 1.55194,-0.57047 0,-0.6413 0.41628,-0.90873 0.92506,-0.59428 1.15352,0.71291 6.07494,-1.45272 6.07494,-2.67322 0,-0.49418 0.45,-0.62039 1,-0.28047 0.55,0.33992 1,0.11492 1,-0.5 0,-0.61492 0.45,-0.83992 1,-0.5 0.55,0.33992 1,0.18962 1,-0.33399 0,-0.52362 0.67741,-1.21198 1.50536,-1.52969 1.19017,-0.45672 1.08123,0.25371 -0.52032,3.39301 -1.11413,2.18387 -1.67904,3.98435 -1.25536,4.00108 0.42367,0.0167 -0.0266,0.49438 -1.00071,1.06146 -0.97407,0.56708 -1.53915,1.40624 -1.25575,1.86481 0.28341,0.45856 -0.15712,1.09178 -0.97896,1.40715 -0.82184,0.31537 -1.49426,1.18408 -1.49426,1.93047 0,1.51356 -4.98072,6.59001 -5.03327,5.13001 -0.0183,-0.50837 -0.8058,-8.9e-4 -1.75,1.12774 -0.9442,1.12862 -2.16673,2.02862 -2.71673,2 -0.55,-0.0286 -1.1438,0.96045 -1.31955,2.19795 -0.17575,1.2375 0.16175,2.25 0.75,2.25 0.58825,0 1.06955,-0.3876 1.06955,-0.86133 0,-0.47373 1.125,-0.64627 2.5,-0.38342 1.375,0.26285 2.5,0.0176 2.5,-0.54505 0,-0.56263 0.9,-0.78761 2,-0.49995 1.1,0.28766 2,0.0627 2,-0.5 0,-0.56265 0.9,-0.78766 2,-0.5 1.1,0.28766 2,0.0346 2,-0.56223 0,-0.59689 0.675,-0.82623 1.5,-0.50965 0.825,0.31659 1.5,0.0509 1.5,-0.5904 0,-0.6413 0.41891,-0.90711 0.9309,-0.59068 0.512,0.31644 1.21356,0.11799 1.55902,-0.44098 1.02589,-1.65993 2.52296,-1.1557 2.17831,0.73369 -0.32081,1.75874 -15.48397,17.58027 -16.9547,17.69086 -1.9138,0.14391 -2.68501,3.71334 -2.71353,12.55914 -0.0168,5.225 -0.36123,8.98006 -0.76531,8.34459 -0.40408,-0.63548 -0.79562,1.16452 -0.8701,4 -0.14058,5.35222 -0.57658,7.96135 -1.81436,10.85752 -0.4001,0.93617 -0.43602,2.17367 -0.0798,2.75 0.3562,0.57634 0.11859,1.04789 -0.52801,1.04789 -0.68332,0 -0.95663,0.83755 -0.65264,2 0.28766,1.1 0.20103,2 -0.1925,2 -0.97622,0 -4.14553,10.11286 -3.49777,11.16096 0.2852,0.46147 -0.006,0.83904 -0.64745,0.83904 -0.6413,0 -0.90699,0.675 -0.5904,1.5 0.31658,0.825 0.25222,1.50032 -0.14301,1.50071 -0.39524,3.8e-4 -0.78966,1.22406 -0.87649,2.71928 -0.0868,1.49523 -0.65213,2.88334 -1.25623,3.08471 -0.6041,0.20137 -0.844,0.77769 -0.53311,1.28071 0.31085,0.50302 0.0621,0.91459 -0.55282,0.91459 -0.61492,0 -0.83992,0.45 -0.5,1 0.33992,0.55 0.11492,1 -0.5,1 -0.61492,0 -0.83992,0.45 -0.5,1 0.33992,0.55 0.11492,1 -0.5,1 -0.61492,0 -0.83992,0.45 -0.5,1 0.33992,0.55 0.0665,1 -0.60765,1 -0.67413,0 -0.96318,0.2625 -0.64235,0.58333 0.32083,0.32084 -0.29558,1.46225 -1.36981,2.53648 -1.07423,1.07423 -1.68517,2.38673 -1.35765,2.91666 0.32752,0.52994 0.0924,0.96353 -0.52254,0.96353 -0.61492,0 -0.83992,0.45 -0.5,1 0.33992,0.55 0.11492,1 -0.5,1 -0.61492,0 -0.86906,0.40285 -0.56476,0.89522 0.3043,0.49236 -0.14766,1.16419 -1.00437,1.49293 -0.8567,0.32875 -1.3067,1.00375 -1,1.5 0.30671,0.49626 -0.17918,1.18503 -1.07974,1.5306 -0.90056,0.34558 -1.35084,0.91487 -1.00062,1.26509 0.35022,0.35023 -0.2679,1.27042 -1.3736,2.04489 -1.1057,0.77446 -1.74932,1.8305 -1.43026,2.34675 0.31906,0.51626 -0.12341,1.20861 -0.98327,1.53857 -0.85986,0.32996 -1.56338,0.98553 -1.56338,1.45682 0,0.47129 -1.9125,2.73584 -4.25,5.03232 -2.3375,2.29649 -3.35,3.57389 -2.25,2.83867 1.1,-0.73523 -0.23308,1.00208 -2.96241,3.86068 -5.07659,5.31705 -6.13426,6.14775 -5.02603,3.94746 0.34627,-0.6875 -1.15081,0.6625 -3.32685,3 -2.17605,2.3375 -4.40966,4.25 -4.96359,4.25 -0.55393,0 -1.27711,0.70352 -1.60707,1.56338 -0.32996,0.85986 -1.05628,1.28134 -1.61405,0.93662 -0.55777,-0.34472 -1.2831,0.0742 -1.61185,0.93087 -0.32874,0.85671 -1.00374,1.30671 -1.5,1 -0.49625,-0.3067 -1.17125,0.1433 -1.5,1 -0.32874,0.85671 -0.97291,1.32576 -1.43147,1.04235 -0.45857,-0.2834 -1.29773,0.28168 -1.86481,1.25575 -0.56708,0.97407 -1.04474,1.40139 -1.06146,0.9496 -0.0167,-0.45178 -0.74169,-0.11015 -1.61103,0.75919 -0.86934,0.86934 -1.99434,1.32493 -2.5,1.01241 -0.50566,-0.31251 -0.91938,-0.0651 -0.91938,0.54983 0,0.61492 -0.45,0.83992 -1,0.5 -0.55,-0.33992 -1,-0.0665 -1,0.60765 0,0.67413 -0.28072,0.94496 -0.62382,0.60186 -0.73767,-0.73767 -8.54854,3.06162 -9.61087,4.67482 -0.40408,0.61362 -0.74158,0.7773 -0.75,0.36373 -0.008,-0.41357 -1.69232,0.14688 -3.74199,1.24544 -2.08025,1.11494 -4.56546,1.73117 -5.62523,1.39481 -1.32946,-0.42196 -1.6736,-0.2386 -1.14809,0.61169 0.53887,0.8719 0.15125,1.02409 -1.37477,0.53975 -1.17378,-0.37255 -2.12523,-0.23858 -2.12523,0.29924 0,0.53558 -0.9,0.73842 -2,0.45076 -1.1,-0.28766 -2,-0.0627 -2,0.5 0,0.56266 -0.9,0.78766 -2,0.5 -1.1,-0.28766 -2,-0.0829 -2,0.45495 0,0.53787 -1.125,0.7629 -2.5,0.50005 -1.375,-0.26285 -2.5,-0.0534 -2.5,0.46548 0,0.51886 -1.35,0.74525 -3,0.50308 -1.65,-0.24217 -3,-0.0398 -3,0.44967 0,0.48949 -1.9125,0.94586 -4.25,1.01417 -2.3375,0.0683 -8.89426,0.28139 -14.57057,0.47352 -5.67631,0.19213 -11.00354,-0.0328 -11.83829,-0.49977 z"
           style="fill:#ffffff" />
        <path
           inkscape:connector-curvature="0"
           id="path3384"
           d="m -992.6071,462.91943 c 2.0625,-0.21574 5.4375,-0.21574 7.5,0 2.0625,0.21575 0.375,0.39226 -3.75,0.39226 -4.125,0 -5.8125,-0.17651 -3.75,-0.39226 z m -12.4883,-0.97879 c 1.2439,-0.23919 3.0439,-0.23011 4,0.0202 0.956,0.25029 -0.062,0.446 -2.2617,0.4349 -2.2,-0.0111 -2.9823,-0.21589 -1.7383,-0.45508 z m 29.4883,0.0179 c 0.9625,-0.25152 2.5375,-0.25152 3.5,0 0.9625,0.25153 0.175,0.45733 -1.75,0.45733 -1.925,0 -2.7125,-0.2058 -1.75,-0.45733 z m -35.981,-1.00366 c 0.973,-0.25354 2.323,-0.23687 3,0.0371 0.6771,0.27393 -0.119,0.48137 -1.769,0.46099 -1.65,-0.0204 -2.2039,-0.2445 -1.231,-0.49804 z m 44.00003,0 c 0.97297,-0.25354 2.32297,-0.23687 3,0.0371 0.67703,0.27393 -0.11903,0.48137 -1.76903,0.46099 -1.65,-0.0204 -2.20394,-0.2445 -1.23097,-0.49804 z m -49.51903,-0.96926 c 0.6875,-0.27741 1.8125,-0.27741 2.5,0 0.6875,0.27741 0.125,0.50439 -1.25,0.50439 -1.375,0 -1.9375,-0.22698 -1.25,-0.50439 z m 55,0 c 0.6875,-0.27741 1.8125,-0.27741 2.5,0 0.6875,0.27741 0.125,0.50439 -1.25,0.50439 -1.375,0 -1.9375,-0.22698 -1.25,-0.50439 z m -58.9375,-1.02083 c 0.7219,-0.28887 1.5844,-0.25335 1.9167,0.0789 0.3323,0.33229 -0.2584,0.56864 -1.3125,0.52522 -1.165,-0.048 -1.4019,-0.28494 -0.6042,-0.60416 z m 64,0 c 0.72187,-0.28887 1.58437,-0.25335 1.91667,0.0789 0.33229,0.33229 -0.25834,0.56864 -1.3125,0.52522 -1.16495,-0.048 -1.4019,-0.28494 -0.60417,-0.60416 z m 4,-1 c 0.72187,-0.28887 1.58437,-0.25335 1.91667,0.0789 0.33229,0.33229 -0.25834,0.56864 -1.3125,0.52522 -1.16495,-0.048 -1.4019,-0.28494 -0.60417,-0.60416 z m 18.27083,-5.69397 c 1.02279,-0.92562 8.91667,-4.6116 8.91667,-4.16357 0,0.56844 -7.54685,4.54065 -8.62683,4.54065 -0.38858,0 -0.519,-0.16969 -0.28984,-0.37708 z m -119.80313,-8.35919 c 2.6291,-0.20668 6.6791,-0.20418 9,0.006 2.3209,0.20972 0.1698,0.37882 -4.7802,0.37577 -4.95,-0.003 -6.8489,-0.17464 -4.2198,-0.38131 z m 15.9888,-0.95672 c 0.973,-0.25354 2.323,-0.23687 3,0.0371 0.6771,0.27393 -0.119,0.48137 -1.769,0.46099 -1.65,-0.0204 -2.2039,-0.2445 -1.231,-0.49804 z m 5.5435,-0.99012 c 0.7219,-0.28887 1.5844,-0.25335 1.9167,0.0789 0.3323,0.33229 -0.2584,0.56864 -1.3125,0.52522 -1.165,-0.048 -1.4019,-0.28494 -0.6042,-0.60416 z m 4,-1 c 0.7219,-0.28887 1.5844,-0.25335 1.9167,0.0789 0.3323,0.33229 -0.2584,0.56864 -1.3125,0.52522 -1.165,-0.048 -1.4019,-0.28494 -0.6042,-0.60416 z m 22.1875,-7.74652 c 0,-0.275 0.9,-0.98167 2,-1.57037 1.1,-0.5887 2,-0.84537 2,-0.57037 0,0.275 -0.9,0.98167 -2,1.57037 -1.1,0.5887 -2,0.84537 -2,0.57037 z m 104,0.11672 c 0,-0.1721 1.4625,-1.6346 3.25,-3.25 l 3.25,-2.93709 -2.93709,3.25 c -2.73778,3.02946 -3.56291,3.70965 -3.56291,2.93709 z m -92.25,-12.34937 c 0.6875,-0.27741 1.8125,-0.27741 2.5,0 0.6875,0.27741 0.125,0.50439 -1.25,0.50439 -1.375,0 -1.9375,-0.22698 -1.25,-0.50439 z m 107.25,-2.83772 c 1.86578,-1.925 3.61733,-3.5 3.89233,-3.5 0.275,0 -1.02655,1.575 -2.89233,3.5 -1.86578,1.925 -3.61733,3.5 -3.89233,3.5 -0.275,0 1.02655,-1.575 2.89233,-3.5 z m -112.1875,1.81689 c 0.72188,-0.28887 1.58438,-0.25335 1.91667,0.0789 0.33229,0.33229 -0.25834,0.56864 -1.3125,0.52522 -1.16497,-0.048 -1.40187,-0.28494 -0.60417,-0.60416 z m -4,-1 c 0.7219,-0.28887 1.5844,-0.25335 1.9167,0.0789 0.3323,0.33229 -0.2584,0.56864 -1.3125,0.52522 -1.165,-0.048 -1.4019,-0.28494 -0.6042,-0.60416 z m -20.8663,-12.06689 -3.4462,-3.75 3.75,3.44617 c 2.0625,1.89539 3.75,3.58289 3.75,3.75 0,0.76362 -0.8462,0.0443 -4.0538,-3.44617 z m 144.0538,2.37244 c 0,-0.20765 0.7875,-0.99515 1.75,-1.75 1.58606,-1.24387 1.62143,-1.2085 0.37756,0.37756 -1.30637,1.66575 -2.12756,2.19548 -2.12756,1.37244 z m 10,-15.62244 c 0.5887,-1.1 1.29537,-2 1.57037,-2 0.275,0 0.0183,0.9 -0.57037,2 -0.5887,1.1 -1.29537,2 -1.57037,2 -0.275,0 -0.0183,-0.9 0.57037,-2 z m -163.393,-0.58179 c -1.0728,-2.79554 -0.6643,-3.42105 2.143,-3.28203 2.422,0.11994 2.4765,0.18855 0.4565,0.57525 -1.7367,0.33249 -2.1452,0.90632 -1.6826,2.36382 0.732,2.30645 -0.051,2.59935 -0.9169,0.34296 z m 9.643,-3.10754 c 0.9625,-0.25152 2.5375,-0.25152 3.5,0 0.9625,0.25153 0.175,0.45733 -1.75,0.45733 -1.925,0 -2.7125,-0.2058 -1.75,-0.45733 z m -1.8089,-6.86584 c -1.8303,-1.46637 -1.7984,-1.48719 0.5589,-0.36454 3.061,1.45781 3.6283,1.91971 2.3578,1.91971 -0.5365,0 -1.849,-0.69982 -2.9167,-1.55517 z m -12.9882,-9.69483 -3.9529,-4.25 4.25,3.95295 c 3.9525,3.6762 4.7095,4.54705 3.9529,4.54705 -0.1633,0 -2.0758,-1.9125 -4.25,-4.25 z m 179.20026,-3.75 c 0.3479,-1.375 1.25004,-4.075 2.00476,-6 1.17426,-2.99509 1.29011,-3.08315 0.80307,-0.61043 -0.31303,1.58926 -1.21518,4.28926 -2.00476,6 -1.07987,2.33966 -1.27887,2.49093 -0.80307,0.61043 z m 3.42579,-11.58333 c 0.048,-1.16495 0.28494,-1.4019 0.60416,-0.60417 0.28887,0.72187 0.25335,1.58437 -0.0789,1.91667 -0.3323,0.33229 -0.56864,-0.25834 -0.52522,-1.3125 z m 1,-4 c 0.048,-1.16495 0.28494,-1.4019 0.60416,-0.60417 0.28887,0.72187 0.25335,1.58437 -0.0789,1.91667 -0.3323,0.33229 -0.56864,-0.25834 -0.52522,-1.3125 z m -179.26645,-7.09978 c 0.7219,-0.28887 1.5844,-0.25335 1.9167,0.0789 0.3323,0.3323 -0.2584,0.56864 -1.3125,0.52522 -1.165,-0.048 -1.4019,-0.28494 -0.6042,-0.60416 z m -6,-1 c 0.7219,-0.28887 1.5844,-0.25335 1.9167,0.0789 0.3323,0.3323 -0.2584,0.56864 -1.3125,0.52522 -1.165,-0.048 -1.4019,-0.28494 -0.6042,-0.60416 z m 2.1875,-6.81689 c -2.429,-2.475 -4.1914,-4.5 -3.9164,-4.5 0.275,0 2.4874,2.025 4.9164,4.5 2.429,2.475 4.1914,4.5 3.9164,4.5 -0.275,0 -2.4874,-2.025 -4.9164,-4.5 z m 88.75,-6.16228 c 0.6875,-0.27741 1.8125,-0.27741 2.5,0 0.6875,0.27741 0.125,0.50438 -1.25,0.50438 -1.375,0 -1.9375,-0.22697 -1.25,-0.50438 z m -7.48097,-1.03071 c 0.97297,-0.25354 2.32297,-0.23687 3,0.0371 0.67703,0.27392 -0.11903,0.48137 -1.76903,0.46099 -1.65,-0.0204 -2.20394,-0.2445 -1.23097,-0.49805 z m -6.51903,-0.96929 c 0.6875,-0.27741 1.8125,-0.27741 2.5,0 0.6875,0.27741 0.125,0.50438 -1.25,0.50438 -1.375,0 -1.9375,-0.22697 -1.25,-0.50438 z m -4.9375,-1.02083 c 0.72187,-0.28887 1.58437,-0.25335 1.91667,0.079 0.33229,0.33229 -0.25834,0.56864 -1.3125,0.52522 -1.16495,-0.048 -1.4019,-0.28495 -0.60417,-0.60417 z m 22.34539,-1.31689 c 0,-1.375 0.22698,-1.9375 0.50439,-1.25 0.27741,0.6875 0.27741,1.8125 0,2.5 -0.27741,0.6875 -0.50439,0.125 -0.50439,-1.25 z m -26.34539,0.31689 c 0.72187,-0.28888 1.58437,-0.25335 1.91667,0.079 0.33229,0.33229 -0.25834,0.56864 -1.3125,0.52522 -1.16495,-0.048 -1.4019,-0.28495 -0.60417,-0.60417 z m -74.8583,-2.40254 c -0.6139,-1.1471 -0.9279,-2.274 -0.6977,-2.50422 0.2303,-0.23022 0.9321,0.70832 1.5596,2.08564 1.3781,3.02454 0.7071,3.35038 -0.8619,0.41858 z m 55.0458,-3.41435 c -1.375,-0.78602 -2.05,-1.42913 -1.5,-1.42913 0.55,0 2.125,0.64311 3.5,1.42913 1.375,0.78602 2.05,1.42913 1.5,1.42913 -0.55,0 -2.125,-0.64311 -3.5,-1.42913 z m 45.25218,-2 c 0.0111,-2.2 0.21589,-2.98225 0.45508,-1.73834 0.23919,1.24391 0.23011,3.04391 -0.0202,4 -0.25027,0.95609 -0.44598,-0.0617 -0.43488,-2.26166 z m 106.74782,-12 c 3.54322,-3.575 6.66722,-6.5 6.94222,-6.5 0.275,0 -2.399,2.925 -5.94222,6.5 -3.54322,3.575 -6.66722,6.5 -6.94222,6.5 -0.275,0 2.399,-2.925 5.94222,-6.5 z m -105.84211,3.5 c 0,-1.375 0.22698,-1.9375 0.50439,-1.25 0.27741,0.6875 0.27741,1.8125 0,2.5 -0.27741,0.6875 -0.50439,0.125 -0.50439,-1.25 z m 0.92771,-4 c -0.0302,-0.825 0.38124,-2.175 0.9144,-3 1.18132,-1.82797 1.18132,-0.24908 0,2.5 -0.56668,1.31874 -0.87815,1.48905 -0.9144,0.5 z m -78.2132,-3.75 c -1.2438,-1.58606 -1.2085,-1.62143 0.3776,-0.37755 0.9625,0.75484 1.75,1.54234 1.75,1.75 0,0.82303 -0.8212,0.2933 -2.1276,-1.37245 z m -4.4674,-3.5 -1.905,-2.25 2.25,1.90499 c 2.1144,1.79022 2.7052,2.59501 1.905,2.59501 -0.1898,0 -1.2023,-1.0125 -2.25,-2.25 z m 177.345,1.58772 c 0.6875,-0.27741 1.8125,-0.27741 2.5,0 0.6875,0.27741 0.125,0.50438 -1.25,0.50438 -1.375,0 -1.9375,-0.22697 -1.25,-0.50438 z m 5.0625,-1.02083 c 0.72187,-0.28887 1.58437,-0.25335 1.91667,0.079 0.33229,0.33229 -0.25834,0.56864 -1.3125,0.52522 -1.16495,-0.048 -1.4019,-0.28495 -0.60417,-0.60417 z m 4,-1 c 0.72187,-0.28887 1.58437,-0.25335 1.91667,0.079 0.33229,0.33229 -0.25834,0.56864 -1.3125,0.52522 -1.16495,-0.048 -1.4019,-0.28495 -0.60417,-0.60417 z m 10.1875,-2.31689 c 0.5887,-1.1 1.29537,-2 1.57037,-2 0.275,0 0.0183,0.9 -0.57037,2 -0.5887,1.1 -1.29537,2 -1.57037,2 -0.275,0 -0.0183,-0.9 0.57037,-2 z m -20,0.62245 c 0,-0.20766 0.7875,-0.99516 1.75,-1.75 1.58606,-1.24388 1.62143,-1.20851 0.37756,0.37755 -1.30637,1.66575 -2.12756,2.19548 -2.12756,1.37245 z m -186.5313,-6.87245 -5.9687,-6.25 6.25,5.9687 c 5.8057,5.54441 6.7076,6.5313 5.9687,6.5313 -0.1547,0 -2.9672,-2.8125 -6.25,-6.25 z m 98.5313,1.87245 c 0,-0.20766 0.7875,-0.99516 1.75,-1.75 1.58606,-1.24388 1.62143,-1.20851 0.37756,0.37755 -1.30637,1.66575 -2.12756,2.19548 -2.12756,1.37245 z m 5.5,-6.62245 c 0.99549,-1.1 2.03498,-2 2.30998,-2 0.275,0 -0.31449,0.9 -1.30998,2 -0.99549,1.1 -2.03498,2 -2.30998,2 -0.275,0 0.31449,-0.9 1.30998,-2 z m -114.4646,-0.55887 c -0.02,-0.58238 0.5709,-1.88805 1.312,-2.90149 1.1064,-1.51312 1.4927,-1.59201 2.1603,-0.44113 0.4486,0.77345 0.4283,1.05134 -0.045,0.62013 -0.4721,-0.42975 -1.4283,0.24525 -2.1249,1.5 -0.6966,1.25475 -1.2825,1.80487 -1.302,1.22249 z m 180.83704,-1.19113 c -1.24387,-1.58606 -1.2085,-1.62143 0.37756,-0.37755 1.66575,1.30636 2.19548,2.12755 1.37244,2.12755 -0.20765,0 -0.99515,-0.7875 -1.75,-1.75 z m 15.12756,-0.25 c 0.825,-0.53316 1.95,-0.96937 2.5,-0.96937 0.55,0 0.325,0.43621 -0.5,0.96937 -0.825,0.53316 -1.95,0.96937 -2.5,0.96937 -0.55,0 -0.325,-0.43621 0.5,-0.96937 z m 15,-4 c 1.12236,-2.2 2.26565,-4 2.54065,-4 0.275,0 -0.41829,1.8 -1.54065,4 -1.12236,2.2 -2.26565,4 -2.54065,4 -0.275,0 0.41829,-1.8 1.54065,-4 z m -91.08224,1.63655 c 1.3317,-1.63978 5.08224,-4.11921 5.08224,-3.35979 0,0.19092 -1.4625,1.41776 -3.25,2.72633 -2.0111,1.47225 -2.70955,1.71373 -1.83224,0.63346 z m 56.95468,-0.38655 c -1.24387,-1.58606 -1.2085,-1.62143 0.37756,-0.37755 1.66575,1.30636 2.19548,2.12755 1.37244,2.12755 -0.20765,0 -0.99515,-0.7875 -1.75,-1.75 z m 25.12756,0.25 c 1.375,-0.78602 2.95,-1.42913 3.5,-1.42913 0.55,0 -0.125,0.64311 -1.5,1.42913 -1.375,0.78602 -2.95,1.42913 -3.5,1.42913 -0.55,0 0.125,-0.64311 1.5,-1.42913 z m -65.1875,-8.18311 c 0.72187,-0.28888 1.58437,-0.25335 1.91667,0.079 0.33229,0.33229 -0.25834,0.56864 -1.3125,0.52522 -1.16495,-0.048 -1.4019,-0.28495 -0.60417,-0.60417 z m 23,0 c 0.72187,-0.28888 1.58437,-0.25335 1.91667,0.079 0.33229,0.33229 -0.25834,0.56864 -1.3125,0.52522 -1.16495,-0.048 -1.4019,-0.28495 -0.60417,-0.60417 z m -18.05084,-1.02415 c 1.24391,-0.23919 3.04391,-0.23011 4,0.0202 0.95609,0.25029 -0.0617,0.44599 -2.26166,0.4349 -2.2,-0.0111 -2.98225,-0.21589 -1.73834,-0.45508 z m 11.50737,0.0143 c 0.97297,-0.25354 2.32297,-0.23687 3,0.0371 0.67703,0.27392 -0.11903,0.48137 -1.76903,0.46099 -1.65,-0.0204 -2.20394,-0.2445 -1.23097,-0.49805 z"
           style="fill:#ffffff" />
      </g>
    </g>
  </g>
</svg>
