<?xml version="1.0" encoding="UTF-8" standalone="no"?>
<!-- Created with Inkscape (http://www.inkscape.org/) -->

<svg
   xmlns:dc="http://purl.org/dc/elements/1.1/"
   xmlns:cc="http://creativecommons.org/ns#"
   xmlns:rdf="http://www.w3.org/1999/02/22-rdf-syntax-ns#"
   xmlns:svg="http://www.w3.org/2000/svg"
   xmlns="http://www.w3.org/2000/svg"
   xmlns:sodipodi="http://sodipodi.sourceforge.net/DTD/sodipodi-0.dtd"
   xmlns:inkscape="http://www.inkscape.org/namespaces/inkscape"
   width="485"
   height="176"
   viewBox="0 0 485 176"
   id="svg2"
   version="1.1"
   inkscape:version="0.91 r13725"
   sodipodi:docname="logo2.svg">
  <defs
     id="defs4" />
  <sodipodi:namedview
     id="base"
     pagecolor="#ffffff"
     bordercolor="#666666"
     borderopacity="1.0"
     inkscape:pageopacity="0.0"
     inkscape:pageshadow="2"
     inkscape:zoom="1.9105481"
     inkscape:cx="333.12025"
     inkscape:cy="157.14528"
     inkscape:document-units="px"
     inkscape:current-layer="layer1-9"
     showgrid="false"
     units="px"
     inkscape:window-width="1920"
     inkscape:window-height="1017"
     inkscape:window-x="-8"
     inkscape:window-y="-8"
     inkscape:window-maximized="1" />
  <metadata
     id="metadata7">
    <rdf:RDF>
      <cc:Work
         rdf:about="">
        <dc:format>image/svg+xml</dc:format>
        <dc:type
           rdf:resource="http://purl.org/dc/dcmitype/StillImage" />
        <dc:title></dc:title>
      </cc:Work>
    </rdf:RDF>
  </metadata>
  <g
     inkscape:label="Layer 1"
     inkscape:groupmode="layer"
     id="layer1"
     transform="translate(0,-876.3622)">
    <g
       transform="translate(-19.360598,1.5436011)"
       id="layer1-9"
       inkscape:label="Layer 1"
       style="fill:#ffffff">
      <g
         style="fill:#ffffff"
         transform="matrix(4.113089,0,0,4.113089,20.299115,880.65247)"
         id="g3354">
        <g
           id="g5"
           style="fill:#ffffff"
           transform="matrix(0.9842811,0,0,1,1.6244021,-3.9831582)">
          <g
             id="g7"
             style="fill:#ffffff">
            <path
               id="path13"
               d="m 88,7.5 4.2,0 0,6.1 2.5,0 0,3.6 -2.5,0 0,6.7 c 0,1.7 1.2,2.1 2.3,2.1 l 0,4.2 C 90.1,30.2 88,28.5 88,23.3 l 0,-6 -2.1,0 0,-3.6 2.1,0 0,-6.2 z"
               class="st0"
               style="fill:#ffffff"
               inkscape:connector-curvature="0" />
            <path
               id="path17"
               d="m 41.634296,25.318236 c 0.7,0 1.2,0.2 1.7,0.7 0.5,0.5 0.7,1 0.7,1.7 0,0.7 -0.2,1.2 -0.7,1.7 -0.5,0.5 -1,0.7 -1.7,0.7 -0.7,0 -1.2,-0.2 -1.7,-0.7 -0.5,-0.5 -0.7,-1 -0.7,-1.7 0,-0.7 0.2,-1.2 0.7,-1.7 0.4,-0.4 1,-0.7 1.7,-0.7 z"
               class="st0"
               style="fill:#d10000;fill-opacity:1;stroke:#000000;stroke-width:0.93122774;stroke-miterlimit:4;stroke-dasharray:none;stroke-opacity:1"
               inkscape:connector-curvature="0" />
            <path
               id="path19"
               d="m 51.1,7.1 0,8.2 c 0.8,-0.8 1.6,-1.3 2.4,-1.7 0.9,-0.4 1.8,-0.6 2.8,-0.6 2.2,0 4,0.8 5.5,2.4 1.5,1.6 2.3,3.7 2.3,6.3 0,2.5 -0.8,4.5 -2.3,6.2 -1.6,1.7 -3.4,2.5 -5.5,2.5 -1,0 -1.8,-0.2 -2.7,-0.5 C 52.8,29.6 52,29 51.2,28.2 l 0,1.7 -4.2,0 0,-22.8 4.1,0 z m 4.4,9.8 c -1.3,0 -2.4,0.4 -3.3,1.3 -0.9,0.9 -1.3,2.1 -1.3,3.5 0,1.5 0.4,2.7 1.3,3.6 0.9,0.9 1.9,1.4 3.3,1.4 1.3,0 2.3,-0.5 3.2,-1.4 0.9,-0.9 1.3,-2.1 1.3,-3.5 0,-1.4 -0.4,-2.6 -1.3,-3.5 -0.8,-0.9 -1.9,-1.4 -3.2,-1.4 z"
               class="st0"
               style="fill:#ffffff"
               inkscape:connector-curvature="0" />
            <path
               id="path21"
               d="m 84.1,23 -13.3,0 c 0.2,1.2 0.7,2.1 1.5,2.8 0.8,0.7 1.9,1 3.2,1 1.6,0 2.9,-0.5 4,-1.6 l 3.5,1.6 c -0.9,1.2 -1.9,2.2 -3.1,2.7 -1.2,0.6 -2.7,0.9 -4.3,0.9 -2.6,0 -4.7,-0.8 -6.3,-2.5 -1.6,-1.6 -2.4,-3.7 -2.4,-6.2 0,-2.5 0.8,-4.6 2.4,-6.3 1.6,-1.7 3.7,-2.5 6.1,-2.5 2.6,0 4.7,0.8 6.4,2.5 1.6,1.7 2.4,3.9 2.4,6.6 l -0.1,1 z M 80,19.7 c -0.3,-0.9 -0.8,-1.7 -1.6,-2.3 -0.8,-0.6 -1.7,-0.9 -2.8,-0.9 -1.2,0 -2.2,0.3 -3,1 C 72,18 71.4,18.7 71,19.7 l 9,0 z"
               class="st0"
               style="fill:#ffffff"
               inkscape:connector-curvature="0" />
          </g>
          <g
             id="g23"
             style="fill:#ffffff" />
        </g>
        <text
           xml:space="preserve"
           style="font-style:normal;font-weight:normal;font-size:7.87847424px;line-height:125%;font-family:sans-serif;letter-spacing:0px;word-spacing:0px;fill:#ffffff;fill-opacity:1;stroke:none;stroke-width:1px;stroke-linecap:butt;stroke-linejoin:miter;stroke-opacity:1"
           x="1.2148877"
           y="36.575272"
           id="text3494"
           sodipodi:linespacing="125%"
           transform="scale(0.97653675,1.024027)"><tspan
             sodipodi:role="line"
             id="tspan3496"
             x="1.2148877"
             y="36.575272"
             style="font-style:normal;font-variant:normal;font-weight:bold;font-stretch:normal;font-size:7.87849903px;line-height:125%;font-family:sans-serif;-inkscape-font-specification:'sans-serif, Bold';text-align:start;writing-mode:lr-tb;text-anchor:start;fill:#ffffff">Ultimate In-Play Exchange</tspan></text>
      </g>
    </g>
    <path
       id="path9-9"
       d="m 59.43471,919.85474 17.00343,0 0,67.86597 -17.00343,0 0,-6.99225 c -3.23875,3.29047 -6.4775,5.34701 -9.71625,6.99225 -3.23875,1.23392 -6.88234,2.05654 -10.93078,2.05654 -8.501711,0 -16.193739,-3.29047 -22.266392,-10.28272 -6.477498,-6.99225 -9.3114031,-15.21843 -9.3114031,-25.50115 0,-10.69403 3.2387491,-18.92021 9.3114031,-25.91246 6.072653,-6.58095 13.359837,-9.87142 22.266392,-9.87142 4.04844,0 7.69203,0.82262 11.33562,2.46786 3.6436,1.64523 6.88235,3.70178 9.71625,6.99225 l 0,-7.81487 z m -17.40828,13.9845 c -5.26296,0 -9.311399,2.05655 -12.954992,5.75833 -3.238748,3.70178 -5.262966,8.63748 -5.262966,14.39581 0,5.75832 1.619374,10.69403 5.262966,14.39581 3.643593,3.70178 7.692032,5.75832 12.954992,5.75832 5.26297,0 9.71625,-2.05654 12.955,-5.75832 3.64359,-3.70178 5.26296,-8.63749 5.26296,-14.80712 0,-5.75833 -1.61937,-10.69403 -5.26296,-14.39581 -3.23875,-3.29047 -7.69203,-5.34702 -12.955,-5.34702 z"
       class="st0"
       style="fill:#d10000;fill-opacity:1;stroke:#000000;stroke-width:3.79999995;stroke-miterlimit:4;stroke-dasharray:none;stroke-opacity:1"
       inkscape:connector-curvature="0" />
    <path
       id="path11-0"
       d="m 91.41735,893.53097 17.00344,0 0,94.18974 -17.00344,0 0,-94.18974 z"
       class="st0"
       style="fill:#d10000;fill-opacity:1;stroke:#000000;stroke-width:3.79999995;stroke-miterlimit:4;stroke-dasharray:none;stroke-opacity:1"
       inkscape:connector-curvature="0" />
    <path
       id="path15-9"
       d="m 125.82906,891.97449 17.00343,0 0,28.29156 10.12109,0 0,14.80712 -10.12109,0 0,27.55769 c 0,6.99226 4.85812,8.63749 9.3114,8.63749 l 0,17.27498 c -17.81312,0 -26.31483,-6.99226 -26.31483,-28.38032 l 0,-24.67853 -8.50172,0 0,-14.80712 8.50172,0 z"
       class="st0"
       style="fill:#d10000;fill-opacity:1;stroke:#000000;stroke-width:3.8;stroke-miterlimit:4;stroke-dasharray:none;stroke-opacity:1"
       inkscape:connector-curvature="0"
       sodipodi:nodetypes="ccccccsccsccccc" />
  </g>
  <style
     id="style3"
     type="text/css">
	.st0{fill:#FFFFFF;}
</style>
</svg>
