<?xml version="1.0" encoding="UTF-8" standalone="no"?>
<!-- Created with Inkscape (http://www.inkscape.org/) -->

<svg
   xmlns:dc="http://purl.org/dc/elements/1.1/"
   xmlns:cc="http://creativecommons.org/ns#"
   xmlns:rdf="http://www.w3.org/1999/02/22-rdf-syntax-ns#"
   xmlns:svg="http://www.w3.org/2000/svg"
   xmlns="http://www.w3.org/2000/svg"
   xmlns:xlink="http://www.w3.org/1999/xlink"
   xmlns:sodipodi="http://sodipodi.sourceforge.net/DTD/sodipodi-0.dtd"
   xmlns:inkscape="http://www.inkscape.org/namespaces/inkscape"
   width="120mm"
   height="50mm"
   viewBox="0 0 425.19685 177.16535"
   id="svg2"
   version="1.1"
   inkscape:version="0.91 r13725"
   sodipodi:docname="logo3.svg">
  <defs
     id="defs4">
    <rect
       height="600"
       width="600"
       y="0"
       x="0"
       id="path-1" />
    <mask
       fill="white"
       height="600"
       width="600"
       y="0"
       x="0"
       maskUnits="objectBoundingBox"
       maskContentUnits="userSpaceOnUse"
       id="mask-2">
      <use
         id="use4146"
         xlink:href="#path-1"
         x="0"
         y="0"
         width="100%"
         height="100%" />
    </mask>
    <linearGradient
       id="linearGradient-3"
       y2="1"
       x2="0.5"
       y1="0"
       x1="0.5">
      <stop
         id="stop4149"
         offset="0%"
         stop-color="#F98547" />
      <stop
         id="stop4151"
         offset="100%"
         stop-color="#EF4D22" />
    </linearGradient>
    <linearGradient
       id="linearGradient-4"
       y2="0"
       x2="0.5"
       y1="1"
       x1="0.5">
      <stop
         id="stop4154"
         offset="0%"
         stop-color="#BDC0CD" />
      <stop
         id="stop4156"
         offset="100%"
         stop-color="#FFFFFF" />
    </linearGradient>
    <linearGradient
       id="linearGradient-5"
       y2="1"
       x2="0.5"
       y1="0"
       x1="0.5">
      <stop
         id="stop4159"
         offset="0%"
         stop-color="#63C9EF" />
      <stop
         id="stop4161"
         offset="100%"
         stop-color="#3498DA" />
    </linearGradient>
    <linearGradient
       id="linearGradient-6"
       y2="1"
       x2="0.5"
       y1="0.013092909"
       x1="0.5">
      <stop
         id="stop4164"
         offset="0%"
         stop-color="#3B3A44" />
      <stop
         id="stop4166"
         offset="100%"
         stop-color="#292830" />
    </linearGradient>
    <linearGradient
       id="linearGradient-7"
       y2="1"
       x2="0.5"
       y1="0"
       x1="0.5">
      <stop
         id="stop4169"
         offset="0%"
         stop-color="#6D92C9" />
      <stop
         id="stop4171"
         offset="100%"
         stop-color="#3B5998" />
    </linearGradient>
    <linearGradient
       id="linearGradient-8"
       y2="1"
       x2="0.5"
       y1="0"
       x1="0.5">
      <stop
         id="stop4174"
         offset="0%"
         stop-color="#8ED6F8" />
      <stop
         id="stop4176"
         offset="100%"
         stop-color="#55ACEE" />
    </linearGradient>
    <linearGradient
       id="linearGradient-9"
       y2="1"
       x2="0.5"
       y1="0"
       x1="0.5">
      <stop
         id="stop4179"
         offset="0%"
         stop-color="#F5515F" />
      <stop
         id="stop4181"
         offset="100%"
         stop-color="#9F031B" />
    </linearGradient>
    <circle
       r="12"
       cy="12"
       cx="12"
       id="path-10" />
    <mask
       fill="white"
       height="24"
       width="24"
       y="0"
       x="0"
       maskUnits="objectBoundingBox"
       maskContentUnits="userSpaceOnUse"
       id="mask-11">
      <use
         id="use4185"
         xlink:href="#path-10"
         x="0"
         y="0"
         width="100%"
         height="100%" />
    </mask>
    <linearGradient
       id="linearGradient-12"
       y2="1"
       x2="0.5"
       y1="0"
       x1="0.5">
      <stop
         id="stop4188"
         offset="0%"
         stop-color="#85D65A" />
      <stop
         id="stop4190"
         offset="100%"
         stop-color="#4DAC2E" />
    </linearGradient>
    <rect
       rx="4"
       height="16"
       width="16"
       y="20"
       x="0"
       id="path-13" />
    <mask
       fill="white"
       height="16"
       width="16"
       y="0"
       x="0"
       maskUnits="objectBoundingBox"
       maskContentUnits="userSpaceOnUse"
       id="mask-14">
      <use
         id="use4194"
         xlink:href="#path-13"
         x="0"
         y="0"
         width="100%"
         height="100%" />
    </mask>
    <linearGradient
       gradientUnits="userSpaceOnUse"
       gradientTransform="matrix(3.4553145,0,0,3.4172898,13.746768,890.6918)"
       y2="31.532307"
       x2="50.720863"
       y1="25.792257"
       x1="50.720863"
       id="linearGradient4593"
       xlink:href="#linearGradient-3"
       inkscape:collect="always" />
    <linearGradient
       gradientUnits="userSpaceOnUse"
       gradientTransform="matrix(3.4552905,0,0,3.4173134,13.746768,890.6918)"
       y2="31.103317"
       x2="11.385879"
       y1="8.5987873"
       x1="11.385879"
       id="linearGradient4595"
       xlink:href="#linearGradient-3"
       inkscape:collect="always" />
    <linearGradient
       gradientUnits="userSpaceOnUse"
       gradientTransform="matrix(1.2126653,0,0,9.7370735,13.746768,890.6918)"
       y2="10.915979"
       x2="84.030319"
       y1="0.05236483"
       x1="84.030319"
       id="linearGradient4597"
       xlink:href="#linearGradient-3"
       inkscape:collect="always" />
    <linearGradient
       gradientUnits="userSpaceOnUse"
       gradientTransform="matrix(1.9038791,0,0,6.2019751,13.746768,890.6918)"
       y2="17.138025"
       x2="74.48597"
       y1="0.082212552"
       x1="74.48597"
       id="linearGradient4599"
       xlink:href="#linearGradient-3"
       inkscape:collect="always" />
    <linearGradient
       gradientUnits="userSpaceOnUse"
       gradientTransform="matrix(2.9461882,0,0,4.0078263,206.26711,890.6918)"
       y2="0.12717338"
       x2="13.348288"
       y1="26.520533"
       x1="13.348288"
       id="linearGradient4601"
       xlink:href="#linearGradient-4"
       inkscape:collect="always" />
    <linearGradient
       gradientUnits="userSpaceOnUse"
       gradientTransform="matrix(3.415431,0,0,3.4571948,206.26711,890.6918)"
       y2="8.4995661"
       x2="36.939369"
       y1="30.744461"
       x1="36.939369"
       id="linearGradient4603"
       xlink:href="#linearGradient-4"
       inkscape:collect="always" />
    <linearGradient
       gradientUnits="userSpaceOnUse"
       gradientTransform="matrix(1.9038754,0,0,6.2019871,206.26711,890.6918)"
       y2="0.082181536"
       x2="101.48242"
       y1="17.137978"
       x1="101.48242"
       id="linearGradient4605"
       xlink:href="#linearGradient-4"
       inkscape:collect="always" />
    <linearGradient
       gradientUnits="userSpaceOnUse"
       gradientTransform="matrix(12.138385,0,0,0.97276619,10.310518,890.6918)"
       y2="121.42946"
       x2="16.681692"
       y1="154.72556"
       x1="16.681692"
       id="linearGradient4607"
       xlink:href="#linearGradient-4"
       inkscape:collect="always" />
  </defs>
  <sodipodi:namedview
     id="base"
     pagecolor="#ffffff"
     bordercolor="#666666"
     borderopacity="1.0"
     inkscape:pageopacity="0.0"
     inkscape:pageshadow="2"
     inkscape:zoom="2.4866381"
     inkscape:cx="244.46419"
     inkscape:cy="133.96962"
     inkscape:document-units="px"
     inkscape:current-layer="layer1"
     showgrid="false"
     inkscape:window-width="1920"
     inkscape:window-height="1017"
     inkscape:window-x="-8"
     inkscape:window-y="-8"
     inkscape:window-maximized="1" />
  <metadata
     id="metadata7">
    <rdf:RDF>
      <cc:Work
         rdf:about="">
        <dc:format>image/svg+xml</dc:format>
        <dc:type
           rdf:resource="http://purl.org/dc/dcmitype/StillImage" />
        <dc:title></dc:title>
      </cc:Work>
    </rdf:RDF>
  </metadata>
  <g
     inkscape:label="Layer 1"
     inkscape:groupmode="layer"
     id="layer1"
     transform="translate(0,-875.19685)">
    <path
       id="Shape-3"
       d="m 198.92041,988.63886 c 0,2.59647 -0.97314,4.88151 -2.91703,6.85116 -1.94595,1.972 -4.27916,2.95683 -6.99998,2.95683 -2.52943,0 -4.86264,-0.96037 -6.99999,-2.88449 -1.94629,-1.92241 -2.91669,-4.2302 -2.91669,-6.9235 0,-2.59591 0.97074,-4.87865 2.91669,-6.85064 1.94355,-1.96966 4.2771,-2.95679 6.99999,-2.95679 2.62529,0 4.93342,0.96205 6.92713,2.88446 1.99165,1.92481 2.98988,4.23205 2.98988,6.92297 l 0,0 z"
       inkscape:connector-curvature="0"
       style="fill:url(#linearGradient4593);fill-rule:evenodd;stroke:none;stroke-width:1" />
    <path
       style="fill:url(#linearGradient4595);fill-rule:evenodd;stroke:none;stroke-width:1"
       id="path4204-2"
       d="m 80.57598,931.34456 c 7.594798,7.51212 11.392198,16.57457 11.392198,27.18458 l 0,32.04368 c 0,1.78492 -0.640517,3.28663 -1.921895,4.50733 -1.282408,1.26784 -2.802605,1.90145 -4.558185,1.90145 l -0.213047,0 c -1.756955,0 -3.275433,-0.63361 -4.558185,-1.90145 -1.281034,-1.2207 -1.921895,-2.72241 -1.921895,-4.50733 l 0,-3.23942 c -7.359072,6.43304 -15.92736,9.64809 -25.70727,9.64809 -10.728658,0 -19.891073,-3.75571 -27.485872,-11.26787 -7.596517,-7.51147 -11.393916,-16.57317 -11.393916,-27.18458 0,-10.61001 3.797399,-19.67246 11.393916,-27.18459 7.594799,-7.51147 16.757214,-11.26787 27.485872,-11.26787 10.728659,7e-5 19.891074,3.75658 27.487591,11.26798 l 0,0 z m -45.716208,9.22547 c -4.984967,4.9771 -7.477279,10.9639 -7.477279,17.95911 0,7.04235 2.492312,13.0527 7.477279,18.02911 5.031357,4.92992 11.10802,7.39419 18.228617,7.39419 7.120596,0 13.173893,-2.46427 18.15886,-7.39419 5.031013,-4.97631 7.54841,-10.98676 7.54841,-18.02911 0,-6.9951 -2.517397,-12.98201 -7.54841,-17.95911 -4.984967,-4.97566 -11.038264,-7.46488 -18.15886,-7.46488 -7.120597,0 -13.19726,2.48922 -18.228617,7.46488 l 0,0 z"
       inkscape:connector-curvature="0" />
    <path
       style="fill:url(#linearGradient4597);fill-rule:evenodd;stroke:none;stroke-width:1"
       id="path4206-0"
       d="m 115.75458,891.20171 c 1.75558,0 3.27544,0.61072 4.55681,1.83131 1.28104,1.26784 1.92327,2.79384 1.92327,4.57733 l 0,92.9624 c 0,1.78489 -0.64223,3.2866 -1.92327,4.50729 -1.28137,1.26788 -2.80123,1.90145 -4.55681,1.90145 l -0.21304,0 c -1.75696,0 -3.27544,-0.63357 -4.55819,-1.90145 -1.28103,-1.22069 -1.92189,-2.7224 -1.92189,-4.50729 l 0,-92.9624 c 0,-1.78349 0.64086,-3.30949 1.92189,-4.57733 1.28275,-1.22069 2.80123,-1.83131 4.55819,-1.83131 l 0.21304,0 0,0 z"
       inkscape:connector-curvature="0" />
    <path
       style="fill:url(#linearGradient4599);fill-rule:evenodd;stroke:none;stroke-width:1"
       id="path4208-7"
       d="m 146.01695,891.20171 c 1.75592,0 3.27543,0.61072 4.55681,1.83131 1.28275,1.26784 1.92327,2.79384 1.92327,4.57733 l 0,22.4663 12.81824,0 c 1.75558,0 3.27543,0.63361 4.55681,1.90145 1.28103,1.26722 1.92327,2.79387 1.92327,4.57736 l 0,0.14088 c 0,1.78493 -0.64224,3.28729 -1.92327,4.5073 -1.28138,1.26787 -2.80123,1.90148 -4.55681,1.90148 l -12.81824,0 0,43.87572 c 0,1.92509 0.6869,3.56837 2.06518,4.92916 1.37656,1.36227 3.06136,2.04227 5.05541,2.04227 l 5.69765,0 c 1.75558,0 3.27543,0.63426 4.55681,1.90223 1.28103,1.26709 1.92327,2.79385 1.92327,4.57733 l 0,0.14089 c 0,1.78492 -0.64224,3.28663 -1.92327,4.50732 -1.28138,1.26784 -2.80123,1.90145 -4.55681,1.90145 l -5.69765,0 c -5.60212,0 -10.39603,-1.94794 -14.38448,-5.84519 -3.94069,-3.94375 -5.91001,-8.66272 -5.91001,-14.15543 l 0,-79.37042 c 0,-1.78348 0.64052,-3.30949 1.92327,-4.57736 1.28138,-1.22069 2.79951,-1.83132 4.55647,-1.83132 l 0.21305,0 0,0 z"
       inkscape:connector-curvature="0" />
    <path
       style="fill:url(#linearGradient4601);fill-rule:evenodd;stroke:none;stroke-width:1"
       id="path4212-4"
       d="m 213.40798,891.2015 c 1.75558,0 3.27544,0.61072 4.55682,1.83142 1.28275,1.26787 1.92326,2.79387 1.92326,4.57732 l 0,32.11443 c 7.30994,-6.43162 15.8796,-9.64809 25.7059,-9.64809 10.72866,0 19.89107,3.7564 27.48725,11.26787 7.59514,7.51213 11.39254,16.57458 11.39254,27.18459 0,10.61141 -3.7974,19.67311 -11.39254,27.18458 -7.59618,7.51216 -16.75859,11.26787 -27.48725,11.26787 -10.72866,0 -19.86668,-3.73286 -27.41543,-11.19774 -7.59617,-7.46487 -11.41831,-16.47949 -11.4647,-27.04366 l 0,-61.12964 c 0,-1.78348 0.64086,-3.30949 1.92189,-4.57733 1.28275,-1.22069 2.80123,-1.83141 4.55819,-1.83141 l 0.21304,0 0,-2.1e-4 z m 32.18598,42.0444 c -7.1206,0 -13.19726,2.48933 -18.22965,7.46488 -4.98462,4.9771 -7.47625,10.98679 -7.47625,18.02914 0,6.99651 2.49163,12.98267 7.47625,17.95897 5.03239,4.9771 11.10905,7.46498 18.22965,7.46498 7.1206,0 13.17389,-2.48788 18.15852,-7.46498 5.03101,-4.9763 7.54875,-10.96246 7.54875,-17.95897 0,-7.04235 -2.51774,-13.05204 -7.54875,-18.02914 -4.98463,-4.97566 -11.03792,-7.46488 -18.15852,-7.46488 l 0,0 z"
       inkscape:connector-curvature="0" />
    <path
       style="fill:url(#linearGradient4603);fill-rule:evenodd;stroke:none;stroke-width:1"
       id="path4214-9"
       d="m 368.64262,942.54219 c 0.75907,1.59683 0.8302,3.23946 0.21305,4.92992 -0.6175,1.64397 -1.75696,2.84113 -3.41873,3.59195 -6.64605,2.95765 -15.38065,6.8549 -26.20484,11.6905 -13.43402,6.01045 -22.14525,9.90701 -26.13371,11.6905 5.12792,6.47956 11.86812,9.71891 20.22371,9.71891 5.55469,0 10.58536,-1.61967 15.09578,-4.85913 4.36713,-3.14499 7.43021,-7.2297 9.18716,-12.25473 1.04256,-2.91047 3.13214,-4.36637 6.266,-4.36637 2.22978,0 4.01148,0.91607 5.34028,2.74669 1.28138,1.78493 1.5415,3.73287 0.78381,5.84524 -2.65932,7.60655 -7.31131,13.75785 -13.95771,18.45173 -6.78934,4.83624 -14.36111,7.25399 -22.71532,7.25399 -10.72866,0 -19.89108,-3.75572 -27.48622,-11.26787 -7.59617,-7.51137 -11.39392,-16.57317 -11.39392,-27.18459 0,-10.60997 3.79775,-19.67242 11.39392,-27.18458 7.59514,-7.51147 16.75756,-11.26787 27.48622,-11.26787 7.73671,0 14.81092,2.08944 21.21987,6.26782 6.31376,4.08477 11.01352,9.48449 14.09962,16.19789 l 0,0 z m -35.31949,-9.29629 c -7.1206,0 -13.19864,2.48933 -18.22965,7.46488 -4.98462,4.9771 -7.47625,10.98679 -7.47625,18.02914 0,1.26784 0.0928,2.51207 0.28521,3.73276 l 45.075,-20.14154 c -5.12791,-6.05687 -11.67878,-9.08524 -19.65397,-9.08524 l 0,0 z"
       inkscape:connector-curvature="0" />
    <path
       style="fill:url(#linearGradient4605);fill-rule:evenodd;stroke:none;stroke-width:1"
       id="path4216-6"
       d="m 389.93499,891.2015 c 1.75558,0 3.27544,0.61072 4.55682,1.83142 1.28275,1.26787 1.92326,2.79387 1.92326,4.57732 l 0,22.46634 12.81825,0 c 1.75558,0 3.27543,0.63358 4.55646,1.90145 1.28138,1.26718 1.92327,2.79384 1.92327,4.57732 l 0,0.14089 c 0,1.78492 -0.64189,3.28729 -1.92327,4.50733 -1.28103,1.26784 -2.80088,1.90145 -4.55646,1.90145 l -12.81825,0 0,43.87571 c 0,1.92509 0.68691,3.56841 2.06485,4.92917 1.37656,1.3623 3.06135,2.0424 5.05575,2.0424 l 5.69765,0 c 1.75558,0 3.27543,0.63426 4.55646,1.9021 1.28138,1.26719 1.92327,2.79388 1.92327,4.57736 l 0,0.14089 c 0,1.78489 -0.64189,3.2866 -1.92327,4.50729 -1.28103,1.26787 -2.80088,1.90145 -4.55646,1.90145 l -5.69765,0 c -5.60246,0 -10.39603,-1.94794 -14.38448,-5.8452 -3.94035,-3.94385 -5.91001,-8.66268 -5.91001,-14.15542 l 0,-79.37042 c 0,-1.78349 0.64052,-3.30949 1.92327,-4.57733 1.28103,-1.22069 2.79951,-1.83142 4.55647,-1.83142 l 0.21304,0 0,0 z"
       inkscape:connector-curvature="0" />
    <path
       id="Ultimate-In-Play-Exc-3"
       d="m 19.857794,1035.391 c -1.590296,0 -2.956549,-0.2295 -4.099102,-0.6888 -1.142209,-0.4592 -2.088552,-1.1031 -2.839029,-1.9319 -0.750477,-0.8288 -1.304744,-1.8031 -1.663145,-2.9231 -0.358401,-1.12 -0.537429,-2.3519 -0.537429,-3.6959 l 0,-14.5483 4.266791,0 0,14.1451 c 0,1.0528 0.116832,1.9544 0.352902,2.7047 0.237102,0.7504 0.571105,1.3608 1.007852,1.8312 0.437091,0.4704 0.952185,0.8176 1.545625,1.0415 0.593784,0.2241 1.260073,0.3361 1.99921,0.3361 0.739138,0 1.411268,-0.112 2.016048,-0.3361 0.60478,-0.224 1.125372,-0.5711 1.562119,-1.0415 0.436747,-0.4704 0.772813,-1.0808 1.008196,-1.8312 0.233665,-0.7503 0.352559,-1.6519 0.352559,-2.7047 l 0,-14.1451 4.267134,0 0,14.5483 c 0,1.344 -0.185557,2.5759 -0.554267,3.6959 -0.36974,1.12 -0.929505,2.0943 -1.679982,2.9231 -0.750477,0.8288 -1.707816,1.4727 -2.872705,1.9319 -1.164888,0.4592 -2.542481,0.6888 -4.132777,0.6888 l 0,0 z m 20.562517,-0.168 c -1.20956,-0.021 -2.211914,-0.1567 -3.007062,-0.4032 -0.795148,-0.2464 -1.427761,-0.5992 -1.898184,-1.0584 -0.470422,-0.4592 -0.80099,-1.0303 -0.991358,-1.7135 -0.188994,-0.6832 -0.285209,-1.4616 -0.285209,-2.3351 l 0,-20.2266 4.065427,-0.6719 0,20.1257 c 0,0.4928 0.0378,0.9072 0.116833,1.2432 0.07903,0.336 0.21992,0.6215 0.420253,0.8567 0.202739,0.2354 0.475921,0.4144 0.822982,0.5376 0.347405,0.1233 0.78965,0.2185 1.327079,0.2855 l -0.571104,3.3599 z m 3.662355,-22.5449 4.065427,-0.6719 0,5.3086 6.249507,0 0,3.3934 -6.249507,0 0,7.1566 c 0,1.4112 0.223356,2.4191 0.67213,3.0239 0.447744,0.6048 1.20956,0.9072 2.284763,0.9072 0.739137,0 1.394086,-0.078 1.965534,-0.235 0.571105,-0.1567 1.02469,-0.3024 1.360755,-0.4368 l 0.671787,3.2254 c -0.470423,0.2017 -1.086199,0.4088 -1.848015,0.6216 -0.761473,0.2127 -1.657303,0.3192 -2.687835,0.3192 -1.254231,0 -2.301599,-0.168 -3.141419,-0.5039 -0.840163,-0.3361 -1.506452,-0.8232 -1.99921,-1.4616 -0.492758,-0.6384 -0.839819,-1.4111 -1.041527,-2.3183 -0.202739,-0.9072 -0.30239,-1.9431 -0.30239,-3.1079 l 0,-15.2203 z m 18.345105,22.2089 -4.065427,0 0,-17.5722 4.065427,0 0,17.5722 z m 0.436748,-22.7129 c 0,0.7616 -0.24741,1.3664 -0.739138,1.8144 -0.492758,0.448 -1.075202,0.6719 -1.747333,0.6719 -0.694122,0 -1.287906,-0.224 -1.780664,-0.6719 -0.492758,-0.448 -0.739137,-1.0528 -0.739137,-1.8144 0,-0.7839 0.24741,-1.3999 0.739137,-1.8479 0.492758,-0.448 1.086542,-0.672 1.780664,-0.672 0.672131,0 1.254575,0.2241 1.747333,0.672 0.492759,0.448 0.739138,1.064 0.739138,1.8479 l 0,0 z m 14.749757,13.4732 c 0,-1.8368 -0.230229,-3.1639 -0.688624,-3.9815 -0.459083,-0.8176 -1.316084,-1.2263 -2.570315,-1.2263 -0.448087,0 -0.940845,0.034 -1.478275,0.1006 -0.537773,0.067 -0.940845,0.1231 -1.209559,0.1681 l 0,14.1787 -4.065771,0 0,-17.001 c 0.784152,-0.2241 1.808842,-0.4368 3.074413,-0.6384 1.26557,-0.2017 2.60399,-0.3024 4.015257,-0.3024 1.20956,0 2.200574,0.1567 2.973387,0.4704 0.772812,0.3137 1.416766,0.728 1.931859,1.2431 0.24741,-0.1793 0.560109,-0.3695 0.940846,-0.5711 0.380736,-0.2018 0.806487,-0.3864 1.276566,-0.5544 0.470423,-0.168 0.969023,-0.3079 1.495456,-0.42 0.52609,-0.112 1.058365,-0.168 1.595794,-0.168 1.366253,0 2.491968,0.1958 3.376803,0.5879 0.884834,0.392 1.578956,0.9408 2.083054,1.6464 0.504098,0.7056 0.851159,1.5567 1.041527,2.5535 0.188994,0.9968 0.285209,2.0887 0.285209,3.2759 l 0,9.8781 -4.065427,0 0,-9.2397 c 0,-1.8368 -0.223356,-3.1639 -0.67213,-3.9815 -0.447743,-0.8176 -1.310242,-1.2264 -2.586809,-1.2264 -0.649795,0 -1.26557,0.1065 -1.848015,0.3193 -0.582444,0.2127 -1.019191,0.42 -1.310585,0.6215 0.178685,0.56 0.30239,1.1536 0.36974,1.7808 0.06873,0.6272 0.09965,1.2991 0.09965,2.0159 l 0,9.7101 -4.065426,0 0,-9.2397 z m 25.232724,6.3838 c 1.25457,0 2.20642,-0.067 2.85587,-0.2017 l 0,-4.5023 c -0.22336,-0.067 -0.54877,-0.1343 -0.97418,-0.2017 -0.42575,-0.067 -0.89583,-0.1007 -1.41127,-0.1007 -0.44774,0 -0.90133,0.034 -1.36075,0.1007 -0.45909,0.067 -0.8735,0.1904 -1.24324,0.3696 -0.36939,0.179 -0.66629,0.4312 -0.89033,0.756 -0.223356,0.3247 -0.336752,0.7336 -0.336752,1.2263 0,0.9632 0.30239,1.6296 0.907172,1.9992 0.60478,0.3696 1.42226,0.5544 2.45245,0.5544 l 0,0 z m -0.33675,-15.1531 c 1.34391,0 2.47513,0.168 3.39329,0.504 0.91851,0.336 1.65215,0.8063 2.20092,1.4111 0.54877,0.6048 0.9405,1.3384 1.17589,2.2007 0.23366,0.8624 0.35256,1.8088 0.35256,2.8392 l 0,10.6508 c -0.62712,0.1344 -1.57346,0.2969 -2.83903,0.4872 -1.26557,0.1904 -2.69334,0.2855 -4.28363,0.2855 -1.05287,0 -2.01605,-0.1006 -2.889545,-0.3024 -0.873838,-0.2017 -1.618473,-0.5264 -2.234593,-0.9743 -0.615776,-0.448 -1.097538,-1.0304 -1.444599,-1.7472 -0.347061,-0.7167 -0.520936,-1.6015 -0.520936,-2.6543 0,-1.0079 0.195867,-1.8591 0.588286,-2.5535 0.391733,-0.6944 0.923664,-1.2599 1.595795,-1.6967 0.67213,-0.4368 1.450441,-0.7504 2.335275,-0.9408 0.884487,-0.1904 1.808497,-0.2856 2.771677,-0.2856 0.44809,0 0.91851,0.028 1.41127,0.084 0.49276,0.056 1.01919,0.1512 1.57896,0.2856 l 0,-0.672 c 0,-0.4704 -0.055,-0.9184 -0.16838,-1.344 -0.1134,-0.4255 -0.30926,-0.8007 -0.58829,-1.1255 -0.27833,-0.3247 -0.64945,-0.5768 -1.10853,-0.756 -0.45943,-0.179 -1.03603,-0.2687 -1.7305,-0.2687 -0.94084,0 -1.803,0.067 -2.587148,0.2017 -0.783808,0.1344 -1.422263,0.2911 -1.915022,0.4704 l -0.504097,-3.2927 c 0.515437,-0.179 1.26557,-0.3584 2.251087,-0.5376 0.98586,-0.179 2.03838,-0.2687 3.1586,-0.2687 l 0,0 z m 11.89389,-4.1999 4.06542,-0.6719 0,5.3086 6.24951,0 0,3.3934 -6.24951,0 0,7.1566 c 0,1.4112 0.22336,2.4191 0.67214,3.0239 0.44774,0.6048 1.20955,0.9072 2.28441,0.9072 0.73948,0 1.39443,-0.078 1.96554,-0.235 0.57145,-0.1567 1.02503,-0.3024 1.36075,-0.4368 l 0.67213,3.2254 c -0.47042,0.2017 -1.08619,0.4088 -1.84801,0.6216 -0.76147,0.2127 -1.6573,0.3192 -2.68784,0.3192 -1.25423,0 -2.3016,-0.168 -3.14141,-0.5039 -0.84017,-0.3361 -1.50646,-0.8232 -1.99921,-1.4616 -0.49276,-0.6384 -0.83982,-1.4111 -1.04153,-2.3183 -0.20274,-0.9072 -0.30239,-1.9431 -0.30239,-3.1079 l 0,-15.2203 z m 13.27148,13.5068 c 0,-1.5456 0.23023,-2.9007 0.68897,-4.0655 0.45908,-1.1648 1.06936,-2.1335 1.83083,-2.9063 0.76182,-0.7728 1.63531,-1.3552 2.62083,-1.7471 0.98552,-0.392 1.99371,-0.588 3.0239,-0.588 2.41912,0 4.30631,0.7503 5.66156,2.2511 1.35492,1.5008 2.03255,3.7407 2.03255,6.7198 0,0.224 0,0.476 0,0.756 0,0.28 -0.0344,0.532 -0.0515,0.7559 l -11.59184,0 c 0.11339,1.4112 0.61028,2.5032 1.49511,3.2759 0.88483,0.7728 2.16724,1.1592 3.84723,1.1592 0.98551,0 1.88718,-0.09 2.70467,-0.2687 0.81748,-0.1794 1.46143,-0.3696 1.93186,-0.5712 l 0.53777,3.3263 c -0.22336,0.112 -0.53193,0.2295 -0.92401,0.3528 -0.39207,0.1233 -0.84016,0.235 -1.34391,0.336 -0.5041,0.1007 -1.04737,0.1849 -1.62982,0.2519 -0.5821,0.067 -1.17588,0.1007 -1.78066,0.1007 -1.54563,0 -2.88954,-0.2296 -4.03175,-0.6888 -1.14256,-0.4592 -2.08306,-1.0976 -2.8222,-1.9151 -0.73948,-0.8176 -1.28825,-1.7807 -1.64665,-2.8895 -0.3584,-1.1088 -0.53743,-2.3239 -0.53743,-3.6455 l 0,0 z m 11.79321,-1.8144 c 0,-0.5599 -0.079,-1.0919 -0.23367,-1.5959 -0.15806,-0.504 -0.38657,-0.9408 -0.68896,-1.3104 -0.30239,-0.3695 -0.67179,-0.6607 -1.10854,-0.8735 -0.43709,-0.2127 -0.95768,-0.3193 -1.56246,-0.3193 -0.62712,0 -1.17589,0.1176 -1.64631,0.3528 -0.47042,0.2351 -0.86799,0.5432 -1.19272,0.924 -0.32644,0.3808 -0.57695,0.8176 -0.75597,1.3103 -0.17869,0.4928 -0.30239,0.9968 -0.36975,1.512 l 7.55975,0 z m 16.39641,-12.7676 4.23346,0 0,23.2841 -4.23346,0 0,-23.2841 z m 9.60913,6.2831 c 0.78415,-0.2241 1.80334,-0.4368 3.05757,-0.6384 1.25423,-0.2017 2.64316,-0.3024 4.16611,-0.3024 1.4336,0 2.63217,0.1958 3.59535,0.588 0.96318,0.392 1.73015,0.9407 2.30125,1.6463 0.57145,0.7056 0.97452,1.5568 1.20956,2.5535 0.23367,0.9968 0.35291,2.0887 0.35291,3.2759 l 0,9.8781 -4.06543,0 0,-9.2397 c 0,-0.9408 -0.0618,-1.7416 -0.18556,-2.4023 -0.1237,-0.6608 -0.32644,-1.1984 -0.60478,-1.6128 -0.28177,-0.4144 -0.66079,-0.7167 -1.14221,-0.9072 -0.48176,-0.1903 -1.0697,-0.2855 -1.76417,-0.2855 -0.51509,0 -1.05252,0.034 -1.61263,0.1007 -0.56011,0.067 -0.97452,0.123 -1.24323,0.168 l 0,14.1787 -4.06543,0 0,-17.001 z m 17.841,5.5438 9.03803,0 0,3.7295 -9.03803,0 0,-3.7295 z m 19.18493,-12.062 c 3.3823,0 5.97495,0.6159 7.77829,1.8479 1.803,1.232 2.70467,3.1583 2.70467,5.779 0,1.3664 -0.24053,2.5367 -0.7223,3.5111 -0.48176,0.9744 -1.18172,1.7695 -2.09989,2.3855 -0.91851,0.616 -2.03838,1.0696 -3.35996,1.3608 -1.32158,0.291 -2.83353,0.4368 -4.53585,0.4368 l -2.11673,0 0,8.1981 -4.23346,0 0,-22.9481 c 0.98552,-0.224 2.07756,-0.3751 3.27578,-0.4535 1.19856,-0.078 2.3016,-0.1176 3.30945,-0.1176 l 0,0 z m 0.30239,3.6623 c -1.0752,0 -1.9597,0.034 -2.65416,0.1006 l 0,7.9293 2.04938,0 c 2.03838,0 3.60634,-0.2855 4.70388,-0.8567 1.09754,-0.5712 1.64631,-1.652 1.64631,-3.2423 0,-0.7616 -0.14433,-1.3999 -0.43675,-1.9151 -0.29208,-0.5152 -0.69447,-0.9184 -1.20956,-1.2096 -0.51509,-0.2911 -1.12537,-0.4984 -1.83118,-0.6216 -0.70546,-0.1233 -1.46143,-0.1849 -2.26792,-0.1849 l 0,0 z m 19.95773,20.1929 c -1.20955,-0.021 -2.21191,-0.1567 -3.00706,-0.4032 -0.79515,-0.2464 -1.42776,-0.5992 -1.89818,-1.0584 -0.47042,-0.4592 -0.80099,-1.0303 -0.99136,-1.7135 -0.18899,-0.6832 -0.28521,-1.4616 -0.28521,-2.3351 l 0,-20.2266 4.06543,-0.6719 0,20.1257 c 0,0.4928 0.0378,0.9072 0.11683,1.2432 0.079,0.336 0.21992,0.6215 0.42025,0.8567 0.20274,0.2354 0.47593,0.4144 0.82299,0.5376 0.3474,0.1233 0.78965,0.2185 1.32708,0.2855 l -0.57111,3.3599 z m 10.04622,-3.1919 c 1.25424,0 2.20642,-0.067 2.85587,-0.2017 l 0,-4.5023 c -0.22336,-0.067 -0.54877,-0.1343 -0.97452,-0.2017 -0.42541,-0.067 -0.89583,-0.1007 -1.41092,-0.1007 -0.44809,0 -0.90168,0.034 -1.36076,0.1007 -0.45942,0.067 -0.87384,0.1904 -1.24323,0.3696 -0.36974,0.179 -0.66629,0.4312 -0.89034,0.756 -0.22335,0.3247 -0.33675,0.7336 -0.33675,1.2263 0,0.9632 0.30239,1.6296 0.90717,1.9992 0.60478,0.3696 1.42227,0.5544 2.4528,0.5544 l 0,0 z m -0.33675,-15.1531 c 1.34392,0 2.47513,0.168 3.39364,0.504 0.91817,0.336 1.65181,0.8063 2.20058,1.4111 0.54876,0.6048 0.94084,1.3384 1.17588,2.2007 0.23367,0.8624 0.3529,1.8088 0.3529,2.8392 l 0,10.6508 c -0.62711,0.1344 -1.57346,0.2969 -2.83903,0.4872 -1.26557,0.1904 -2.69367,0.2855 -4.28397,0.2855 -1.05287,0 -2.01605,-0.1006 -2.88954,-0.3024 -0.8735,-0.2017 -1.61847,-0.5264 -2.23425,-0.9743 -0.61612,-0.448 -1.09754,-1.0304 -1.44494,-1.7472 -0.34706,-0.7167 -0.52059,-1.6015 -0.52059,-2.6543 0,-1.0079 0.19586,-1.8591 0.58794,-2.5535 0.39207,-0.6944 0.924,-1.2599 1.59579,-1.6967 0.67213,-0.4368 1.45044,-0.7504 2.33528,-0.9408 0.88483,-0.1904 1.80884,-0.2856 2.77202,-0.2856 0.44774,0 0.91817,0.028 1.41092,0.084 0.49276,0.056 1.01919,0.1512 1.5793,0.2856 l 0,-0.672 c 0,-0.4704 -0.055,-0.9184 -0.16837,-1.344 -0.1134,-0.4255 -0.30927,-0.8007 -0.58794,-1.1255 -0.28178,-0.3247 -0.64946,-0.5768 -1.10888,-0.756 -0.45909,-0.179 -1.03603,-0.2687 -1.73015,-0.2687 -0.94085,0 -1.80335,0.067 -2.58716,0.2017 -0.78415,0.1344 -1.42226,0.2911 -1.91536,0.4704 l -0.50376,-3.2927 c 0.5151,-0.179 1.26557,-0.3584 2.25109,-0.5376 0.98552,-0.179 2.03838,-0.2687 3.15826,-0.2687 l 0,0 z m 26.44229,0.4368 c -1.81434,6.675 -3.91973,12.7227 -6.31652,18.1434 -0.44809,1.0079 -0.90717,1.8703 -1.37759,2.5871 -0.47042,0.7168 -0.99686,1.3103 -1.5793,1.7807 -0.5821,0.4704 -1.2319,0.812 -1.9487,1.0248 -0.7168,0.2127 -1.54528,0.3192 -2.48613,0.3192 -0.62711,0 -1.24873,-0.067 -1.86485,-0.2017 -0.61612,-0.1344 -1.0807,-0.28 -1.39443,-0.4368 l 0.73914,-3.2591 c 0.80649,0.3137 1.60164,0.4704 2.38579,0.4704 1.05252,0 1.87585,-0.2519 2.46929,-0.756 0.59378,-0.5039 1.11437,-1.2823 1.56246,-2.3351 -1.27691,-2.4639 -2.50296,-5.1518 -3.67919,-8.0637 -1.17589,-2.9119 -2.22291,-6.003 -3.14142,-9.2733 l 4.33414,0 c 0.22336,0.9408 0.4986,1.9599 0.82332,3.0575 0.32645,1.0976 0.67763,2.2119 1.05837,3.3431 0.38074,1.1312 0.78381,2.2567 1.20956,3.3767 0.42575,1.1199 0.85116,2.1615 1.27691,3.1247 0.71646,-1.9936 1.38859,-4.1159 2.0157,-6.367 0.62712,-2.2512 1.19857,-4.4295 1.71366,-6.535 l 4.19979,0 z m 11.12142,17.5722 0,-23.2841 14.95146,0 0,3.5951 -10.718,0 0,5.7455 9.54177,0 0,3.5278 -9.54177,0 0,6.8206 11.52415,0 0,3.5951 -15.75761,0 z m 25.80383,-11.8268 3.72936,-5.7454 4.26713,0 -5.77908,8.2989 c 1.20956,1.568 2.36895,3.1527 3.47748,4.7542 1.10888,1.6016 2.02155,3.1079 2.73835,4.5191 l -4.40149,0 c -0.20274,-0.4256 -0.46458,-0.9128 -0.78965,-1.4616 -0.32301,-0.5487 -0.67179,-1.1199 -1.04153,-1.7135 -0.3694,-0.5936 -0.75598,-1.1816 -1.15905,-1.764 -0.40307,-0.5823 -0.79515,-1.1311 -1.17588,-1.6463 -0.78415,1.008 -1.55113,2.1223 -2.3016,3.3431 -0.75048,1.2208 -1.3721,2.3015 -1.86485,3.2423 l -4.16611,0 c 0.33675,-0.672 0.73913,-1.3888 1.20956,-2.1503 0.47042,-0.7616 0.97417,-1.54 1.51195,-2.3352 0.53743,-0.7952 1.09204,-1.5903 1.66314,-2.3855 0.57111,-0.7952 1.13671,-1.5511 1.69682,-2.2679 l -5.81276,-8.4333 4.46884,0 3.72937,5.7454 z m 10.48296,3.0575 c 0,-1.2992 0.20274,-2.5143 0.60478,-3.6455 0.40307,-1.1312 0.97968,-2.1111 1.73015,-2.9399 0.75048,-0.8288 1.66315,-1.4784 2.73835,-1.9487 1.0752,-0.4704 2.28476,-0.7056 3.62868,-0.7056 1.65765,0 3.22561,0.3024 4.70388,0.9072 l -0.87349,3.3263 c -0.47043,-0.2018 -1.00236,-0.3696 -1.59614,-0.504 -0.59344,-0.1344 -1.2264,-0.2017 -1.89818,-0.2017 -1.5903,0 -2.79986,0.4983 -3.62868,1.4951 -0.82883,0.9968 -1.24324,2.4023 -1.24324,4.2167 0,1.7471 0.39208,3.1302 1.17589,4.1494 0.78415,1.0192 2.10573,1.5288 3.96474,1.5288 0.69447,0 1.37759,-0.067 2.04938,-0.2018 0.67213,-0.1343 1.25457,-0.3023 1.74733,-0.5039 l 0.57111,3.3599 c -0.44809,0.224 -1.12538,0.4256 -2.03254,0.6048 -0.90717,0.1793 -1.84252,0.2687 -2.8057,0.2687 -1.50061,0 -2.80536,-0.2296 -3.91423,-0.6888 -1.10888,-0.4592 -2.02705,-1.0975 -2.75519,-1.9151 -0.7278,-0.8176 -1.27107,-1.7919 -1.62947,-2.9231 -0.3584,-1.1312 -0.53743,-2.3575 -0.53743,-3.6791 l 0,0 z m 16.83281,8.7693 0,-25.4008 4.06543,-0.6719 0,8.702 c 0.44809,-0.1566 0.96902,-0.291 1.56246,-0.4031 0.59344,-0.112 1.18139,-0.1681 1.76383,-0.1681 1.41127,0 2.58165,0.1959 3.51116,0.588 0.92951,0.392 1.67448,0.9408 2.23425,1.6464 0.56011,0.7056 0.95768,1.5511 1.19272,2.5367 0.2371,0.9856 0.3529,2.0831 0.3529,3.2927 l 0,9.878 -4.06542,0 0,-9.2397 c 0,-0.9407 -0.0619,-1.7415 -0.18556,-2.4023 -0.12371,-0.6607 -0.32301,-1.1983 -0.60478,-1.6127 -0.28177,-0.4144 -0.65495,-0.7168 -1.12537,-0.9072 -0.47042,-0.1904 -1.05287,-0.2855 -1.74733,-0.2855 -0.53743,0 -1.0862,0.056 -1.64631,0.168 -0.56011,0.112 -0.97418,0.2127 -1.24324,0.3024 l 0,13.9771 -4.06542,0 z m 25.73683,-2.8559 c 1.25423,0 2.20641,-0.067 2.85586,-0.2017 l 0,-4.5023 c -0.22335,-0.067 -0.54877,-0.1343 -0.97417,-0.2017 -0.42576,-0.067 -0.89618,-0.1007 -1.41127,-0.1007 -0.44809,0 -0.90167,0.034 -1.36076,0.1007 -0.45908,0.067 -0.87349,0.1904 -1.24323,0.3696 -0.3694,0.179 -0.66629,0.4312 -0.89033,0.756 -0.22336,0.3247 -0.33676,0.7336 -0.33676,1.2263 0,0.9632 0.30239,1.6296 0.90717,1.9992 0.60478,0.3696 1.42227,0.5544 2.4528,0.5544 l 0,0 z m -0.33676,-15.1531 c 1.34392,0 2.47513,0.168 3.39364,0.504 0.91817,0.336 1.65181,0.8063 2.20058,1.4111 0.54877,0.6048 0.94084,1.3384 1.17588,2.2007 0.23367,0.8624 0.3529,1.8088 0.3529,2.8392 l 0,10.6508 c -0.62711,0.1344 -1.57345,0.2969 -2.83902,0.4872 -1.26558,0.1904 -2.69368,0.2855 -4.28398,0.2855 -1.05286,0 -2.0157,-0.1006 -2.88954,-0.3024 -0.87349,-0.2017 -1.61813,-0.5264 -2.23425,-0.9743 -0.61612,-0.448 -1.09754,-1.0304 -1.4446,-1.7472 -0.3474,-0.7167 -0.52093,-1.6015 -0.52093,-2.6543 0,-1.0079 0.19586,-1.8591 0.58794,-2.5535 0.39207,-0.6944 0.92401,-1.2599 1.59614,-1.6967 0.67178,-0.4368 1.45009,-0.7504 2.33493,-0.9408 0.88483,-0.1904 1.80884,-0.2856 2.77202,-0.2856 0.44809,0 0.91817,0.028 1.41127,0.084 0.49276,0.056 1.01885,0.1512 1.57895,0.2856 l 0,-0.672 c 0,-0.4704 -0.055,-0.9184 -0.16837,-1.344 -0.1134,-0.4255 -0.30926,-0.8007 -0.58794,-1.1255 -0.28178,-0.3247 -0.64945,-0.5768 -1.10888,-0.756 -0.45908,-0.179 -1.03569,-0.2687 -1.73015,-0.2687 -0.94085,0 -1.80335,0.067 -2.58716,0.2017 -0.78415,0.1344 -1.42226,0.2911 -1.91502,0.4704 l -0.50409,-3.2927 c 0.51509,-0.179 1.26557,-0.3584 2.25108,-0.5376 0.98552,-0.179 2.03839,-0.2687 3.15826,-0.2687 l 0,0 z m 12.0956,1.008 c 0.78415,-0.2241 1.80334,-0.4368 3.05758,-0.6384 1.25423,-0.2017 2.64316,-0.3024 4.1661,-0.3024 1.43361,0 2.63217,0.1958 3.59535,0.588 0.96318,0.392 1.73015,0.9407 2.30126,1.6463 0.57145,0.7056 0.97452,1.5568 1.20956,2.5535 0.23366,0.9968 0.3529,2.0887 0.3529,3.2759 l 0,9.8781 -4.06543,0 0,-9.2397 c 0,-0.9408 -0.0618,-1.7416 -0.18555,-2.4023 -0.12371,-0.6608 -0.32645,-1.1984 -0.60478,-1.6128 -0.28178,-0.4144 -0.66079,-0.7167 -1.14256,-0.9072 -0.48141,-0.1903 -1.06936,-0.2855 -1.76382,-0.2855 -0.5151,0 -1.05287,0.034 -1.61263,0.1007 -0.56011,0.067 -0.97452,0.123 -1.24324,0.168 l 0,14.1787 -4.06543,0 0,-17.001 z m 22.84728,7.7613 c 0,1.7247 0.37524,2.9847 1.12572,3.7799 0.75013,0.7951 1.71915,1.1927 2.90603,1.1927 0.6498,0 1.26007,-0.09 1.83118,-0.2687 0.5711,-0.1794 1.03603,-0.392 1.39443,-0.6384 l 0,-9.1053 c -0.29208,-0.067 -0.64945,-0.1288 -1.0752,-0.1848 -0.42541,-0.056 -0.96318,-0.084 -1.61263,-0.084 -1.47828,0 -2.60949,0.4872 -3.39364,1.4615 -0.78381,0.9744 -1.17589,2.2567 -1.17589,3.8471 l 0,0 z m 11.32279,7.4589 c 0,2.8 -0.71096,4.8495 -2.13357,6.1487 -1.42226,1.2991 -3.6005,1.9487 -6.53506,1.9487 -1.07486,0 -2.12223,-0.09 -3.14142,-0.2687 -1.01919,-0.1791 -1.9432,-0.4144 -2.77168,-0.7056 l 0.73914,-3.4607 c 0.69412,0.291 1.48377,0.5264 2.36861,0.7056 0.88483,0.179 1.84217,0.2687 2.8727,0.2687 1.63531,0 2.79986,-0.3361 3.49432,-1.008 0.69447,-0.6719 1.04153,-1.6687 1.04153,-2.9903 l 0,-0.672 c -0.40307,0.2017 -0.935,0.4032 -1.59579,0.6048 -0.6608,0.2017 -1.41677,0.3024 -2.26793,0.3024 -1.12022,0 -2.14491,-0.179 -3.07441,-0.5376 -0.92951,-0.3584 -1.72466,-0.8847 -2.38545,-1.5791 -0.66079,-0.6944 -1.17622,-1.5624 -1.54562,-2.6039 -0.36974,-1.0416 -0.55427,-2.2455 -0.55427,-3.6119 0,-1.2768 0.19587,-2.4527 0.58794,-3.5279 0.39174,-1.0752 0.96318,-1.9935 1.71332,-2.7551 0.75047,-0.7616 1.66314,-1.3552 2.73835,-1.7807 1.0752,-0.4256 2.2961,-0.6384 3.66235,-0.6384 1.32158,0 2.57581,0.1007 3.76304,0.3024 1.18722,0.2017 2.19507,0.4143 3.0239,0.6384 l 0,15.2202 z m 4.19978,-6.9213 c 0,-1.5456 0.23023,-2.9007 0.68897,-4.0655 0.45908,-1.1648 1.06936,-2.1335 1.83118,-2.9063 0.76147,-0.7728 1.63496,-1.3552 2.62048,-1.7471 0.98586,-0.392 1.99371,-0.588 3.0239,-0.588 2.41912,0 4.30631,0.7503 5.66156,2.2511 1.35526,1.5008 2.03255,3.7407 2.03255,6.7198 0,0.224 0,0.476 -0.0344,0.756 0,0.28 -0.0344,0.532 -0.0515,0.7559 l -11.5915,0 c 0.1134,1.4112 0.61028,2.5032 1.49511,3.2759 0.88484,0.7728 2.16724,1.1592 3.84723,1.1592 0.98551,0 1.88718,-0.09 2.70467,-0.2687 0.81748,-0.1794 1.46143,-0.3696 1.93186,-0.5712 l 0.53777,3.3263 c -0.22336,0.112 -0.53227,0.2295 -0.92401,0.3528 -0.39207,0.1233 -0.84016,0.235 -1.34391,0.336 -0.5041,0.1007 -1.04737,0.1849 -1.62982,0.2519 -0.5821,0.067 -1.17588,0.1007 -1.78066,0.1007 -1.54563,0 -2.88954,-0.2296 -4.03175,-0.6888 -1.14256,-0.4592 -2.08306,-1.0976 -2.82254,-1.9151 -0.73914,-0.8176 -1.28791,-1.7807 -1.64631,-2.8895 -0.3584,-1.1088 -0.53743,-2.3239 -0.53743,-3.6455 l 0,0 z m 11.79321,-1.8144 c 0,-0.5599 -0.079,-1.0919 -0.23367,-1.5959 -0.15806,-0.504 -0.38623,-0.9408 -0.68862,-1.3104 -0.30239,-0.3695 -0.67213,-0.6607 -1.10888,-0.8735 -0.43675,-0.2127 -0.95734,-0.3193 -1.56212,-0.3193 -0.62746,0 -1.17623,0.1176 -1.6463,0.3528 -0.47043,0.2351 -0.868,0.5432 -1.19307,0.924 -0.32301,0.3808 -0.5766,0.8176 -0.75598,1.3103 -0.17868,0.4928 -0.30239,0.9968 -0.36939,1.512 l 7.55975,0 z"
       inkscape:connector-curvature="0"
       style="fill:url(#linearGradient4607);fill-rule:evenodd;stroke:none;stroke-width:1" />
  </g>
</svg>
