<?xml version="1.0" encoding="UTF-8" standalone="no"?>
<!-- Created with Inkscape (http://www.inkscape.org/) -->

<svg
   xmlns:dc="http://purl.org/dc/elements/1.1/"
   xmlns:cc="http://creativecommons.org/ns#"
   xmlns:rdf="http://www.w3.org/1999/02/22-rdf-syntax-ns#"
   xmlns:svg="http://www.w3.org/2000/svg"
   xmlns="http://www.w3.org/2000/svg"
   xmlns:sodipodi="http://sodipodi.sourceforge.net/DTD/sodipodi-0.dtd"
   xmlns:inkscape="http://www.inkscape.org/namespaces/inkscape"
   width="141mm"
   height="50mm"
   viewBox="0 0 499.6063 177.16536"
   id="svg2"
   version="1.1"
   inkscape:version="0.91 r13725"
   sodipodi:docname="logo.svg">
  <defs
     id="defs4" />
  <sodipodi:namedview
     id="base"
     pagecolor="#ffffff"
     bordercolor="#666666"
     borderopacity="1.0"
     inkscape:pageopacity="0.0"
     inkscape:pageshadow="2"
     inkscape:zoom="0.35"
     inkscape:cx="375"
     inkscape:cy="520"
     inkscape:document-units="px"
     inkscape:current-layer="layer1"
     showgrid="false"
     inkscape:window-width="1920"
     inkscape:window-height="1017"
     inkscape:window-x="-8"
     inkscape:window-y="-8"
     inkscape:window-maximized="1" />
  <metadata
     id="metadata7">
    <rdf:RDF>
      <cc:Work
         rdf:about="">
        <dc:format>image/svg+xml</dc:format>
        <dc:type
           rdf:resource="http://purl.org/dc/dcmitype/StillImage" />
        <dc:title></dc:title>
      </cc:Work>
    </rdf:RDF>
  </metadata>
  <g
     inkscape:label="Layer 1"
     inkscape:groupmode="layer"
     id="layer1"
     transform="translate(0,-875.19685)">
    <g
       id="g3354"
       transform="matrix(4.113089,0,0,4.113089,20.299115,880.65247)"
       style="fill:#ffffff">
      <g
         transform="matrix(0.9842811,0,0,1,1.6244021,-3.9831582)"
         style="fill:#ffffff"
         id="g5">
        <g
           style="fill:#ffffff"
           id="g7">
          <path
             inkscape:connector-curvature="0"
             style="fill:#ffffff"
             class="st0"
             d="m 13.1,13.5 4.2,0 0,16.5 -4.2,0 0,-1.7 C 12.3,29.1 11.5,29.6 10.7,30 9.9,30.3 9,30.5 8,30.5 5.9,30.5 4,29.7 2.5,28 0.9,26.3 0.2,24.3 0.2,21.8 0.2,19.2 1,17.2 2.5,15.5 4,13.9 5.8,13.1 8,13.1 c 1,0 1.9,0.2 2.8,0.6 0.9,0.4 1.7,0.9 2.4,1.7 l 0,-1.9 z m -4.3,3.4 c -1.3,0 -2.3,0.5 -3.2,1.4 -0.8,0.9 -1.3,2.1 -1.3,3.5 0,1.4 0.4,2.6 1.3,3.5 0.9,0.9 1.9,1.4 3.2,1.4 1.3,0 2.4,-0.5 3.2,-1.4 0.9,-0.9 1.3,-2.1 1.3,-3.6 0,-1.4 -0.4,-2.6 -1.3,-3.5 -0.8,-0.8 -1.9,-1.3 -3.2,-1.3 z"
             id="path9" />
          <path
             inkscape:connector-curvature="0"
             style="fill:#ffffff"
             class="st0"
             d="m 21,7.1 4.2,0 0,22.9 -4.2,0 0,-22.9 z"
             id="path11" />
          <path
             inkscape:connector-curvature="0"
             style="fill:#ffffff"
             class="st0"
             d="m 88,7.5 4.2,0 0,6.1 2.5,0 0,3.6 -2.5,0 0,6.7 c 0,1.7 1.2,2.1 2.3,2.1 l 0,4.2 C 90.1,30.2 88,28.5 88,23.3 l 0,-6 -2.1,0 0,-3.6 2.1,0 0,-6.2 z"
             id="path13" />
          <path
             sodipodi:nodetypes="ccccccsccsccccc"
             inkscape:connector-curvature="0"
             style="fill:#ffffff"
             class="st0"
             d="m 29.5,6.7215788 4.2,0 0,6.8784212 2.5,0 0,3.6 -2.5,0 0,6.7 c 0,1.7 1.2,2.1 2.3,2.1 l 0,4.2 c -4.4,0 -6.5,-1.7 -6.5,-6.9 l 0,-6 -2.1,0 0,-3.6 2.1,0 z"
             id="path15" />
          <path
             inkscape:connector-curvature="0"
             style="fill:#ffffff"
             class="st0"
             d="m 40.6,25.7 c 0.7,0 1.2,0.2 1.7,0.7 0.5,0.5 0.7,1 0.7,1.7 0,0.7 -0.2,1.2 -0.7,1.7 -0.5,0.5 -1,0.7 -1.7,0.7 -0.7,0 -1.2,-0.2 -1.7,-0.7 -0.5,-0.5 -0.7,-1 -0.7,-1.7 0,-0.7 0.2,-1.2 0.7,-1.7 0.4,-0.4 1,-0.7 1.7,-0.7 z"
             id="path17" />
          <path
             inkscape:connector-curvature="0"
             style="fill:#ffffff"
             class="st0"
             d="m 51.1,7.1 0,8.2 c 0.8,-0.8 1.6,-1.3 2.4,-1.7 0.9,-0.4 1.8,-0.6 2.8,-0.6 2.2,0 4,0.8 5.5,2.4 1.5,1.6 2.3,3.7 2.3,6.3 0,2.5 -0.8,4.5 -2.3,6.2 -1.6,1.7 -3.4,2.5 -5.5,2.5 -1,0 -1.8,-0.2 -2.7,-0.5 C 52.8,29.6 52,29 51.2,28.2 l 0,1.7 -4.2,0 0,-22.8 4.1,0 z m 4.4,9.8 c -1.3,0 -2.4,0.4 -3.3,1.3 -0.9,0.9 -1.3,2.1 -1.3,3.5 0,1.5 0.4,2.7 1.3,3.6 0.9,0.9 1.9,1.4 3.3,1.4 1.3,0 2.3,-0.5 3.2,-1.4 0.9,-0.9 1.3,-2.1 1.3,-3.5 0,-1.4 -0.4,-2.6 -1.3,-3.5 -0.8,-0.9 -1.9,-1.4 -3.2,-1.4 z"
             id="path19" />
          <path
             inkscape:connector-curvature="0"
             style="fill:#ffffff"
             class="st0"
             d="m 84.1,23 -13.3,0 c 0.2,1.2 0.7,2.1 1.5,2.8 0.8,0.7 1.9,1 3.2,1 1.6,0 2.9,-0.5 4,-1.6 l 3.5,1.6 c -0.9,1.2 -1.9,2.2 -3.1,2.7 -1.2,0.6 -2.7,0.9 -4.3,0.9 -2.6,0 -4.7,-0.8 -6.3,-2.5 -1.6,-1.6 -2.4,-3.7 -2.4,-6.2 0,-2.5 0.8,-4.6 2.4,-6.3 1.6,-1.7 3.7,-2.5 6.1,-2.5 2.6,0 4.7,0.8 6.4,2.5 1.6,1.7 2.4,3.9 2.4,6.6 l -0.1,1 z M 80,19.7 c -0.3,-0.9 -0.8,-1.7 -1.6,-2.3 -0.8,-0.6 -1.7,-0.9 -2.8,-0.9 -1.2,0 -2.2,0.3 -3,1 C 72,18 71.4,18.7 71,19.7 l 9,0 z"
             id="path21" />
        </g>
        <g
           style="fill:#ffffff"
           id="g23" />
      </g>
      <text
         transform="scale(0.97653675,1.024027)"
         sodipodi:linespacing="125%"
         id="text3494"
         y="36.575272"
         x="1.2148877"
         style="font-style:normal;font-weight:normal;font-size:7.87847424px;line-height:125%;font-family:sans-serif;letter-spacing:0px;word-spacing:0px;fill:#ffffff;fill-opacity:1;stroke:none;stroke-width:1px;stroke-linecap:butt;stroke-linejoin:miter;stroke-opacity:1"
         xml:space="preserve"><tspan
           style="font-style:normal;font-variant:normal;font-weight:bold;font-stretch:normal;font-size:7.87849903px;line-height:125%;font-family:sans-serif;-inkscape-font-specification:'sans-serif, Bold';text-align:start;writing-mode:lr-tb;text-anchor:start;fill:#ffffff"
           y="36.575272"
           x="1.2148877"
           id="tspan3496"
           sodipodi:role="line">Ultimate In-Play Exchange</tspan></text>
    </g>
  </g>
  <style
     type="text/css"
     id="style3">
	.st0{fill:#FFFFFF;}
</style>
</svg>
