<?xml version="1.0" encoding="UTF-8" standalone="no"?>
<svg width="800px" height="800px" viewBox="0 0 800 800" version="1.1" xmlns="http://www.w3.org/2000/svg" xmlns:xlink="http://www.w3.org/1999/xlink">
    <!-- Generator: Sketch 3.8.3 (29802) - http://www.bohemiancoding.com/sketch -->
    <title>sprite</title>
    <desc>Created with Sketch.</desc>
    <defs>
        <rect id="path-1" x="0" y="0" width="800" height="800"></rect>
        <mask id="mask-2" maskContentUnits="userSpaceOnUse" maskUnits="objectBoundingBox" x="0" y="0" width="800" height="800" fill="white">
            <use xlink:href="#path-1"></use>
        </mask>
        <linearGradient x1="50%" y1="0%" x2="50%" y2="100%" id="linearGradient-3">
            <stop stop-color="#F98547" offset="0%"></stop>
            <stop stop-color="#EF4D22" offset="100%"></stop>
        </linearGradient>
        <linearGradient x1="50%" y1="100%" x2="50%" y2="0%" id="linearGradient-4">
            <stop stop-color="#BDC0CD" offset="0%"></stop>
            <stop stop-color="#FFFFFF" offset="100%"></stop>
        </linearGradient>
    </defs>
    <g id="teaser" stroke="none" stroke-width="1" fill="none" fill-rule="evenodd">
        <g id="sprite">
            <use id="Rectangle-6" stroke="#FFFFFF" mask="url(#mask-2)" stroke-width="2" xlink:href="#path-1"></use>
            <g id="logo" transform="translate(20.000000, 20.000000)">
                <g id="Group" transform="translate(1.000000, 0.000000)">
                    <path d="M53.8882193,28.5040526 C53.8882193,29.2596659 53.6050469,29.9246456 53.0393779,30.4978503 C52.4730896,31.0717232 51.7940165,31.3583255 51.0022996,31.3583255 C50.2661585,31.3583255 49.5871699,31.0788513 48.9651649,30.5189006 C48.398792,29.9594511 48.1163235,29.2878444 48.1163235,28.5040526 C48.1163235,27.7486064 48.3988202,27.084295 48.9651649,26.5104221 C49.5307494,25.9372174 50.2098224,25.6499468 51.0022996,25.6499468 C51.7662286,25.6499468 52.4379253,25.9299222 53.018178,26.4893717 C53.597755,27.0495173 53.8882193,27.720957 53.8882193,28.5040526 L53.8882193,28.5040526 Z" id="Shape" fill="url(#linearGradient-3)"></path>
                    <g id="Shape" fill="url(#linearGradient-3)">
                        <path d="M19.4482355,11.8305528 C21.6584888,14.0166994 22.7635873,16.6540088 22.7635873,19.7416733 L22.7635873,29.0668713 C22.7635873,29.5863084 22.5771519,30.0233261 22.2042811,30.3785649 C21.8310161,30.7475309 21.3886896,30.9319165 20.8778082,30.9319165 L20.815954,30.9319165 C20.3046502,30.9319165 19.862746,30.7475309 19.489481,30.3785649 C19.1166102,30.0233261 18.930203,29.5863084 18.930203,29.0668713 L18.930203,28.1241438 C16.7885609,29.9962614 14.2951071,30.9318886 11.4489689,30.9318886 C8.32678137,30.9318886 5.66034979,29.8389127 3.45012467,27.6527661 C1.23947724,25.4668143 0.134350605,22.8297277 0.134350605,19.7416455 C0.134350605,16.6539809 1.23947724,14.0166716 3.45012467,11.8305249 C5.66034979,9.64457314 8.32678137,8.55140234 11.4489689,8.55140234 C14.5711565,8.55143019 17.2375881,9.64462883 19.4482355,11.8305528 L19.4482355,11.8305528 Z M6.14411896,14.515309 C4.69348716,15.9637185 3.96818534,17.7059699 3.96818534,19.7416733 C3.96818534,21.7911041 4.69348716,23.5402052 6.14411896,24.9884198 C7.60840541,26.4231021 9.37678259,27.1402343 11.4489689,27.1402343 C13.5211553,27.1402343 15.2828037,26.4231021 16.7334355,24.9884198 C18.1975248,23.540233 18.930203,21.7911041 18.930203,19.7416733 C18.930203,17.7059977 18.1975248,15.9637185 16.7334355,14.515309 C15.2828037,13.0673171 13.5211834,12.3429174 11.4489689,12.3429174 C9.37675443,12.3429174 7.60840541,13.0673171 6.14411896,14.515309 L6.14411896,14.515309 Z"></path>
                        <path d="M29.6857404,0.14838276 C30.1966499,0.14838276 30.6389483,0.326113509 31.0118191,0.681324407 C31.3846618,1.05029043 31.5715195,1.49438063 31.5715195,2.01340008 L31.5715195,29.0668435 C31.5715195,29.5862806 31.3846618,30.0232983 31.0118191,30.378537 C30.6389483,30.7475031 30.1966499,30.9318886 29.6857404,30.9318886 L29.6234639,30.9318886 C29.1121601,30.9318886 28.6702559,30.7475031 28.2969909,30.378537 C27.9241201,30.0232983 27.7377129,29.5862806 27.7377129,29.0668435 L27.7377129,2.01340008 C27.7377129,1.49438063 27.9241483,1.05029043 28.2969909,0.681324407 C28.670284,0.326085665 29.1121601,0.14838276 29.6234639,0.14838276 L29.6857404,0.14838276 L29.6857404,0.14838276 Z"></path>
                        <path d="M38.4926027,0.14838276 C39.0035123,0.14838276 39.4458107,0.326113509 39.8186534,0.681324407 C40.1919465,1.05029043 40.3783818,1.49438063 40.3783818,2.01340008 L40.3783818,8.55143019 L44.1086664,8.55143019 C44.6195759,8.55143019 45.0618744,8.73581575 45.434717,9.10478177 C45.8075878,9.47355289 45.9944455,9.917838 45.9944455,10.4368574 L45.9944455,10.4778444 C45.9944455,10.9972815 45.8075878,11.4344941 45.434717,11.789538 C45.0618462,12.158504 44.6195478,12.3428896 44.1086664,12.3428896 L40.3783818,12.3428896 L40.3783818,25.1113806 C40.3783818,25.6716098 40.5782748,26.1498372 40.9793277,26.5458401 C41.3799583,26.9422886 41.870231,27.1401787 42.4505682,27.1401787 L44.1086664,27.1401787 C44.6195759,27.1401787 45.0618744,27.3247591 45.434717,27.693753 C45.8075878,28.0624963 45.9944455,28.5068092 45.9944455,29.0258287 L45.9944455,29.0668156 C45.9944455,29.5862527 45.8075878,30.0232705 45.434717,30.3785092 C45.0618462,30.7474752 44.6195478,30.9318608 44.1086664,30.9318608 L42.4505682,30.9318608 C40.8202579,30.9318608 39.4251739,30.3649768 38.2644995,29.2308191 C37.117705,28.083129 36.5445471,26.7098436 36.5445471,25.1113806 L36.5445471,2.01340008 C36.5445471,1.49438063 36.7309825,1.05029043 37.1042475,0.681324407 C37.4771183,0.326085665 37.9189944,0.14838276 38.4302981,0.14838276 L38.4926027,0.14838276 L38.4926027,0.14838276 Z"></path>
                    </g>
                    <g transform="translate(56.026342, 0.000000)" id="Shape" fill="url(#linearGradient-4)">
                        <path d="M2.07807052,0.148327072 C2.58895193,0.148327072 3.03127849,0.32605782 3.40412113,0.681296563 C3.77741423,1.05026259 3.96382147,1.49435278 3.96382147,2.01337224 L3.96382147,11.3591472 C6.09116139,9.48744724 8.58503747,8.55140234 11.4446332,8.55140234 C14.5668208,8.55140234 17.2332524,9.64457314 19.4438998,11.8305249 C21.6541531,14.0166716 22.7592516,16.6539809 22.7592516,19.7416455 C22.7592516,22.8297277 21.6541249,25.4668143 19.4438998,27.6527661 C17.2332524,29.8389127 14.5668208,30.9318886 11.4446332,30.9318886 C8.32244566,30.9318886 5.66316519,29.8455675 3.46639765,27.673176 C1.25572207,25.5007844 0.143472482,22.8773973 0.129986745,19.8030702 L0.129986745,2.01342792 C0.129986745,1.49440847 0.31642214,1.05031828 0.689264778,0.681352252 C1.06255788,0.326113509 1.50443398,0.14838276 2.0157377,0.14838276 L2.07807052,0.14838276 L2.07807052,0.148327072 Z M11.4446332,12.3838765 C9.37241873,12.3838765 7.60406971,13.108304 6.13955802,14.5562681 C4.68892622,16.0046776 3.96382147,17.7535838 3.96382147,19.8030145 C3.96382147,21.8391078 4.68892622,23.5811643 6.13955802,25.0293511 C7.60406971,26.4777606 9.37241873,27.2017705 11.4446332,27.2017705 C13.5168477,27.2017705 15.278468,26.4777606 16.7290716,25.0293511 C18.193161,23.5811643 18.9258391,21.8391078 18.9258391,19.8030145 C18.9258391,17.7535838 18.193161,16.0046776 16.7290716,14.5562681 C15.278468,13.1082762 13.5168477,12.3838765 11.4446332,12.3838765 L11.4446332,12.3838765 Z"></path>
                        <path d="M47.2536586,15.0892375 C47.4746108,15.5539326 47.4952195,16.0319651 47.3159633,16.5239198 C47.1362567,17.0023421 46.8046314,17.3507311 46.3211157,17.5692261 C44.3869399,18.4299519 41.8450895,19.5641096 38.695114,20.9713373 C34.7855452,22.7204663 32.2504236,23.8544291 31.0897492,24.3734486 C32.5820489,26.2590986 34.5435621,27.2017983 36.9751616,27.2017983 C38.5916202,27.2017983 40.0557095,26.7304484 41.3682744,25.7877209 C42.6391996,24.8724758 43.5305252,23.6837708 44.0418571,22.2214113 C44.3453003,21.3744127 44.9533972,20.9507325 45.8653597,20.9507325 C46.5142799,20.9507325 47.0327628,21.2173147 47.4194854,21.7500614 C47.7923561,22.2694985 47.8680902,22.8363825 47.6475886,23.4511031 C46.8736931,25.6647322 45.5198264,27.4548481 43.5856506,28.8208383 C41.6098352,30.2282609 39.4063389,30.9318608 36.9751335,30.9318608 C33.8529459,30.9318608 31.1865425,29.8388849 28.9762892,27.6527382 C26.7656418,25.4668143 25.6605152,22.8296998 25.6605152,19.7416176 C25.6605152,16.6539531 26.7656418,14.0166438 28.9762892,11.8304971 C31.1865425,9.6445453 33.8529459,8.5513745 36.9751335,8.5513745 C39.2266323,8.5513745 41.2853329,9.15944031 43.1505033,10.3754049 C44.9878858,11.5641376 46.3556042,13.1355358 47.2536586,15.0892375 L47.2536586,15.0892375 Z M36.9751335,12.3838765 C34.9029471,12.3838765 33.1341477,13.108304 31.6700583,14.5562681 C30.2194265,16.0046776 29.4943217,17.7535838 29.4943217,19.8030145 C29.4943217,20.1719805 29.5216874,20.534069 29.5772351,20.8893078 L42.6947192,15.0278128 C41.2024477,13.2651793 39.2960599,12.3838765 36.9751335,12.3838765 L36.9751335,12.3838765 Z"></path>
                        <path d="M53.4500876,0.148327072 C53.960969,0.148327072 54.4032956,0.32605782 54.7761382,0.681296563 C55.1494313,1.05026259 55.3358386,1.49435278 55.3358386,2.01337224 L55.3358386,8.55140234 L59.0661513,8.55140234 C59.5770327,8.55140234 60.0193311,8.7357879 60.3922019,9.10475393 C60.7650445,9.47352505 60.9519022,9.91781015 60.9519022,10.4368296 L60.9519022,10.4778165 C60.9519022,10.9972537 60.7650445,11.4344663 60.3922019,11.7895101 C60.0193311,12.1584762 59.5770327,12.3428617 59.0661513,12.3428617 L55.3358386,12.3428617 L55.3358386,25.1113528 C55.3358386,25.6715819 55.5357316,26.1498094 55.9367844,26.5458123 C56.337415,26.9422607 56.8276877,27.1401787 57.4080531,27.1401787 L59.0661513,27.1401787 C59.5770327,27.1401787 60.0193311,27.3247591 60.3922019,27.6937252 C60.7650445,28.0624963 60.9519022,28.5067814 60.9519022,29.0258008 L60.9519022,29.0667878 C60.9519022,29.5862249 60.7650445,30.0232426 60.3922019,30.3784813 C60.0193311,30.7474474 59.5770327,30.9318329 59.0661513,30.9318329 L57.4080531,30.9318329 C55.7777147,30.9318329 54.3826588,30.364949 53.2219844,29.2307912 C52.0752181,28.0830733 51.502032,26.7098157 51.502032,25.1113528 L51.502032,2.01337224 C51.502032,1.49435278 51.6884674,1.05026259 52.0617323,0.681296563 C52.4346031,0.32605782 52.8764792,0.148327072 53.387783,0.148327072 L53.4500876,0.148327072 L53.4500876,0.148327072 Z"></path>
                    </g>
                </g>
                <path d="M2.77838661,42.1096296 C2.31556948,42.1096296 1.91794382,42.0428155 1.58549772,41.9091852 C1.25305161,41.7755549 0.977646957,41.5881494 0.759275495,41.346963 C0.540904032,41.1057766 0.379572312,40.8222239 0.275275495,40.4962963 C0.170978677,40.1703687 0.11883105,39.8118538 0.11883105,39.4207407 L0.11883105,35.186963 L1.36060883,35.186963 L1.36060883,39.3034074 C1.36060883,39.6097793 1.39483071,39.8721471 1.46327549,40.0905185 C1.53172028,40.30889 1.62949708,40.4865178 1.75660883,40.6234074 C1.88372057,40.760297 2.033645,40.861333 2.20638661,40.9265185 C2.37912821,40.991704 2.5730522,41.0242963 2.78816438,41.0242963 C3.00327657,41.0242963 3.19883017,40.991704 3.37483105,40.9265185 C3.55083193,40.861333 3.70238597,40.760297 3.82949772,40.6234074 C3.95660946,40.4865178 4.05438626,40.30889 4.12283105,40.0905185 C4.19127584,39.8721471 4.22549772,39.6097793 4.22549772,39.3034074 L4.22549772,35.186963 L5.46727549,35.186963 L5.46727549,39.4207407 C5.46727549,39.8118538 5.41349825,40.1703687 5.30594216,40.4962963 C5.19838607,40.8222239 5.03542473,41.1057766 4.81705327,41.346963 C4.59868181,41.5881494 4.32001793,41.7755549 3.98105327,41.9091852 C3.64208861,42.0428155 3.24120373,42.1096296 2.77838661,42.1096296 L2.77838661,42.1096296 Z M8.76238661,42.0607407 C8.41038485,42.0542222 8.11868406,42.0151115 7.88727549,41.9434074 C7.65586693,41.8717033 7.47172062,41.7690377 7.33483105,41.6354074 C7.19794148,41.5017771 7.10179429,41.3355565 7.04638661,41.1367407 C6.99097892,40.9379249 6.96327549,40.7114087 6.96327549,40.4571852 L6.96327549,34.570963 L8.14638661,34.3754074 L8.14638661,40.2322963 C8.14638661,40.3757044 8.1577939,40.4962958 8.18060883,40.5940741 C8.20342376,40.6918523 8.24416409,40.7749626 8.30283105,40.8434074 C8.36149801,40.9118522 8.44134906,40.9639998 8.54238661,40.9998519 C8.64342415,41.0357039 8.7721636,41.0634073 8.92860883,41.082963 L8.76238661,42.0607407 Z M9.82816438,35.4998519 L11.0112755,35.3042963 L11.0112755,36.8491852 L12.8299422,36.8491852 L12.8299422,37.8367407 L11.0112755,37.8367407 L11.0112755,39.9194074 C11.0112755,40.3300761 11.07646,40.6234065 11.2068311,40.7994074 C11.3372021,40.9754083 11.5588295,41.0634074 11.8717199,41.0634074 C12.0868321,41.0634074 12.2774969,41.0405928 12.4437199,40.994963 C12.609943,40.9493331 12.7419417,40.9069632 12.8397199,40.8678519 L13.0352755,41.8065185 C12.8983859,41.8651855 12.7191285,41.9254812 12.4974977,41.9874074 C12.275867,42.0493336 12.0151288,42.0802963 11.7152755,42.0802963 C11.3502366,42.0802963 11.0454989,42.0314079 10.8010533,41.9336296 C10.5566076,41.8358514 10.3626836,41.694075 10.2192755,41.5082963 C10.0758674,41.3225176 9.97483134,41.0976309 9.91616438,40.8336296 C9.85749742,40.5696283 9.82816438,40.2681498 9.82816438,39.9291852 L9.82816438,35.4998519 Z M15.1668311,41.962963 L13.9837199,41.962963 L13.9837199,36.8491852 L15.1668311,36.8491852 L15.1668311,41.962963 Z M15.2939422,35.3531852 C15.2939422,35.5748159 15.2222392,35.7508142 15.0788311,35.8811852 C14.9354229,36.0115562 14.7659431,36.0767407 14.5703866,36.0767407 C14.3683115,36.0767407 14.1955725,36.0115562 14.0521644,35.8811852 C13.9087563,35.7508142 13.8370533,35.5748159 13.8370533,35.3531852 C13.8370533,35.1250359 13.9087563,34.9457784 14.0521644,34.8154074 C14.1955725,34.6850364 14.3683115,34.6198519 14.5703866,34.6198519 C14.7659431,34.6198519 14.9354229,34.6850364 15.0788311,34.8154074 C15.2222392,34.9457784 15.2939422,35.1250359 15.2939422,35.3531852 L15.2939422,35.3531852 Z M19.5863866,39.2740741 C19.5863866,38.7395529 19.5195725,38.3533345 19.3859422,38.1154074 C19.2523119,37.8774803 19.002981,37.7585185 18.6379422,37.7585185 C18.5075711,37.7585185 18.3641652,37.7682962 18.2077199,37.7878519 C18.0512747,37.8074075 17.9339426,37.8237036 17.8557199,37.8367407 L17.8557199,41.962963 L16.6726088,41.962963 L16.6726088,37.0154074 C16.9007581,36.9502219 17.1989774,36.8882966 17.5672755,36.8296296 C17.9355736,36.7709627 18.3250512,36.7416296 18.7357199,36.7416296 C19.0877217,36.7416296 19.3761633,36.7872588 19.6010533,36.8785185 C19.8259433,36.9697782 20.0133488,37.0903696 20.1632755,37.2402963 C20.2349796,37.1881479 20.3262379,37.132741 20.4370533,37.0740741 C20.5478686,37.0154071 20.6717193,36.9616299 20.8086088,36.9127407 C20.9454984,36.8638516 21.090534,36.8231113 21.2437199,36.7905185 C21.3969059,36.7579258 21.5517192,36.7416296 21.7081644,36.7416296 C22.105796,36.7416296 22.4333483,36.7986661 22.6908311,36.9127407 C22.9483138,37.0268154 23.1503859,37.1865175 23.2970533,37.3918519 C23.4437207,37.5971862 23.5447567,37.8448874 23.6001644,38.134963 C23.6555721,38.4250385 23.6832755,38.7428131 23.6832755,39.0882963 L23.6832755,41.962963 L22.5001644,41.962963 L22.5001644,39.2740741 C22.5001644,38.7395529 22.4349799,38.3533345 22.3046088,38.1154074 C22.1742378,37.8774803 21.9232774,37.7585185 21.5517199,37.7585185 C21.362682,37.7585185 21.1834245,37.7894812 21.0139422,37.8514074 C20.8444598,37.9133336 20.71735,37.9736293 20.6326088,38.0322963 C20.6847572,38.1952601 20.7206087,38.3679991 20.7401644,38.5505185 C20.75972,38.7330379 20.7694977,38.9285915 20.7694977,39.1371852 L20.7694977,41.962963 L19.5863866,41.962963 L19.5863866,39.2740741 Z M26.9294977,41.1318519 C27.2945366,41.1318519 27.5715708,41.1122965 27.7606088,41.0731852 L27.7606088,39.762963 C27.6954233,39.7434073 27.6009057,39.7238519 27.4770533,39.7042963 C27.3532008,39.6847406 27.2163133,39.674963 27.0663866,39.674963 C26.9360156,39.674963 26.8040169,39.6847406 26.6703866,39.7042963 C26.5367563,39.7238519 26.4161649,39.7597034 26.3086088,39.8118519 C26.2010527,39.8640003 26.1146832,39.9373329 26.0494977,40.0318519 C25.9843122,40.1263708 25.9517199,40.2453326 25.9517199,40.3887407 C25.9517199,40.6690384 26.0397191,40.8629624 26.2157199,40.9705185 C26.3917208,41.0780746 26.6296444,41.1318519 26.9294977,41.1318519 L26.9294977,41.1318519 Z M26.8317199,36.7220741 C27.222833,36.7220741 27.5520149,36.7709625 27.8192755,36.8687407 C28.0865361,36.966519 28.3000154,37.1034065 28.4597199,37.2794074 C28.6194244,37.4554083 28.7334974,37.6688876 28.8019422,37.9198519 C28.8703869,38.1708161 28.9046088,38.4462207 28.9046088,38.7460741 L28.9046088,41.8456296 C28.7220894,41.8847409 28.4466847,41.9319997 28.0783866,41.9874074 C27.7100885,42.0428151 27.2945371,42.0705185 26.8317199,42.0705185 C26.525348,42.0705185 26.2450545,42.0411855 25.9908311,41.9825185 C25.7366076,41.9238516 25.519869,41.829334 25.3406088,41.698963 C25.1613487,41.5685919 25.0212019,41.3991122 24.9201644,41.1905185 C24.8191268,40.9819249 24.7686088,40.724446 24.7686088,40.4180741 C24.7686088,40.1247393 24.8256453,39.877038 24.9397199,39.674963 C25.0537946,39.4728879 25.2086079,39.3082969 25.4041644,39.1811852 C25.5997209,39.0540734 25.8262372,38.9628151 26.0837199,38.9074074 C26.3412027,38.8519997 26.6100889,38.8242963 26.8903866,38.8242963 C27.0207576,38.8242963 27.1576451,38.8324444 27.3010533,38.8487407 C27.4444614,38.8650371 27.5976451,38.8927405 27.7606088,38.9318519 L27.7606088,38.7362963 C27.7606088,38.5994067 27.7443127,38.4690377 27.7117199,38.3451852 C27.6791272,38.2213327 27.6220907,38.1121486 27.5406088,38.0176296 C27.4591269,37.9231106 27.3515725,37.849778 27.2179422,37.7976296 C27.0843119,37.7454812 26.9164617,37.7194074 26.7143866,37.7194074 C26.4406075,37.7194074 26.189647,37.7389628 25.9614977,37.7780741 C25.7333484,37.8171854 25.5475725,37.8628146 25.4041644,37.914963 L25.2574977,36.9567407 C25.4074244,36.9045923 25.6257926,36.8524447 25.9126088,36.8002963 C26.1994251,36.7481479 26.5057924,36.7220741 26.8317199,36.7220741 L26.8317199,36.7220741 Z M30.2930533,35.4998519 L31.4761644,35.3042963 L31.4761644,36.8491852 L33.2948311,36.8491852 L33.2948311,37.8367407 L31.4761644,37.8367407 L31.4761644,39.9194074 C31.4761644,40.3300761 31.5413489,40.6234065 31.6717199,40.7994074 C31.802091,40.9754083 32.0237184,41.0634074 32.3366088,41.0634074 C32.551721,41.0634074 32.7423858,41.0405928 32.9086088,40.994963 C33.0748319,40.9493331 33.2068306,40.9069632 33.3046088,40.8678519 L33.5001644,41.8065185 C33.3632748,41.8651855 33.1840173,41.9254812 32.9623866,41.9874074 C32.7407559,42.0493336 32.4800177,42.0802963 32.1801644,42.0802963 C31.8151255,42.0802963 31.5103878,42.0314079 31.2659422,41.9336296 C31.0214965,41.8358514 30.8275725,41.694075 30.6841644,41.5082963 C30.5407563,41.3225176 30.4397202,41.0976309 30.3810533,40.8336296 C30.3223863,40.5696283 30.2930533,40.2681498 30.2930533,39.9291852 L30.2930533,35.4998519 Z M34.1552755,39.4305185 C34.1552755,38.9807385 34.2220896,38.5863721 34.3557199,38.2474074 C34.4893502,37.9084427 34.6669781,37.6265196 34.8886088,37.4016296 C35.1102396,37.1767396 35.3644592,37.0072598 35.6512755,36.8931852 C35.9380917,36.7791105 36.2314221,36.7220741 36.5312755,36.7220741 C37.235279,36.7220741 37.7844587,36.9404423 38.1788311,37.3771852 C38.5732034,37.8139281 38.7703866,38.4657734 38.7703866,39.3327407 C38.7703866,39.3979263 38.768757,39.4712589 38.7654977,39.5527407 C38.7622384,39.6342226 38.7573496,39.7075552 38.7508311,39.7727407 L35.3774977,39.7727407 C35.4100905,40.1834095 35.5551261,40.5011841 35.8126088,40.7260741 C36.0700916,40.9509641 36.4432731,41.0634074 36.9321644,41.0634074 C37.2189806,41.0634074 37.4813484,41.0373336 37.7192755,40.9851852 C37.9572026,40.9330368 38.1446081,40.8776299 38.2814977,40.818963 L38.4379422,41.786963 C38.3727567,41.8195557 38.2831279,41.8537776 38.1690533,41.8896296 C38.0549786,41.9254817 37.9246096,41.9580739 37.7779422,41.9874074 C37.6312748,42.0167409 37.4732023,42.0411851 37.3037199,42.0607407 C37.1342376,42.0802964 36.9614986,42.0900741 36.7854977,42.0900741 C36.3357177,42.0900741 35.9446105,42.0232599 35.6121644,41.8896296 C35.2797183,41.7559993 35.0059432,41.5702234 34.7908311,41.3322963 C34.5757189,41.0943692 34.4160168,40.8140757 34.3117199,40.4914074 C34.2074231,40.1687391 34.1552755,39.815113 34.1552755,39.4305185 L34.1552755,39.4305185 Z M37.5872755,38.9025185 C37.5872755,38.7395547 37.5644609,38.5847415 37.5188311,38.4380741 C37.4732012,38.2914067 37.406387,38.1642968 37.3183866,38.0567407 C37.2303862,37.9491846 37.1228317,37.8644448 36.9957199,37.8025185 C36.8686082,37.7405923 36.7170542,37.7096296 36.5410533,37.7096296 C36.3585338,37.7096296 36.1988317,37.7438515 36.0619422,37.8122963 C35.9250526,37.8807411 35.80935,37.9703698 35.7148311,38.0811852 C35.6203121,38.1920006 35.5469795,38.3191104 35.4948311,38.4625185 C35.4426826,38.6059266 35.4068311,38.7525918 35.3872755,38.9025185 L37.5872755,38.9025185 Z M42.3588311,35.186963 L43.5908311,35.186963 L43.5908311,41.962963 L42.3588311,41.962963 L42.3588311,35.186963 Z M45.1552755,37.0154074 C45.3834248,36.9502219 45.6800144,36.8882966 46.0450533,36.8296296 C46.4100921,36.7709627 46.8142362,36.7416296 47.2574977,36.7416296 C47.674685,36.7416296 48.0234222,36.7986661 48.3037199,36.9127407 C48.5840176,37.0268154 48.8072747,37.1865175 48.9734977,37.3918519 C49.1397208,37.5971862 49.2570529,37.8448874 49.3254977,38.134963 C49.3939425,38.4250385 49.4281644,38.7428131 49.4281644,39.0882963 L49.4281644,41.962963 L48.2450533,41.962963 L48.2450533,39.2740741 C48.2450533,39.0002949 48.2271275,38.7672602 48.1912755,38.574963 C48.1554235,38.3826657 48.0967574,38.2262228 48.0152755,38.1056296 C47.9337936,37.9850364 47.8229799,37.8970373 47.6828311,37.8416296 C47.5426822,37.7862219 47.3715728,37.7585185 47.1694977,37.7585185 C47.019571,37.7585185 46.8631282,37.7682962 46.7001644,37.7878519 C46.5372006,37.8074075 46.4166092,37.8237036 46.3383866,37.8367407 L46.3383866,41.962963 L45.1552755,41.962963 L45.1552755,37.0154074 Z M50.3472755,38.6287407 L52.9774977,38.6287407 L52.9774977,39.7140741 L50.3472755,39.7140741 L50.3472755,38.6287407 Z M55.9303866,35.1185185 C56.9146878,35.1185185 57.6691988,35.297776 58.1939422,35.6562963 C58.7186855,36.0148166 58.9810533,36.5754036 58.9810533,37.3380741 C58.9810533,37.7357057 58.9109799,38.0762949 58.7708311,38.3598519 C58.6306822,38.6434088 58.4269805,38.8748139 58.1597199,39.0540741 C57.8924593,39.2333342 57.5665367,39.3653329 57.1819422,39.4500741 C56.7973476,39.5348152 56.357352,39.5771852 55.8619422,39.5771852 L55.2459422,39.5771852 L55.2459422,41.962963 L54.0139422,41.962963 L54.0139422,35.2847407 C54.3007584,35.2195552 54.618533,35.1755557 54.9672755,35.1527407 C55.316018,35.1299258 55.6370518,35.1185185 55.9303866,35.1185185 L55.9303866,35.1185185 Z M56.0183866,36.1842963 C55.7054962,36.1842963 55.4480172,36.194074 55.2459422,36.2136296 L55.2459422,38.5211852 L55.8423866,38.5211852 C56.4355748,38.5211852 56.8918665,38.4380749 57.2112755,38.2718519 C57.5306845,38.1056288 57.6903866,37.7911134 57.6903866,37.3282963 C57.6903866,37.1066656 57.6480167,36.9208896 57.5632755,36.770963 C57.4785343,36.6210363 57.3612022,36.5037041 57.2112755,36.418963 C57.0613488,36.3342218 56.883721,36.2739261 56.6783866,36.2380741 C56.4730522,36.202222 56.2530544,36.1842963 56.0183866,36.1842963 L56.0183866,36.1842963 Z M61.8263866,42.0607407 C61.4743848,42.0542222 61.1826841,42.0151115 60.9512755,41.9434074 C60.7198669,41.8717033 60.5357206,41.7690377 60.3988311,41.6354074 C60.2619415,41.5017771 60.1657943,41.3355565 60.1103866,41.1367407 C60.0549789,40.9379249 60.0272755,40.7114087 60.0272755,40.4571852 L60.0272755,34.570963 L61.2103866,34.3754074 L61.2103866,40.2322963 C61.2103866,40.3757044 61.2217939,40.4962958 61.2446088,40.5940741 C61.2674238,40.6918523 61.3081641,40.7749626 61.3668311,40.8434074 C61.425498,40.9118522 61.5053491,40.9639998 61.6063866,40.9998519 C61.7074241,41.0357039 61.8361636,41.0634073 61.9926088,41.082963 L61.8263866,42.0607407 Z M64.7499422,41.1318519 C65.114981,41.1318519 65.3920153,41.1122965 65.5810533,41.0731852 L65.5810533,39.762963 C65.5158678,39.7434073 65.4213502,39.7238519 65.2974977,39.7042963 C65.1736452,39.6847406 65.0367577,39.674963 64.8868311,39.674963 C64.75646,39.674963 64.6244613,39.6847406 64.4908311,39.7042963 C64.3572008,39.7238519 64.2366094,39.7597034 64.1290533,39.8118519 C64.0214972,39.8640003 63.9351277,39.9373329 63.8699422,40.0318519 C63.8047567,40.1263708 63.7721644,40.2453326 63.7721644,40.3887407 C63.7721644,40.6690384 63.8601635,40.8629624 64.0361644,40.9705185 C64.2121653,41.0780746 64.4500888,41.1318519 64.7499422,41.1318519 L64.7499422,41.1318519 Z M64.6521644,36.7220741 C65.0432775,36.7220741 65.3724593,36.7709625 65.6397199,36.8687407 C65.9069805,36.966519 66.1204599,37.1034065 66.2801644,37.2794074 C66.4398689,37.4554083 66.5539418,37.6688876 66.6223866,37.9198519 C66.6908314,38.1708161 66.7250533,38.4462207 66.7250533,38.7460741 L66.7250533,41.8456296 C66.5425338,41.8847409 66.2671292,41.9319997 65.8988311,41.9874074 C65.5305329,42.0428151 65.1149815,42.0705185 64.6521644,42.0705185 C64.3457925,42.0705185 64.065499,42.0411855 63.8112755,41.9825185 C63.557052,41.9238516 63.3403134,41.829334 63.1610533,41.698963 C62.9817931,41.5685919 62.8416464,41.3991122 62.7406088,41.1905185 C62.6395713,40.9819249 62.5890533,40.724446 62.5890533,40.4180741 C62.5890533,40.1247393 62.6460897,39.877038 62.7601644,39.674963 C62.874239,39.4728879 63.0290523,39.3082969 63.2246088,39.1811852 C63.4201654,39.0540734 63.6466816,38.9628151 63.9041644,38.9074074 C64.1616472,38.8519997 64.4305334,38.8242963 64.7108311,38.8242963 C64.8412021,38.8242963 64.9780896,38.8324444 65.1214977,38.8487407 C65.2649058,38.8650371 65.4180895,38.8927405 65.5810533,38.9318519 L65.5810533,38.7362963 C65.5810533,38.5994067 65.5647571,38.4690377 65.5321644,38.3451852 C65.4995716,38.2213327 65.4425352,38.1121486 65.3610533,38.0176296 C65.2795714,37.9231106 65.1720169,37.849778 65.0383866,37.7976296 C64.9047563,37.7454812 64.7369061,37.7194074 64.5348311,37.7194074 C64.2610519,37.7194074 64.0100915,37.7389628 63.7819422,37.7780741 C63.5537929,37.8171854 63.368017,37.8628146 63.2246088,37.914963 L63.0779422,36.9567407 C63.2278688,36.9045923 63.446237,36.8524447 63.7330533,36.8002963 C64.0198695,36.7481479 64.3262368,36.7220741 64.6521644,36.7220741 L64.6521644,36.7220741 Z M72.3472755,36.8491852 C71.8192729,38.7917134 71.2065382,40.5516958 70.5090533,42.1291852 C70.3786823,42.42252 70.245054,42.6734804 70.1081644,42.8820741 C69.9712748,43.0906677 69.8180912,43.2634067 69.6486088,43.4002963 C69.4791265,43.5371859 69.2900914,43.6365923 69.0814977,43.6985185 C68.8729041,43.7604448 68.6317213,43.7914074 68.3579422,43.7914074 C68.1754227,43.7914074 67.9945357,43.771852 67.8152755,43.7327407 C67.6360153,43.6936294 67.5007574,43.6512595 67.4094977,43.6056296 L67.6246088,42.6571852 C67.8592767,42.7484449 68.0906818,42.7940741 68.3188311,42.7940741 C68.625203,42.7940741 68.8647561,42.7207415 69.0374977,42.5740741 C69.2102393,42.4274067 69.3617934,42.2008904 69.4921644,41.8945185 C69.120607,41.1774779 68.7637217,40.3952635 68.4214977,39.5478519 C68.0792738,38.7004402 67.7745361,37.8008936 67.5072755,36.8491852 L68.7686088,36.8491852 C68.8337943,37.1229643 68.9136454,37.419554 69.0081644,37.738963 C69.1026834,38.058372 69.205349,38.382665 69.3161644,38.7118519 C69.4269798,39.0410387 69.5443119,39.368591 69.6681644,39.6945185 C69.7920169,40.0204461 69.9158675,40.3235542 70.0397199,40.6038519 C70.2483136,40.0237008 70.4438672,39.4060773 70.6263866,38.750963 C70.808906,38.0958486 70.9751266,37.461929 71.1250533,36.8491852 L72.3472755,36.8491852 Z M75.5837199,41.962963 L75.5837199,35.186963 L79.9348311,35.186963 L79.9348311,36.2331852 L76.8157199,36.2331852 L76.8157199,37.9051852 L79.5926088,37.9051852 L79.5926088,38.9318519 L76.8157199,38.9318519 L76.8157199,40.9167407 L80.1694977,40.9167407 L80.1694977,41.962963 L75.5837199,41.962963 Z M83.0930533,38.5211852 L84.1783866,36.8491852 L85.4201644,36.8491852 L83.7383866,39.2642963 C84.0903884,39.7205949 84.4277183,40.1817754 84.7503866,40.6478519 C85.0730549,41.1139283 85.3386819,41.5522942 85.5472755,41.962963 L84.2663866,41.962963 C84.2077196,41.8391105 84.1311278,41.6973341 84.0366088,41.5376296 C83.9420898,41.3779251 83.8410538,41.2117046 83.7334977,41.038963 C83.6259416,40.8662214 83.5134983,40.695112 83.3961644,40.5256296 C83.2788305,40.3561473 83.1647575,40.1964452 83.0539422,40.0465185 C82.8257929,40.3398533 82.6025358,40.6641464 82.3841644,41.0194074 C82.1657929,41.3746684 81.9849058,41.6891838 81.8414977,41.962963 L80.6290533,41.962963 C80.7268315,41.7674064 80.8441637,41.5588159 80.9810533,41.3371852 C81.1179428,41.1155544 81.264608,40.8890382 81.4210533,40.6576296 C81.5774985,40.4262211 81.7388302,40.194816 81.9050533,39.9634074 C82.0712763,39.7319988 82.2358673,39.512001 82.3988311,39.3034074 L80.7072755,36.8491852 L82.0077199,36.8491852 L83.0930533,38.5211852 Z M86.1437199,39.410963 C86.1437199,39.032887 86.202386,38.6792609 86.3197199,38.3500741 C86.4370539,38.0208872 86.604904,37.7357049 86.8232755,37.4945185 C87.041647,37.2533321 87.3072739,37.064297 87.6201644,36.9274074 C87.9330548,36.7905178 88.2850513,36.7220741 88.6761644,36.7220741 C89.1585372,36.7220741 89.6148289,36.8100732 90.0450533,36.9860741 L89.7908311,37.9540741 C89.6539415,37.8954071 89.4991282,37.8465187 89.3263866,37.8074074 C89.153645,37.7682961 88.9694987,37.7487407 88.7739422,37.7487407 C88.311125,37.7487407 87.9591286,37.8937763 87.7179422,38.1838519 C87.4767558,38.4739274 87.3561644,38.8829603 87.3561644,39.410963 C87.3561644,39.9194099 87.4702373,40.3219244 87.6983866,40.6185185 C87.9265359,40.9151126 88.3111246,41.0634074 88.8521644,41.0634074 C89.0542395,41.0634074 89.2530523,41.043852 89.4486088,41.0047407 C89.6441654,40.9656294 89.8136451,40.916741 89.9570533,40.8580741 L90.1232755,41.8358519 C89.9929045,41.9010374 89.7957213,41.9597034 89.5317199,42.0118519 C89.2677186,42.0640003 88.9955732,42.0900741 88.7152755,42.0900741 C88.2785326,42.0900741 87.8988327,42.0232599 87.5761644,41.8896296 C87.2534961,41.7559993 86.9862395,41.5702234 86.7743866,41.3322963 C86.5625337,41.0943692 86.4044612,40.8108165 86.3001644,40.4816296 C86.1958676,40.1524428 86.1437199,39.7955575 86.1437199,39.410963 L86.1437199,39.410963 Z M91.0423866,41.962963 L91.0423866,34.570963 L92.2254977,34.3754074 L92.2254977,36.9078519 C92.3558687,36.862222 92.5074228,36.8231113 92.6801644,36.7905185 C92.852906,36.7579258 93.0240154,36.7416296 93.1934977,36.7416296 C93.6041664,36.7416296 93.9447556,36.7986661 94.2152755,36.9127407 C94.4857954,37.0268154 94.7025339,37.1865175 94.8654977,37.3918519 C95.0284615,37.5971862 95.144164,37.8432578 95.2126088,38.1300741 C95.2810536,38.4168903 95.3152755,38.7362945 95.3152755,39.0882963 L95.3152755,41.962963 L94.1321644,41.962963 L94.1321644,39.2740741 C94.1321644,39.0002949 94.1142386,38.7672602 94.0783866,38.574963 C94.0425346,38.3826657 93.9838685,38.2262228 93.9023866,38.1056296 C93.8209047,37.9850364 93.7117206,37.8970373 93.5748311,37.8416296 C93.4379415,37.7862219 93.2684617,37.7585185 93.0663866,37.7585185 C92.9099414,37.7585185 92.7502393,37.7748147 92.5872755,37.8074074 C92.4243117,37.8400002 92.3037203,37.8693332 92.2254977,37.8954074 L92.2254977,41.962963 L91.0423866,41.962963 Z M98.5321644,41.1318519 C98.8972032,41.1318519 99.1742375,41.1122965 99.3632755,41.0731852 L99.3632755,39.762963 C99.29809,39.7434073 99.2035724,39.7238519 99.0797199,39.7042963 C98.9558675,39.6847406 98.8189799,39.674963 98.6690533,39.674963 C98.5386823,39.674963 98.4066836,39.6847406 98.2730533,39.7042963 C98.139423,39.7238519 98.0188316,39.7597034 97.9112755,39.8118519 C97.8037194,39.8640003 97.7173499,39.9373329 97.6521644,40.0318519 C97.5869789,40.1263708 97.5543866,40.2453326 97.5543866,40.3887407 C97.5543866,40.6690384 97.6423857,40.8629624 97.8183866,40.9705185 C97.9943875,41.0780746 98.232311,41.1318519 98.5321644,41.1318519 L98.5321644,41.1318519 Z M98.4343866,36.7220741 C98.8254997,36.7220741 99.1546816,36.7709625 99.4219422,36.8687407 C99.6892028,36.966519 99.9026821,37.1034065 100.062387,37.2794074 C100.222091,37.4554083 100.336164,37.6688876 100.404609,37.9198519 C100.473054,38.1708161 100.507275,38.4462207 100.507275,38.7460741 L100.507275,41.8456296 C100.324756,41.8847409 100.049351,41.9319997 99.6810533,41.9874074 C99.3127551,42.0428151 98.8972037,42.0705185 98.4343866,42.0705185 C98.1280147,42.0705185 97.8477212,42.0411855 97.5934977,41.9825185 C97.3392742,41.9238516 97.1225357,41.829334 96.9432755,41.698963 C96.7640153,41.5685919 96.6238686,41.3991122 96.5228311,41.1905185 C96.4217935,40.9819249 96.3712755,40.724446 96.3712755,40.4180741 C96.3712755,40.1247393 96.428312,39.877038 96.5423866,39.674963 C96.6564613,39.4728879 96.8112745,39.3082969 97.0068311,39.1811852 C97.2023876,39.0540734 97.4289038,38.9628151 97.6863866,38.9074074 C97.9438694,38.8519997 98.2127556,38.8242963 98.4930533,38.8242963 C98.6234243,38.8242963 98.7603118,38.8324444 98.9037199,38.8487407 C99.0471281,38.8650371 99.2003117,38.8927405 99.3632755,38.9318519 L99.3632755,38.7362963 C99.3632755,38.5994067 99.3469794,38.4690377 99.3143866,38.3451852 C99.2817939,38.2213327 99.2247574,38.1121486 99.1432755,38.0176296 C99.0617936,37.9231106 98.9542391,37.849778 98.8206088,37.7976296 C98.6869785,37.7454812 98.5191284,37.7194074 98.3170533,37.7194074 C98.0432741,37.7194074 97.7923137,37.7389628 97.5641644,37.7780741 C97.3360151,37.8171854 97.1502392,37.8628146 97.0068311,37.914963 L96.8601644,36.9567407 C97.0100911,36.9045923 97.2284592,36.8524447 97.5152755,36.8002963 C97.8020917,36.7481479 98.1084591,36.7220741 98.4343866,36.7220741 L98.4343866,36.7220741 Z M101.954387,37.0154074 C102.182536,36.9502219 102.479126,36.8882966 102.844164,36.8296296 C103.209203,36.7709627 103.613347,36.7416296 104.056609,36.7416296 C104.473796,36.7416296 104.822533,36.7986661 105.102831,36.9127407 C105.383129,37.0268154 105.606386,37.1865175 105.772609,37.3918519 C105.938832,37.5971862 106.056164,37.8448874 106.124609,38.134963 C106.193054,38.4250385 106.227275,38.7428131 106.227275,39.0882963 L106.227275,41.962963 L105.044164,41.962963 L105.044164,39.2740741 C105.044164,39.0002949 105.026239,38.7672602 104.990387,38.574963 C104.954535,38.3826657 104.895868,38.2262228 104.814387,38.1056296 C104.732905,37.9850364 104.622091,37.8970373 104.481942,37.8416296 C104.341793,37.7862219 104.170684,37.7585185 103.968609,37.7585185 C103.818682,37.7585185 103.662239,37.7682962 103.499275,37.7878519 C103.336312,37.8074075 103.21572,37.8237036 103.137498,37.8367407 L103.137498,41.962963 L101.954387,41.962963 L101.954387,37.0154074 Z M108.603275,39.2740741 C108.603275,39.7760025 108.71246,40.1426655 108.930831,40.3740741 C109.149203,40.6054826 109.431126,40.7211852 109.776609,40.7211852 C109.965647,40.7211852 110.143275,40.6951114 110.309498,40.642963 C110.475721,40.5908146 110.610979,40.5288892 110.715275,40.4571852 L110.715275,37.8074074 C110.630534,37.7878518 110.526239,37.769926 110.402387,37.7536296 C110.278534,37.7373333 110.122091,37.7291852 109.933053,37.7291852 C109.502829,37.7291852 109.173647,37.8709615 108.945498,38.1545185 C108.717348,38.4380755 108.603275,38.8112569 108.603275,39.2740741 L108.603275,39.2740741 Z M111.898387,41.4447407 C111.898387,42.2595596 111.691426,42.8559981 111.277498,43.2340741 C110.86357,43.61215 110.22965,43.8011852 109.37572,43.8011852 C109.062829,43.8011852 108.758092,43.7751114 108.461498,43.722963 C108.164904,43.6708146 107.896017,43.6023708 107.654831,43.5176296 L107.869942,42.5105185 C108.072017,42.5952597 108.301793,42.6637034 108.559275,42.7158519 C108.816758,42.7680003 109.095422,42.7940741 109.395275,42.7940741 C109.87113,42.7940741 110.210089,42.6962973 110.412164,42.5007407 C110.614239,42.3051842 110.715275,42.015113 110.715275,41.6305185 L110.715275,41.434963 C110.597942,41.4936299 110.443128,41.552296 110.250831,41.610963 C110.058534,41.6696299 109.838536,41.698963 109.590831,41.698963 C109.264903,41.698963 108.966684,41.6468153 108.696164,41.5425185 C108.425645,41.4382217 108.194239,41.285038 108.001942,41.082963 C107.809645,40.8808879 107.65972,40.6282978 107.552164,40.3251852 C107.444608,40.0220726 107.390831,39.6717057 107.390831,39.2740741 C107.390831,38.9025167 107.447868,38.5602979 107.561942,38.2474074 C107.676017,37.934517 107.842237,37.6672604 108.060609,37.4456296 C108.27898,37.2239989 108.544607,37.0512599 108.857498,36.9274074 C109.170388,36.8035549 109.525644,36.7416296 109.923275,36.7416296 C110.30787,36.7416296 110.672903,36.7709627 111.018387,36.8296296 C111.36387,36.8882966 111.6572,36.9502219 111.898387,37.0154074 L111.898387,41.4447407 Z M113.120609,39.4305185 C113.120609,38.9807385 113.187423,38.5863721 113.321053,38.2474074 C113.454684,37.9084427 113.632311,37.6265196 113.853942,37.4016296 C114.075573,37.1767396 114.329793,37.0072598 114.616609,36.8931852 C114.903425,36.7791105 115.196755,36.7220741 115.496609,36.7220741 C116.200612,36.7220741 116.749792,36.9404423 117.144164,37.3771852 C117.538537,37.8139281 117.73572,38.4657734 117.73572,39.3327407 C117.73572,39.3979263 117.73409,39.4712589 117.730831,39.5527407 C117.727572,39.6342226 117.722683,39.7075552 117.716164,39.7727407 L114.342831,39.7727407 C114.375424,40.1834095 114.520459,40.5011841 114.777942,40.7260741 C115.035425,40.9509641 115.408606,41.0634074 115.897498,41.0634074 C116.184314,41.0634074 116.446682,41.0373336 116.684609,40.9851852 C116.922536,40.9330368 117.109941,40.8776299 117.246831,40.818963 L117.403275,41.786963 C117.33809,41.8195557 117.248461,41.8537776 117.134387,41.8896296 C117.020312,41.9254817 116.889943,41.9580739 116.743275,41.9874074 C116.596608,42.0167409 116.438536,42.0411851 116.269053,42.0607407 C116.099571,42.0802964 115.926832,42.0900741 115.750831,42.0900741 C115.301051,42.0900741 114.909944,42.0232599 114.577498,41.8896296 C114.245052,41.7559993 113.971277,41.5702234 113.756164,41.3322963 C113.541052,41.0943692 113.38135,40.8140757 113.277053,40.4914074 C113.172756,40.1687391 113.120609,39.815113 113.120609,39.4305185 L113.120609,39.4305185 Z M116.552609,38.9025185 C116.552609,38.7395547 116.529794,38.5847415 116.484164,38.4380741 C116.438535,38.2914067 116.37172,38.1642968 116.28372,38.0567407 C116.195719,37.9491846 116.088165,37.8644448 115.961053,37.8025185 C115.833942,37.7405923 115.682387,37.7096296 115.506387,37.7096296 C115.323867,37.7096296 115.164165,37.7438515 115.027275,37.8122963 C114.890386,37.8807411 114.774683,37.9703698 114.680164,38.0811852 C114.585645,38.1920006 114.512313,38.3191104 114.460164,38.4625185 C114.408016,38.6059266 114.372164,38.7525918 114.352609,38.9025185 L116.552609,38.9025185 Z" id="Ultimate-In-Play-Exc" fill="url(#linearGradient-4)"></path>
            </g>
            <path d="M27.5,96.8438118 L25.945625,95.5825059 L20.5226563,101.016353 L34.3395313,101.016353 L29.0164063,95.5733294 L27.5,96.8438118 L27.5,96.8438118 L27.5,96.8438118 Z M29.7921875,94.9965882 L34.949375,100.245071 C34.9789063,100.143212 35,100.037682 35,99.9261882 L35,90.8543294 L29.7921875,94.9965882 L29.7921875,94.9965882 L29.7921875,94.9965882 Z M20,90.8332235 L20,99.9261882 C20,100.037682 20.0210938,100.143212 20.050625,100.245071 L25.2251562,95.0135647 L20,90.8332235 L20,90.8332235 L20,90.8332235 Z M34.53125,90 L20.46875,90 L27.5,95.5146 L34.53125,90 L34.53125,90 L34.53125,90 Z" id="mail" fill="#34333D" opacity="0.7"></path>
            <g id="18+" transform="translate(50.000000, 90.000000)">
                <circle id="Oval-15" fill="url(#linearGradient-4)" cx="12" cy="12" r="12"></circle>
                <path d="M7.49121094,16 L6.70019531,16 L6.70019531,10.9121094 C6.70019531,10.4889302 6.71321602,10.0885436 6.73925781,9.7109375 C6.6708981,9.77929722 6.59440146,9.85091108 6.50976562,9.92578125 C6.42512979,10.0006514 6.03776387,10.3180311 5.34765625,10.8779297 L4.91796875,10.3212891 L6.80761719,8.86132812 L7.49121094,8.86132812 L7.49121094,16 Z M12.0693359,8.75878906 C12.7203809,8.75878906 13.2363262,8.91015474 13.6171875,9.21289062 C13.9980488,9.51562651 14.1884766,9.9339166 14.1884766,10.4677734 C14.1884766,10.8193377 14.0794282,11.1399725 13.8613281,11.4296875 C13.6432281,11.7194025 13.2949243,11.9830717 12.8164062,12.2207031 C13.3958362,12.4973972 13.807616,12.7879217 14.0517578,13.0922852 C14.2958997,13.3966487 14.4179688,13.7490214 14.4179688,14.1494141 C14.4179688,14.7418649 14.2112651,15.2146792 13.7978516,15.5678711 C13.384438,15.921063 12.8180375,16.0976562 12.0986328,16.0976562 C11.3369103,16.0976562 10.7509786,15.9308285 10.3408203,15.597168 C9.93066201,15.2635074 9.72558594,14.7906932 9.72558594,14.1787109 C9.72558594,13.3616496 10.2236278,12.7252627 11.2197266,12.2695312 C10.7705056,12.0156237 10.4482432,11.7413752 10.2529297,11.4467773 C10.0576162,11.1521795 9.95996094,10.822593 9.95996094,10.4580078 C9.95996094,9.9404271 10.1512025,9.52783357 10.5336914,9.22021484 C10.9161803,8.91259612 11.4280567,8.75878906 12.0693359,8.75878906 L12.0693359,8.75878906 Z M10.5263672,14.1982422 C10.5263672,14.5888691 10.6622708,14.8932281 10.934082,15.1113281 C11.2058933,15.3294282 11.5875626,15.4384766 12.0791016,15.4384766 C12.56413,15.4384766 12.9417304,15.3245454 13.2119141,15.0966797 C13.4820977,14.868814 13.6171875,14.5563171 13.6171875,14.1591797 C13.6171875,13.8434229 13.4902356,13.562664 13.2363281,13.3168945 C12.9824206,13.0711251 12.5397167,12.8326834 11.9082031,12.6015625 C11.4231747,12.8098969 11.0716157,13.0402006 10.8535156,13.2924805 C10.6354156,13.5447604 10.5263672,13.8466779 10.5263672,14.1982422 L10.5263672,14.1982422 Z M12.0595703,9.41796875 C11.6526672,9.41796875 11.33366,9.51562402 11.1025391,9.7109375 C10.8714181,9.90625098 10.7558594,10.166665 10.7558594,10.4921875 C10.7558594,10.7916682 10.8518871,11.0488271 11.0439453,11.2636719 C11.2360036,11.4785167 11.5908177,11.6933583 12.1083984,11.9082031 C12.5738956,11.7128896 12.9034821,11.5029308 13.097168,11.2783203 C13.2908538,11.0537098 13.3876953,10.7916682 13.3876953,10.4921875 C13.3876953,10.1634098 13.2696952,9.90218196 13.0336914,9.70849609 C12.7976876,9.51481023 12.4729838,9.41796875 12.0595703,9.41796875 L12.0595703,9.41796875 Z M17.6240234,12.1376953 L19.6357422,12.1376953 L19.6357422,12.8115234 L17.6240234,12.8115234 L17.6240234,14.8916016 L16.9453125,14.8916016 L16.9453125,12.8115234 L14.9433594,12.8115234 L14.9433594,12.1376953 L16.9453125,12.1376953 L16.9453125,10.0478516 L17.6240234,10.0478516 L17.6240234,12.1376953 Z" fill="#393842"></path>
            </g>
        </g>
    </g>
</svg>